<?xml version="1.0" encoding="UTF-8"?>
<svg id="Layer_2" data-name="Layer 2" xmlns="http://www.w3.org/2000/svg" viewBox="0 0 1210.26 985.5">
  <defs>
    <style>
      #Layer_2-2 {
        fill: #2a7035;
        cursor: pointer;
      }
      #Layer_2-2:hover {
        fill: #194520;
      }
    </style>
  </defs>
  <g id="Layer_2-2" data-name="Layer 2">
    <g>
      <path class="cls-1" d="M50.83,153.78c.25-1.08,1.34-1.33,1.34-2.67-2.8,2.92-4.08-1.59-4.01-5.35,1.23-.85,1.15,1.31,1.34,1.34,1.85.27,3.38-3.87,4.01-4.01,3.88-.89,6.1-.19,9.36,1.34-2.07,1.94-1.18,6.85-1.34,10.7-1.58,1.54-4.73,1.51-8.02,1.34,2.47-4.5-.35-.16-2.68-2.67v-.02Z"/>
      <path class="cls-1" d="M0,164.48c3.42-.15,2.65-4.48,2.67-8.02.52-.7,6.49-1.98,2.67-2.67-.22-2.9,4.74-.61,6.69-1.34v5.35c-1.96,3.1-4.24-2.61-4.01,2.67-.82-.07-1.58-.2-1.34-1.34-1.35.06-.31,13.4-6.69,8.02v-2.67h0Z"/>
      <path class="cls-1" d="M112.34,362.38c3.13,2.78-2.85,7.77-4.01,10.7-7.01-1.27-6.08-3.1-6.69-9.36,2.27.49,2.52-1.04,2.67-2.68h6.69c-.38,2.39,1.26,2.74,1.34,1.34h0Z"/>
      <path class="cls-1" d="M346.35,402.49c.16-1.85,4.88-.87,4.01,0-.06.06-1.25.05-1.34,0-.07-.04.56,2.31,1.34,1.34,1.9-2.38,3.19,3.42,4.01,8.02-1.53-1.61-3.39-.52-1.34,0-2.02,4.04-5.87-1.11-9.36,0-.16-3.4-1.95-5.19-5.35-5.35-.25-1.14.52-1.26,1.34-1.34.03-1.88-1.7-.28-1.34,0-4.65-3.64-3.09-8.91-4.01-17.38h5.35c-.17,2.54.4,3.87,1.34,5.35.29.45.9,3.65,1.34,4.01.15.12,2.23.45,1.34,1.34-.04.04-1.31.04-1.34,0,1.03,1.5,7.34.17,4.01,4.01h0Z"/>
      <path class="cls-1" d="M172.51,401.16c2.12-1.58,3.02,3.67,4.01,2.67,1.84-1.84.57-.1,4.01,1.34-.45,4.73-.08,6.89-1.34,8.02-2.39.38-2.74-1.26-1.34-1.34-.16-2.3-3.68-.47-5.35-1.34.1.05-1.29-4.69-4.01-4.01,1.33-1.78,3.62-2.62,4.01-5.35h.01Z"/>
      <path class="cls-1" d="M521.51,768.88c-1.36.87-1.38,3.07-4.01,2.67.55-4.61-.66-.76-4.01-1.34-.21-.04.2-2.48,0-2.68-.11-.1-3.35,1.82-4.01,0-.1-5.69-2.24-9.35-1.34-16.05-.22-1.55.3-2.38,1.34-2.67-2.98-2.46-4.4-5.5-2.67-9.36h8.02c-.46,1.41,2.55,2.1,2.67,2.68.16.78-1.05,1.86-1.34,1.34.81,1.48,1.62.28,2.67,1.34-.35-.35,1.53,3.68,1.34,2.67.24,1.26-1.25,2.93-1.34,2.67.45,1.35,3.95,1.95,1.34,2.67.98,1.25,2.43,2.03,4.01,2.67-1.49,1.65-1.16,2.74,1.34,2.67v10.7c-4.35-4.21.04,4.49-4.01,0v.02Z"/>
      <path class="cls-1" d="M837.08,985.5v-1.34c-3.94.11-5.53-4.02-6.69-5.35-4.24-4.89-13.79,2.01-18.72-1.34.35,3.53-5.23,3.59-8.02,4.01-5.78.86-13.15-.65-18.72,0-.3-1.04-1.12-1.55-2.67-1.34,2.4-4.56-.07-.68-1.34-1.34-.66-.34.25-3.2-1.34-2.67-.55,2.28-1.72-.28-4.01,0-.14-1.5,1.94-2.08,0-2.67-.65,2.38-1.43-.58-2.67-1.34-1.34,4.13-2.21-2.9-4.01-2.68-1.52,2.77-5.51.97-8.02,1.34-2.5.37-4.47,2.42-6.69,1.34-2.58-2.48-1.06-2.45-5.35-1.34-.14-1.5,1.94-2.08,0-2.68-.08,1-.2,1.34-1.34,1.34-1.03,0-1.3-1.33-1.34-1.34-2.02-.22-4.68-.27-6.69,0-1.45.19-.64.95-1.34,1.34-2.48,1.36-6.51,2.22-9.36,2.68-6.78,1.07-13.27-.79-21.4,0-.29-1.04-1.12-1.56-2.67-1.34,2.86-4.54-.74-.72-1.34-1.34-.76-.79-.71-3.19-1.34-4.01-.54-.71-1.99-1.96-2.67-2.67-.93-.97-3-.42-4.01-1.34-.4-.36.23-2.16,0-2.67-.05-.11-2.5-1.25-2.67-1.34.12.06-1.32,2.11-2.67,1.34-1.07-.61.52-2.48-1.34-2.67-.18-.02-1.21,2.4-2.67,1.34-.14-1.5,1.94-2.08,0-2.68-.29,1.04-1.12,1.56-2.68,1.34,2.69-4.66-.59.11-1.34-2.67.11-2.48-1.99.31-2.67,0-.67-.3-2.24-3.29-2.67-4.01-.59-.98-.6-1.88-1.34-2.67.81-7.94-.92-13.34-2.67-18.72,1.19-.78,7.63-2.81,4.01-4.01,0,.74-1.08,1.52-1.34,0,1.68-.55,2.73-1.72,2.67-4.01,2.72-.4,3.56-2.68,5.35-4.01,3.85-1.5,7.89-2.81,10.7-5.35,1.77-3.35-5.29-4.19-1.34-5.35,2.27-2.63,4.1-5.7,8.02-6.69,2.69-4.66-.59.11-1.34-2.67,2.79-2.53.88-6.69,1.34-9.36.28-1.62.73-3.03,1.34-5.35.39-1.47.54-3.38,1.34-5.35.48-1.18,3.84.67,1.34-1.34-.73-.59,2.79-2.1,2.67-2.67-.02-.13-2.24-.21-1.34-1.34,1.52-1.9,4.79-4.65,5.35-5.35.58-.73,1.85,1.22,1.34,1.34,1.49-.34,2.09-1.44,2.67-2.67-2.49-.65-2.05-3.93-2.67-5.35-.33-.75-2.94-2.68-2.67-4.01-.01.06,2.13-1.22,0-1.34-3.2-.17-3.14-7.67-1.34-8.02-4.41-.25-3.88-6.84-4.01-9.36-.06-1.15-1.28-1.09-1.34-1.34-.28-1.27.28-2.73,0-4.01-.25-1.14-1.28-1.73-1.34-2.67-.11-1.94,1.68-3.92,0-4.01-2.21-.12-2.23-8.52-2.67-9.36-.35-.65-2.95-2.79-4.01-4.01-1.1-1.27-2.51-5.4-4.01-2.67,1.5.28,2.08,1.48,2.67,2.67-1.96-1.87-7.6-5.62-8.02-6.69-.33-.84,1.68-2.29,1.34-2.67-.58-.65-3.34-.83-4.01-1.34-1.19-.91-6.7-6.99-6.69-6.69-.05-.88,1.81.07,0-1.34.6.47-.64,1.48-1.34,1.34-.9-.18-.75-3.3-1.34-4.01-.56-.68-2.3,1.71-2.67,1.34-.87-.88,1.36-1.42,1.34-1.34.41-1.58-6.39-7.48-5.35-4.01,1.5.28,2.08,1.48,2.68,2.67-2.34-1.22-4.65-2.48-4.01-6.69,5.33.43,9.88.07,12.03-2.67.14,1.5-1.94,2.08,0,2.67.02-2.66,3.65-1.7,2.67-5.35,2.93-.42,6.05-1.32,2.67-2.67.26.1-1.29,2.03-1.34,0,2.53-2.2,4.76-1.88,6.69-5.35-.3.53-1.49-.57-1.34-1.34.02-.1,1.1-.47,1.34-1.34,1.35-5.11-.15-7.24,1.34-10.7-3.6.92-2.59-2.77-4.01-4.01-.2-7.72-6.33-15.49-4.01-21.4-5.39-.05-3.31-6.2-4.01-9.36-.04-.19-1.1-.38-1.34-1.34-.48-1.91-.5-2.7-1.34-4.01-.77-1.2-1.24-2.24-1.34-4.01-.04-.83-1.35-1.51-1.34-1.34-.05-.82,1.57-2.27,1.34-2.67-.27-.47-3.2-3.2-5.35-5.35l-10.7-10.7c-1.9-1.9-4.25-4.57-5.35-5.35-1.62-1.15-2.46.1-4.01-1.34.65.6,1.24-2.54-1.34-2.67-4.25-.22-5.72-7.55-8.02-8.02-.55,2.28-1.72-.28-4.01,0,3.16-4.86-1.85.15-4.01-2.67-1.15-1.5,2.18-1.26,0-2.68.68.44-2.51.87-4.01,0-2.38-1.37-.24-5.71-2.67-2.67-.78.98-1.35-1.34-1.34-1.34-1.65-1.27-1.44-2.58-2.67-1.34-.82.82-2.53-2.4-4.01-1.34,2.41-4.19-.41-.69-4.01-2.67,2.33-4.6.02-.64-1.34-1.34-1.05-.54.52-2.53-1.34-2.67-.03,0,.06,1.28,0,1.34-1.43,1.43-2.39-3.65-2.67-4.01-.32-.4-2.08.71-1.34,1.34-2.56-2.15-2.22-2.81-4.01-4.01-.55,2.28-1.73-.28-4.01,0,.42-1.55,1.74-3.08,0-1.34-1.4,1.4-3.29-4.45-4.01-5.35-2.86-3.57-6.59-4.43-9.36-6.69-1.82-1.48-2.76-3.69-4.01-5.35.74,0,1.52-1.08,0-1.34-.76,3.2-3.82-3.24-1.34-4.01-4.91,0-5.12-4.68-8.02-6.69-1.72,3.73-5.34-1.64-6.69-2.67-.29,1.04-1.12,1.55-2.67,1.34-.14-1.5,1.94-2.08,0-2.67-1.34,4.13-2.2-2.9-4.01-2.67-.58,2.9-3.27-1.07-4.01-1.34-6.23-2.24-11.7-.57-17.38,0,.11,2.83,1.85,4.59,2.67,5.35.23.21-.2,1.09,0,1.34.49.61,3.33-2.46,4.01,0-.24,3.04,4.52,7.79,5.35,5.35-1.19-.39-5.85-3.62-2.67-4.01,3.17,3.92,6.75,7.83,9.36,10.7,1.11,1.22,3.61,1.93,4.01,4.01.18,3.3.2,6.44-1.34,8.02,2.86-.2,2.52,1.36,2.67,4.01.18,3.21,3.71,6.7,1.34,8.02,6,2.02,9.21,6.84,12.03,12.03,4.69-.24,4.4,4.52,8.02,5.35,1.82,1.8,2.55,9.34-1.34,9.36-4.16-7.88-11.07-13-17.38-18.72,0-.74-1.08-1.52-1.34,0,5.91,4.79,11.26,10.14,16.05,16.05-5.56-5.57-13.7-11.68-18.72-17.38-.98-1.11-.44-2.72-1.34-4.01-2.13-3.05-4.07-1.49-5.35-1.34-2.14.26-6.58-4.38-6.69-1.34,3.27,1.44-2.47,4.24-2.67,5.35.1-.58,1.25,1.95,1.34,2.67.61,5.07-.46,9.02,0,13.37-5.86-.97,1.08,2.66-2.67,2.67-1.43-4.55-.42,3.72-4.01,1.34-2.06-1.16-4.83-8.4-6.69-5.35.74,0,1.52,1.08,0,1.34-.7-1.98-1.98-3.37-2.67-5.35v-8.02c-1.93.71-3.26-5.21-4.01-1.34,3.34.92-2.48,3.57-1.34,6.69-2.94,1.52-4.44,4.47-8.02,5.35-.3,1.04-.04,2.64-1.34,2.67-.81,3.2,1.68,9.7-1.34,10.7.63-6.35-1.67-1.48-4.01-4.01-.23,2,.48,4.94-1.34,5.35-.07,3.98,3.93,6.78,1.34,9.36,2.3-.07,3.43,1.03,4.01,2.67-4.55,1.43,3.72.42,1.34,4.01-2.88,2.72-7.53-.33-9.36-2.67-1.85,3.05-9.31.5-13.37,1.34v12.03c-1.5-.14-2.08,1.94-2.67,0-1.77.02-1.22,2.34-2.67,2.67-3.42-1.02-6.15-1.97-8.02,1.34,3.11.5-1.55,1.62-1.34,2.67.05.23,2.17.08,1.34,1.34-1.71,1.86-6.31.82-8.02,2.67.78,4.74,3.3,12.78,1.34,16.05,4.71.45,7.67,7.41,5.35,10.7,6.22.38-2.08,2.42,2.67,2.67,1.89.1,1.52,3.12,2.67,4.01-2.19-.97-5.82,2.66-2.67,2.67,0-.74,1.08-1.52,1.34,0-1.57,2-5.56,1.58-5.35,5.35-.55.34-2.23-.45-2.67,0-.69.69,1.23,1.78,1.34,1.34-.32,1.37-1.63,3.38,0,1.34.58-.73,2.1,2.79,2.67,2.68.23-.05.08-2.17,1.34-1.34-4.26,3.23,8.06,5.31,4.01,8.02-.32-1.45-2.2-3.21-2.67-1.34,1.98,2.48,6.91,2,6.69,6.69v5.35c-2.19-.97-5.82,2.66-2.67,2.67,0-.74,1.08-1.52,1.34,0-4.07.83-2.61,7.19-6.69,8.02-2.21-3.14-7.8-2.9-13.37-2.67-.5-2.09.1-2.52-1.34-1.34-1.71,1.42-.09-2.98,0-2.67-.09-.32-2.48-.88-2.67-1.34-.71-1.65-1.14-1.77,0-2.67.98-.78-1.33-1.33-1.34-1.34.9,1.03-1.88.59-2.67,0-1.11-.83-1.64-3.03-2.67-4.01-2.12-2-4.94-3.02-6.69-6.69,3.47-3.03-4.2-2.93,0-6.69-5.96-2.9-12.76.29-18.72,1.34-3.08.41-1.49-3.86-4.01-4.01-.23,1.56-2.11,1.45-4.01,1.34-.81,3.63-2.65,1.21-4.01,4.01.2-.41,1.91,2.01,0,2.67-1.04.3-2.64.04-2.67,1.34-.74,0-1.52,1.08,0,1.34,3.48-2.77-2.27,1.49-1.34,4.01,1.12.46,1.05.5,0,1.34-1.67,1.34,3.14.08,2.67,0,1.41.24,2.44,8.69,4.01,4.01-3.65-2.08,6.9,1.01,4.01,6.69-3.08-2.65-1.49.34-4.01,1.34-4.27.79-4.14-2.51-6.69,0,.24-2.92-1.09-4.26-4.01-4.01-.28,1.62-1.48.82-2.67,0-1.43,1.25-.42,4.93-4.01,4.01-4.58.47-7.01-2.55-9.36-2.67-1.27-.07-.93-1.22-1.34-1.34-1.23-.36-2.76.27-4.01,0-4.64-1.01-14.49-3.29-17.38-4.01-1.57-.39-3.21-.22-2.67-2.67-5.7-.1-9.35-2.24-16.05-1.34-.88-1.79-2.86-2.49-5.35-2.67-.14-1.5,1.94-2.08,0-2.67.41,4.18-3.86-3.4-4.01,1.34-4.93,2.14-8.48,1.14-10.7,0-1.23-.63-2.73-.51-4.01-1.34-.92-.6-.53-3.41-1.34-4.01-1.52-1.14-1.21,2.12-2.67,0,.26.38,1.8-.44,1.34-1.34-.41-.8-2.12-.08-2.67-1.34-1.06-2.43-1.46-5.3,0-6.69-5.86.97,1.08-2.66-2.67-2.67-.78,3.2-2.81-3.24-4.01-4.01,1.5-.14,2.08,1.94,2.67,0-1.98-.7-3.37-1.98-5.35-2.67-2.45-4.23-6.07-7.3-9.36-10.7-1.54-1.58-1.51-4.73-1.34-8.02-3.14-.43-2.99-4.14-5.35-5.35-1.58,2.44-1.16-3.07-5.35,0-1.21-2.35-4.92-2.21-5.35-5.35-.43-3.14-2.11-5.02-1.34-9.36-4.33-.78-2.5-2.81-4.01-4.01,0,.74-1.08,1.52-1.34,0-.9-1.49-4.44.27-5.35-4.01.74,0,1.52-1.08,0-1.34-.76,3.2-3.82-3.24-1.34-4.01-1.77-.38-2.94-.06-1.34-1.34.97-.78-1.31-1.31-1.34-1.34.05.05.05,1.28,0,1.34-.77.97-1.28-1.27-1.34-1.34-3.48-4.18-6.26-7.24-9.36-10.7-.98-1.09-2.94-3.15-4.01-4.01,2.49,1.99-5.96-.84-4.01-2.67,2.38-.65-.58-1.43-1.34-2.67-.97-4.09,2.31-3.93,1.34-8.02-1.37-1.34-2.93-2.93-4.01-4.01-1.07-1.07-1.94.28-2.67-1.34.13.28,2.01-1.31,0-1.34-1.49,3.41-10.34-.54-12.04,2.67-1.19-2.38-3.73-3.4-2.67-8.02,1.34-2.84,5.4-6.48,8.02-4.01,1.15-4.65,5.56-6.03,8.02-9.36-2.07-1.49-2.79-4.35-6.69-4.01-1.23,2.34-4.18,2.95-8.02,2.67-1.84-1.72-1.32-5.81-1.34-9.36,2.5.07,2.83-1.03,1.34-2.67,1.91-.32,2.26-2.2,4.01-2.67.14,1.5-1.94,2.08,0,2.67,1.34-1.78,1.26-4.98,4.01-5.35,3.98-.05,10.69,3.98,12.03-1.34-6.65-.53,1.81-3.78-2.67-4.01-3.51-.18-1.75-9.24-1.34-8.02-.28-.83-2.37.21-2.67-1.34-.23-1.12,2.02-2.57,0-2.68-3.03-.16.33-3.35,0-4.01-.49-.98-2.21.26-2.68-1.34-.35-1.22,1.63-1.77,1.34-2.67-.25-.79-2.37.18-2.67-1.34-.26-1.29,1.29-1.63,1.34-2.67-1.78-1.34-4.98-1.27-5.35-4.01,1.5-.14,2.08,1.94,2.67,0-6.37-1.2-7.38-7.78-6.69-16.05-2.17-2.73-9.87.06-12.04-2.67-.3-2.53,1.51-2.95,1.34-5.35-4.74-.15,2.84-4.42-1.34-4.01-.25,1.98-3.23,1.23-5.35,1.34-2.31.81.1,6.34-2.68,6.69-2.66-1.61-5.71-1.1-6.69,0,2.38.65-.58,1.43-1.34,2.67,2.67,1.48-1.63,7.18,0,12.03-2.66.02-1.7,3.65-5.35,2.67-.28-1.61-1.48-.82-2.67,0-2.74-4.4-.72-13.54-1.34-20.06-1.04-.3-1.55-1.12-1.34-2.68-5.86.97,1.08-2.66-2.67-2.67.29,1.76-1.86.66-2.67,1.34-3.25,2.68-.33,10.59-1.34,14.71,1.62.28.82,1.48,0,2.67,2.92-.24,4.25,1.1,4.01,4.01-1.62.28-.82,1.48,0,2.67-3.52-3.54-2.83,3.96-6.69,4.01-.14-1.5,1.94-2.08,0-2.67-1.07,4.98-2.99,2.15-4.01,4.01-.22.4,1.83.09,0,1.34-1.2.82-2.24,1.14-4.01,1.34.07-2.5-1.03-2.83-2.67-1.34,3.02-3.51-1.11-1.44-1.34-4.01-.41-4.64,3.2-10.19,4.01-17.38.7-6.2-.52-11.98,0-18.72,2.5.07,2.83-1.03,1.34-2.67,2.3.07,3.43-1.03,4.01-2.68-1.64-.02.34-7.56,1.34-9.36-5.86.97,1.08-2.66-2.67-2.67-.28.87-.72,1.35-1.34,0-1.29-2.86.68-3.29-1.34-4.01-.17-.06-.71,2.09-1.34,0-1.29-4.31-2.13-10.07-1.34-16.05.66-4.98,1.15-5.47,0-9.36-.66-2.24-.78-3.17-1.34-5.35-.06-5.37-.12-9.78-1.34-10.7-2.02,1.99-5.87,2.15-9.36,2.67v-12.03c3.45.22,6.43-6.8,8.02-4.01-1.45.32-3.21,2.2-1.34,2.67.28-1.5,1.48-2.08,2.68-2.67,0-1.34,1.08-1.59,1.34-2.67.74,0,1.52-1.08,0-1.34,0,.74-1.08,1.52-1.34,0,4.43-.47,2.1-7.71,2.67-12.03,4.31-2.14,5.78-6.08,8.02-8.02.81-.7.23-1.39,1.34,0,.78.97,1.3-1.3,1.34-1.34-.04.04-1.29.04-1.34,0-.88-.88,3.03-1.9,2.68-2.67-1.04-.3-1.56-1.12-1.34-2.67,4.72-1.35,2.45-2.31,4.01-5.35,1.04-.3,2.64-.04,2.67-1.34.74,0,1.52-1.08,0-1.34,0,.74-1.08,1.52-1.34,0,1.78-1.34,4.98-1.27,5.35-4.01-2.95-.17-.57-5.67-1.34-8.02h-10.7c-.15-1.63-.4-3.17-2.67-2.67,2.83-3.46-.83-1.51-1.34-4.01-.49-2.42.35-4.41,0-8.02,1.67-.15,1.86-1.66,2.67-2.67.39-.49,2.06.88,1.34,1.34,2.04-1.28,2.04-3.26,4.01-4.01,1.55-.6,3.74.46,5.35,0,1.53-4.27,1.38-10.21,9.36-8.02-.57-7.11-.15-13.49-1.34-20.06-.57-3.15-2.59-6.05-2.68-9.36-.27-10.43,4.05-19.92,2.68-29.42-.68-4.71-3.85-7.55-4.01-12.04-2.51-.32.76-2.2-1.34-2.67,0,.74-1.08,1.52-1.34,0-1.71-3.35.68-4.19-1.34-5.35-2.24,4.37-3.97-.72-6.69-1.34.06.01-1.28,1.56-2.68,1.34-.08-.01.08-1.24,0-1.34-.26-.31-2.24.1-2.67,0-1.94-.45-4.28-.72-6.69-1.34-.11-.03.09-1.23,0-1.34-.28-.34-3.51.03-4.01,0-1.22-.06-1.01-1.25-1.34-1.34-7.24-1.88-14.32-1.52-21.4-2.67-.29-1.04-1.12-1.55-2.67-1.34,2.39-4.56-.07-.68-1.34-1.34-.66-.34.25-3.2-1.34-2.67-.03,2.05-6.31-.67-8.02-1.34-.02,2.32-.58,2.26-2.67,2.67-4.18.82-10.74-1.37-14.71-1.34,4.15-4.13-4.53-2.26-2.67-8.02,3.94,1.88,1.58.68,1.34-1.34-.27-2.22,1.6-1.08,0-2.67-.82-.82,2.4-2.54,1.34-4.01-1.58-1.54-4.73-1.51-8.02-1.34.24-3.04-4.52-7.79-5.35-5.35,1.19.39,5.85,3.62,2.67,4.01-1.55-3.35-5.33-4.48-5.35-9.36h-8.02c1-2.7-1.86-1.73-1.34-1.34-1.15-.85-1.69-1.7-2.67-2.67-.17,2.28-3.33.83-5.35,1.34-.71.18-1.39,1.35-1.34,1.34-1.21.26-2.56-1.35-2.67-1.34-1.76.11-1.23,2.27-2.67,2.67-2.86-4.27-6.29-7.97-9.36-12.03.02-1.77,2.34-1.22,2.68-2.67-1.85-2.16-3.79-4.23-5.35-6.69,1.5-.14,2.08,1.94,2.67,0-2.13-1.34-5.38-1.27-2.67-4.01-2.3-1.45-5.98-2.46-6.69-4.01-.57-1.26,1.29-1.13,1.34-1.34.3-1.48-.91-.76-1.34-1.34.23.31-.51,1.44-1.34,0-.83-1.45-2.74-3.76-2.67-8.02.02-1.77,2.34-1.22,2.67-2.67-1.62-.28-.82-1.48,0-2.68-5.86.98,1.08-2.66-2.67-2.67-2.52,3.37-1.26-4.67-2.67-4.01-1.85,4.98-.2-3.94-2.67-2.67-.14-1.5,1.94-2.08,0-2.67-.77,2.79-8.65,1.67-8.02-1.34-1.14-4.26,1.17-5.08,2.67-6.69-.74,0-1.52-1.08,0-1.34,1.43-4.99-3.32-3.81-2.67-8.02-.41-6.72,1.54-15.81-2.67-18.72,1.5-.14,2.08,1.94,2.67,0-3.18-.14-2.94-3.7-4.01-5.35-1.3-2.01-4.29-4-4.01-6.69.78-4.33,2.81-2.5,4.01-4.01-1.98-.25-1.23-3.23-1.34-5.35,1.78-2.4,2.08-2.98,2.67-5.35.35-1.38,1.79-2.18,1.34-4.01-.13-.54-1.38-1.63-1.34-1.34-.18-1.33,1.27-1.02,1.34-1.34.26-1.31-2.65-.32-4.01-1.34-1.12-.83-1.6-3.07-2.67-4.01v-10.7c1.49-2.16,9.34-4.8,6.69-6.69,0,.74-1.08,1.52-1.34,0,1.5-.28,2.08-1.48,2.67-2.67,2.33.1,4.16-.3,5.35-1.34-.92,5.38,1.28,7.63,1.34,12.04-1.37,1.31-2.7,2.64-4.01,4.01.74,0,1.52,1.08,0,1.34,2.25,2.88-.39,5.48,0,6.69.1.29,2.42-.25,2.67,0,.42.43-.81,2.05-1.34,1.34.85,1.15,1.7,1.69,2.67,2.67.06,1.84-.63,2.94-1.34,4.01,2.5-.07,2.83,1.03,1.34,2.67,5.75-.63,1.71,3.6,4.01,4.01-.17-.74,1.3-1.52,1.34,0,.14,5.1-3.45,14.25-2.67,22.73,2.86,2.94-1.84,2.88,1.34,4.01-.24-.09,1.27-2.04,1.34,0,0,1.34,1.08,1.59,1.34,2.68,1.79,3.56.43,10.27,4.01,12.04,1.58-2.44,1.16,3.07,5.35,0,.14,1.5-1.94,2.08,0,2.67,1.14-3.92,3.37,1.74,6.69,0,.07,1.71,1.71,1.85,1.34,4.01,1.5-.14,2.08,1.94,2.67,0-.74,0-1.52-1.08,0-1.34,3.52,3.4-.91,3.4-1.34,5.35.01-.04,1.56,1.26,1.34,2.67-.07.45-2.33,1-1.34,2.68,2.38.74,5.55.69,6.69,2.67-3.87,2.96,2.05-1.68,1.34,1.34-.18,7.23-5.22,1.29-10.7,2.67-1.16,5.17,3.27,4.76,4.01,8.02-.6-1-3.26-.46-2.67,0,2.68,2.13,4.86-1.61,9.36-2.68-.29,1.68-2.08,2.73,1.34,2.68-.41,4.6,2.47,11.74,2.68,13.37.15,1.26-1.53,1.72-1.34,2.67.04.21,2.45-.18,2.68,0,.66.55-1.61,2.23-1.34,2.67,1.63.15,3.17.4,2.67,2.67,4.14-.13,7.42.61,9.36,2.67,4.54-.08,7.35,1.57,9.36,4.01,1.88-2.14,4.61-3.42,8.02-4.01.97-4.09-2.31-3.93-1.34-8.02,1.76-1.36,4.93-1.31,6.69-2.68-.97,3.65,2.66,2.69,2.67,5.35,8.2,1.73,17.29-1.23,25.41,0,7.48,1.14,12.09,6.53,18.72,6.69,1.14-2.02,3.27.38,4.01,0,.78-.4-.08-4.11,2.68-2.67,2.72.4,3.56,2.68,5.35,4.01,2.02-4.04,5.87,1.11,9.36,0,.65,1.58,1.43,3.03,2.67,4.01.32-3.45,2.3,1.84,5.35,0,.32,1.91,2.2,2.26,2.67,4.01v5.35c4.85-.95,5.73-5.86,13.37-4.01.29,1.04,1.12,1.55,2.67,1.34-2.25,4.31.62,3.58,1.34,2.67,1.36-1.7,3.02,5.27,4.01,4.01,1.71-3.47,6.37-.6,6.69-2.67-.74,0-1.52-1.08,0-1.34,5.3-.39,8.17,1.64,10.7,4.01-1.62.28-.82,1.48,0,2.67-3.77-1.15-1.15,2.46-1.34,2.67-.81.95-4.54,1.34-5.35,2.67-.46.75,1.25,2.09,1.34,2.67-.02-.11-2.1,1.17,0,1.34.68-1.84,2.89.21,5.35,0,.07,0-.07-1.26,0-1.34.89-1.09,5.47.83,6.69,0,1.66,3.63,5.16,3.33,2.68,8.02,2.92,1.54,8.65.27,9.36,4.01-2.38.65.58,1.43,1.34,2.67-1,.08-1.34.2-1.34,1.34,0,.86,1.34,1.52,1.34,1.34.05,2.31-1.62,3.42,0,4.01.88-4.01,2.86,1.28,5.35,0,.21,1.57-.23,3.8,1.34,4.01.3-1.04.04-2.64,1.34-2.67.63,5.75-3.6,1.71-4.01,4.01-.06,2.08-9.49-2.89-8.02,4.01,3.78,1.1,3.46-1.89,6.69-1.34-1.17,5.18,5.84,2.18,4.01,8.02,4.12-.94,2.57-.94,6.69,0,2.25,5.78,4.14,11.91,5.35,18.72-.02,1.77-2.35,1.22-2.67,2.67,1.92.14.05.91,0,1.34-.36,2.98.27,9.16,0,13.37,1.52,2.94,4.47,4.44,5.35,8.02.21,1.57-.23,3.8,1.34,4.01.14,1.5-1.94,2.08,0,2.67.25-1.98,3.23-1.23,5.35-1.34-3.31,3.19,3.47,2.2,1.34,8.02-1.05,2.96-4.68,3.35-6.69,5.35-2,1.01.35,3.44,0,4.01-.64,1.05-3.16,1.58-4.01,2.67.31-.4,1.78.47,1.34,1.34-.34.66-3.2-.25-2.67,1.34,2.18-.6,2.18,7.29,0,6.69-.52-2.05-1.61-.2,0,1.34-2.47-.61-3.98.97-5.35,1.34-2.55.69-5.3.36-5.35,1.34-.17,3.23-7.3,2.66-9.36,2.67-.67,4.21,2.91,5.23,0,8.02,4.61.35,5.68,1.53,9.36,1.34.85-.05,1.48-1.35,1.34-1.34,4.04-.27,7.93-1.52,10.7,0-.86-2.91,2.89-3.36,5.35-4.01,3.04-.81,8.4-.67,9.36,0-.98-5.86,2.66,1.08,2.67-2.67-3.82-.7,2.16-1.98,2.67-2.67-2.59-5.82,5.83-7.4,2.67-9.36-.75,1.93-2.09,3.26-4.01,4.01,1.93-2.52,2.99-5.93,8.02-5.35,1.71.07,1.85,1.71,4.01,1.34,2.56,2.49-1.98,3.84,1.34,4.01,2.52.13-.77,2.34,1.34,2.67,1.21-2.07,4.92-.7,5.35,0,1.14,4.26-1.17,5.08-2.67,6.69,1.04.3,1.55,1.12,1.34,2.67-4.58-2.66-.65.46-1.34,1.34-1.79,2.28-6.67,5.19-9.36,8.02,2.28.55-.28,1.73,0,4.01-4.3-3.04-.56,1.39-2.67,4.01-.7.86-3.81-.08-4.01,1.34.14,1.5-1.94,2.08,0,2.67.28-1.5,1.48-2.08,2.67-2.67-1.55,3.35-5.33,4.48-5.35,9.36,5.62,0,11.18-.04,12.03-1.34-2.28-.55.28-1.72,0-4.01,3.96,2.36.28-.62,2.67-4.01.66-.93,1.62,1.39,1.34,1.34,1.31.26.32-2.65,1.34-4.01,2.84-3.82,11.31-5.14,14.71,1.34-1.12,3.33-1.75,7.16-1.34,12.04-4.09-3.56-2.55,4.84-5.35,1.34-.69-.86-2.57,5.58-4.01,4.01-.14-1.5,1.94-2.08,0-2.67-.7,1.98-1.98,3.37-2.67,5.35-1.69-.61-.75,2.26-1.34,2.67-1.06.75-2.42-2.42-2.67,0,4.01.88-1.28,2.86,0,5.35,4.2-.7,7.46-2.35,10.7-4.01,1.5-.14,2.08,1.94,2.67,0-4.13-3.27,3.84,1.47,2.67-1.34-.74,0-1.52-1.08,0-1.34,1.71-.07,1.85-1.71,4.01-1.34.32-2.51,2.2.76,2.67-1.34-.74,0-1.52-1.08,0-1.34,1.7-1.86,6.55-.58,6.69-4.01-1.15-.82-3.26-1.54-4.01-2.67-.64-.96,1.7-1.95,1.34-2.67-.33-.65-3.21.25-2.67-1.34,1.37-1.31,2.7-2.64,4.01-4.01-1.79-.92.66-3.57-1.34-6.69,1.5-.14,2.08,1.94,2.67,0,2.51-.32-.76-2.2,1.34-2.67,3.52,3.48,1.05-2.16,5.35-1.34,1.81.42,2.55,1.9,5.35,1.34-.29,1.68-2.08,2.73,1.34,2.67,2.96,1.93-1.68,3.26,1.34,4.01-.06-.74,1.15-1.53,1.34,0,.4,3.27-.49,15.27,1.34,14.71,2.11-1.55,2.86-2.54,4.01-5.35,1.06-2.59-.76-7.35,2.67-8.02,10.89,0,21.46.17,30.76,1.34,3.49.44,7.59,3.38,10.7,1.34,1.69-3.32-1.93-4.27-2.67-5.35-1.35-1.98-2.18-3.74-4.01-5.35.41,2.72-3.86-.27-4.01-1.34-1.93-.75-3.26-2.09-4.01-4.01,3.61-3.97,6.5-8.65,9.36-13.37,1.34,0,1.59,1.08,2.67,1.34-1.15-6.2,2.1-1.4,2.67-4.01-3.06-3.1,4.17.45,6.69,0-.41,4.18,3.86-3.4,4.01,1.34-3.04,1.86,1.11-.17,1.34,0,.49.36.92,3.5,1.34,4.01.84,1.05.68-3.4,1.34-2.67,1.16,1.27,1.19,3.04,2.67,4.01-.96-.63,2.7-.35,4.01,0,.11.03-.09,1.23,0,1.34,1.6,1.95,8.31-1.28,8.02-1.34.23.05.08,2.17,1.34,1.34.45-4.76,7.65-3.52,10.7-5.35,4.22.35,5.05,4.5,8.02,6.69.88.65,3.09-.6,4.01,0,.68.44-.27,3.11,1.34,2.67,3.93-3.13,1.43-10.63,2.67-13.37-3.92-.09-4.97-3.06-6.69-5.35,1.5-.14,2.08,1.94,2.67,0-3.17-2.14-4.82-2.46-8.02-6.69.21.27,1.94-1.23,0-1.34-2.56-.14.42-1.86,0-2.67-.52-1.02-2.24.33-2.67-1.34-2.08-8.02,0-16.43-2.67-26.74,6.22-.38-2.08-2.42,2.67-2.67,2.7-.14,1.02-4.81,4.01-4.01,3.24,2.1,5.71,4.99,12.04,4.01,2.3-.53,3.43,1.98,4.01,0-2.37-1.77-.04-5.92,0-9.36.02-1.99-2.27-4.39,0-5.35-2.5.07-2.83-1.03-1.34-2.67-5.86.98,1.08-2.66-2.67-2.67-3.27,4.13,1.47-3.84-1.34-2.67-.46,1.43-1.21,1.02-1.34-1.34-.04-.83-1.35-1.51-1.34-1.34-.05-.88,1.58-2.2,1.34-2.67-.4-.78-4.11.08-2.67-2.67-.54-2.69,1.99-2.56,2.67-4.01-.06.12-2.11-1.32-1.34-2.67.38-.67,3.16.26,2.67-1.34-2.57-1.38.55-8.26,2.67-9.36-1.5-1.18-.73-5.37,0-8.02.21-.77,2.45.22,2.67-1.34.02-.14-2.4-1.24-1.34-2.67,1.91-.32,2.26-2.2,4.01-2.67,3.05-1.84,5.03,3.45,5.35,0-2.9.23-.61-4.74-1.34-6.69,5,3.23-.99-2.09,4.01-2.67,1.21-3.47-1.18-7.15-1.34-10.7-.18-4.24,2.01-6.4,0-6.69-.37,3.15-4.98-.12-5.35-1.34,1.61.14.82-1.94,0,0-4.65-2.73,3.88-7,0-9.36-2.58.23-6.35.27-9.36,1.34-.54.19-2,2.32-2.67,2.67-.17.09-1.74,1.44-1.34,1.34-1.11.29-2.57-2.07-2.67,0-.08,1.52-.54.65-1.34,1.34-4.4,3.81-14.86-.33-17.38-1.34-.33-.13-.98.02-1.34,0-1.39-.07-.78-1.12-1.34-1.34-1.92-.76-5.31.71-5.35-2.67,1.5-.14,2.08,1.94,2.67,0-1.58-.65-3.03-1.43-4.01-2.67-4.13-9.36,1.13-18.29,2.67-28.08,1.02-6.48.89-12.88,1.34-20.06,1.58-.65,3.03-1.43,4.01-2.67-2.38-.65.58-1.43,1.34-2.67-1.04-.3-1.55-1.12-1.34-2.68,1.04-.29,1.56-1.12,1.34-2.67,3.9.79.98-1.98,1.34-2.67.48-.93,2.15.14,2.67-1.34-.21.6-1.34-.72-1.34-1.34,0-2.41,2.71-3.45,2.67-5.35-1.57-2-5.56-1.57-5.35-5.35,1.09-.77,1.22,1.3,1.34,1.34,1.7.56.12-1.14,0-1.34-1.45-2.42,4.12-1.82,5.35-2.68.95-.66,2.33-3.64,4.01-5.35,1.98-2,4.8-3.24,5.35-4.01,1.36-1.9-.06-3.7,1.34-5.35,3.45,1.45,1.58-2.84,1.34-2.67,1.05-.73,2.9,2.55,4.01,0,1.73-1.89,1.78-5.42,2.67-6.69.78-1.1,2.26.47,2.67-1.34.01-.05-2.4-1.31-1.34-2.67,1.86-.64,5.15-3.96,5.35-4.01,1.11-.29,2.56,2.07,2.67,0,.17-3.32,2.82-2.49,4.01-1.34-.07-2.3,1.03-3.43,2.67-4.01-3.93-8.96,6.15-12.74,4.01-24.07,1.91-.32,2.26-2.2,4.01-2.68,1.22-2.03,3.17.39,4.01,0,.34-.16-.27-2.35,0-2.67.55-.66,2.23,1.61,2.67,1.34,1.03-.63-.53-2.57,1.34-2.67,1.48-.08.67-1,1.34-1.34,1.1-.55,1.81,1.58,2.67,1.34,1.92-.55-.03-3.31,0-4.01,0-.06,1.26.06,1.34,0,1.09-.89-.83-5.47,0-6.69-3.33-.15-4.14-2.5-6.69,0-.7.56-3.85,1.88-4.01,2.68-.13.66,1.18,1.92,1.34,1.34,1.02-3.73,1.71,2.12-1.34,1.34-2.11-.12-1.05-3.41-4.01-2.67,3.58-3.44-3.58-1.91,0-5.35-4.85,1.28-1.36-5.77-4.01-6.69,5.78-.01,5.28-6.31,9.36-8.02.14,1.5-1.94,2.08,0,2.67.7-1.98,1.98-3.37,2.67-5.35,3.26,2.22.87-.4,2.67-1.34,3.13-1.62,2.82.86,4.01-1.34-1.04-.29-1.55-1.12-1.34-2.67,3.14-2.23-.49.12-2.67,0-1.12-1.55-1.76-3.58-1.34-6.69,3.52,3.48,1.05-2.16,5.35-1.34.22-6.02,12.7-9.36,9.36-12.03-.89-.71,1.37-1.6,1.34-1.34.24-1.77-.58-4.52,1.34-6.69-1.79-.88-2.49-2.86-2.67-5.35-2.97-2.97-7.36-4.36-8.02-8.02,1.07-2.94,2.68-5.34,6.69-5.35.45,4.73.08,6.89,1.34,8.02,0-.74,1.08-1.52,1.34,0,1.84.06,2.94-.63,4.01-1.34.82-.08,1.58-.2,1.34-1.34-1.38-.33-.12-4.39,0-6.69.06-1.15,1.28-1.1,1.34-1.34.78-3.58-.71-8.68,2.67-9.36h5.35c-1.35,5.13-1.02,2.05,1.34,4.01.61.51-1.51,2.24-1.34,2.67.13.31,2.38-.25,2.67,0,.66.55-1.61,2.23-1.34,2.67,3.45,1.46,6.43,3.38,8.02,6.69.23,2-.48,4.94,1.34,5.35.25-1.98,3.23-1.23,5.35-1.34-1-13.48.98-23.98,9.36-28.08.55,2.28,1.72-.28,4.01,0,.43,2.93,1.32,6.05,2.68,2.67-.1.26-2.03-1.29,0-1.34,3.61,4.28-1.03,8.87,0,14.71,10,1.53,12.05-4.89,21.4-4.01,2.72.4,3.56,2.68,5.35,4.01.25-1.98,3.23-1.23,5.35-1.34,1.95-.22,1.49-1.47,2.67,0,.78.98,1.35-1.35,1.34-1.34-1.75,1.33-.1-2.99,2.67-2.67.52,1.91,1.6,2.26,0,4.01,5.86-.97-1.08,2.66,2.67,2.67.32-2.05,2.2-.19,2.67,1.34,2.54-2.07,10.41-7.77,8.02-9.36-1.7,2.17-6.78,9.35-8.02,6.69,4.51-2.33,5.36-6.27,9.36-8.02,2.68-1.17,5.28.03,5.35-1.34.16-3.12,6.49-2.93,6.69-1.34-.62-4.19,3.36-3.77,5.35-5.35,5.67,1.19,9.47-3.51,13.37,0-.53-5.71,7.03-2.82,6.69-2.67.33-.14-.26-2.36,0-2.67.56-.68,2.24,1.66,2.67,1.34,1.11-.82-.4-2.14,1.34-2.67,4.98-1.54,11.1-.89,17.38-4.01,4.08.23,1.38,5.96,4.01,2.68.67-.83,3.85,3.94,4.01,4.01-.68-.31,2.96-.9,2.67-1.34-2.14-.94,1.12-7.69,4.01-8.02,4.44,2.24,9.32,9.67,6.69,14.71,6.55-2,.95,6.5,4.01,2.67.72-.9,1.59,1.38,1.34,1.34,5.67.9,7.2-2.5,10.7,0-.42-5.85,6.18-3.72,6.69-5.35-3.87-2.03,10.31-1.36,12.03-2.67.3,1.04.04,2.64,1.34,2.67,3.15,3.74-2.09-2.53,1.34-1.34.72.25,1.15,3.04,2.67,2.67,2.51.32-.76,2.2,1.34,2.67,1.59-2.61,3.09.24,5.35,0,3.08-.33,5.35-2.15,9.36-2.67,3.34-.44,8.14.33,12.03,0,0,2.8,7.28,5.03,4.01,6.69-.32-1.45-2.2-3.21-2.67-1.34,3.24,2.11,5.91,4.78,8.02,8.02,1.5-.14,2.08,1.94,2.67,0-.74,0-1.52-1.08,0-1.34.65,1.58,1.43,3.03,2.67,4.01-.07-1.34,2.54-.97,4.01,0,2.55,1.68,4.73,7.67,9.36,6.69-2.39,4.56.07.69,1.34,1.34.66.34-.25,3.2,1.34,2.67.64-2.37,1.44.56,2.67,1.34-.35-.22.41-1.81,1.34-1.34.93.48-.15,2.16,1.34,2.67-.31-.11,1.47-1.56,2.67-1.34.09.02-.08,1.24,0,1.34.47.58,4.49,1.31,5.35,1.34,3.15.11,6.61-2.62,10.7-1.34-.79,3.9,1.98.98,2.67,1.34.66.34-.25,3.2,1.34,2.67.43-2.21,2.82-.76,4.01,0,4.06,2.59,16.29,3.51,20.06,4.01,8.38,1.1,14.35,2.65,20.06,4.01.14,1.5-1.94,2.08,0,2.67,2.73-2.74,6.1,2.23,10.7,2.67,2.37.23,3.12-1.05,5.35-1.34,2.83-.37,6.16.04,8.02,0,.33,0-.11-1.63,1.34-1.34.37.07-.08,2.04,1.34,1.34.85-.42.33-4.85,2.67-4.01.14,1.5-1.94,2.08,0,2.67,1.34-1.78,1.27-4.98,4.01-5.35.14,1.5-1.94,2.08,0,2.67,1.53-5.15,6.93-6.44,13.37-6.69.7,1.98,1.98,3.37,2.67,5.35-1.32,4.47-1.96,9.63-5.35,12.03,2.08.35.93,2.93,0,4.01,2.7-1,1.73,1.86,1.34,1.34.85,1.15,1.7,1.69,2.67,2.67-1.19,5.67,3.51,9.47,0,13.37,3.92.09,4.97,3.06,6.69,5.35-.06,1.84.63,2.94,1.34,4.01.14,1.5-1.94,2.08,0,2.67-.65-1.77,6.13-.08,6.69,1.34,3.54-1.57,7.87,2.56,8.02,0-2.65-1.88,5.19-4.52,6.69-6.69,2.48-1.98,2-6.91,6.69-6.69,5.74.9,12.76,3.34,20.06,4.01,3,.27,6.76-.48,9.36,0,.56.11-.04,2.48,1.34,2.68.14.02,1.24-2.4,2.67-1.34.41,1.44,1.83,1.64,2.67,2.67.37.45,2.26-.42,2.67,0,.67.67-.26,2.93,1.34,2.67,1.63-2.4,8.21,1.5,13.37,0,3.52,1.38,4.5,5.3,8.02,6.69.34-2.78,5.87-.36,6.69-2.67.14,1.5-1.94,2.08,0,2.67,1.34-1.78,1.27-4.98,4.01-5.35-3.55,3.53,3.96,2.83,4.01,6.69-1.5.14-2.08-1.94-2.67,0,6.45.23,3.29,10.08,4.01,16.05,1.72,1.84,5.81,1.32,9.36,1.34,1.95-2.5.05-8.86,2.68-10.7,1.84.06,2.94-.63,4.01-1.34,4.28,3.74,2.62,13.43,6.69,17.38.32-3.45,2.3,1.84,5.35,0,2.59-3.2,2.15-9.44,6.69-10.7.07,1.41,1.71,1.05,1.34-1.34h5.35c2.88,2.6,8.98,10.45,4.01,2.67,1.92,1.34,4.12,2.84,5.35,4.01.63.6,1.53,4.24,2.68,4.01-.05,0,.43-2.33,1.34-1.34.62.68-1.5,2.1-1.34,2.67.24.85,7.77,7.23,6.69,4.01-1.19-.39-5.85-3.62-2.67-4.01,1.13,3.37,5.52,5.13,6.69,6.69.94,1.25.34,2.94,1.34,4.01,3.64,3.9,8.58,6.61,12.04,10.7-.66,4.22,2.41,4.72,1.34,9.36.16,1.78-2.58,1.21-2.68,2.67,0,.04,2.49,1.41,1.34,2.67-.75.82-2.66-2.47-2.68,0,2.29,2.55-.14,2.54,1.34,4.01.89.89-.68,4.25,0,5.35-5.75-.63-1.71,3.6-4.01,4.01-2.11-.12-1.05-3.41-4.01-2.67-1.58.65-3.03,1.43-4.01,2.67,1.12.46,1.05.5,0,1.34-1.28,1.02,7.24,5.48,2.68,5.35-.32-1.45-2.2-3.21-2.68-1.34,1.78,1.34,4.04,2.21,5.35,4.01,2.91,6.41-.82,11.26-1.34,16.05-.42,3.9,2.64,7.28,0,10.7,1.04.3,2.64.04,2.67,1.34-.74,0-1.52,1.08,0,1.34,0-.74,1.08-1.52,1.34,0,.46,2.4,2.94,4.02,2.68,5.35.01-.06-2.13,1.23,0,1.34,3.12.16,2.93,6.49,1.34,6.69,6.1.23,3.74,10.56,5.35,10.7,2.42-4.42,1.96,4.97,1.34,4.01.39.61,3.43.67,4.01,1.34.39.44,1.25,3.72,1.34,4.01.71,2.33-.33,5.38,0,8.02s2.41,8.32,2.67,9.36c.47,1.87.81,2.68,1.34,4.01.13.33-.02.98,0,1.34.06,1.24,1.24.98,1.34,1.34,1.8,6.59,1.22,11.82,2.67,16.05,3.24,2.11,5.91,4.78,8.02,8.02-2.71,3.08-5.31,6.28-8.02,9.36-12.69-1.55-18.06,4.22-30.76,2.67-1.33-6.38.11-1.45-4.01-4.01-.02,1.77-2.34,1.22-2.67,2.67,2.05.32.2,2.2-1.34,2.67-2.8,1.37-.93,4.08-4.01,4.01-.85-.02-3.72-5.16-4.01-5.35,1.5-.14,2.08,1.94,2.68,0-2.19-2.94-3.11.98-5.35,2.67-1.42,1.08-7.7,2.67-4.01,4.01,0-.74,1.08-1.52,1.34,0-1.68.55-2.73,1.73-2.67,4.01-1.91-.52-2.26-1.61-4.01,0-1.47,7-9.87,7.06-8.02,17.38-.74,2.73-4.02,2.62-1.34,5.35,7.39-.63,17.94,1.89,21.4-2.67.14,1.5-1.94,2.08,0,2.67.65-1.58,1.43-3.03,2.68-4.01,1.04-.52,6.17,2.25,6.69,2.67.45.37-.42,2.26,0,2.67,1.02.99,3.38-.09,4.01,1.34.37.84-1.69,2.29-1.34,2.67.63.68,3.3.8,4.01,1.34,2.35,1.8,2.62,5.13,4.01,6.69,1.06,1.18,2.97,1.4,4.01,2.67-.34-.41-1.78.48-1.34,1.34.5.97,2.18-.21,2.68,1.34.45,1.4-2.18,2.16,0,2.67,1.55-3.82,1.55,2.16,0,2.67,1.78,1.34,4.98,1.26,5.35,4.01-1.5.14-2.08-1.94-2.67,0,5.61,1.07,6.21,7.16,12.03,8.02-2.4,4.56.07.68,1.34,1.34.66.34-.25,3.2,1.34,2.67,0-.74,1.08-1.52,1.34,0h10.7c-.79,3.9,1.98.98,2.67,1.34.66.34-.25,3.2,1.34,2.67,1.18-3.62,4.8,1.06,5.35,1.34,1.85.95,3.63.3,5.35,1.34.37.22.69.92,1.34,1.34,2.51,1.6,4.38,3.06,5.35,5.35-1.5.14-2.08-1.94-2.68,0,1.78,1.34,4.98,1.27,5.35,4.01-1.21,2.74,1.2,4.8,1.34,6.69.17,2.33-1.71,3.41,0,4.01,2.51.32-.76,2.2,1.34,2.67,1.22-2.83,5.37,2.52,9.36,1.34.98,3.92,4.06,5.75,6.69,8.02.18,3.3.2,6.44-1.34,8.02,1.78,1.34,4.98,1.27,5.35,4.01.46,2.4,2.94,4.02,2.67,5.35-.06.29-2.12.01-1.34,1.34.64,1.09,2.31-.46,2.67,1.34,1.41,6.82-2.29,17.15,4.01,21.4-1.5.14-2.08-1.94-2.67,0,1.78,1.34,4.98,1.27,5.35,4.01-3.4,2.42,1.1-1.16,1.34,1.34.17,1.83-.72,2.95-1.34,4.01,1.28.23,2.33.12,2.67,1.34,1.06,3.76.09,10.61,2.68,13.37-5.69,5.57-.71,11.49,0,18.72.52,5.26,1.09,7.89,1.34,10.7.51,5.75-.77,9.14-1.34,12.03-.48,2.48.46,4.96-1.34,6.69,5.75-.63,1.71,3.6,4.01,4.01,0-.74,1.08-1.52,1.34,0,.22,1.95,1.47,1.49,0,2.67-.97.78,1.37,1.39,1.34,1.34-.27-.46.62-1.4,1.34,0,.11.21,1.44,1.72,1.34,1.34.26.99-1.68,2.1-1.34,2.67.94,1.59,6.15.14,4.01,4.01-1.75-.35-1.75,2.31-2.68,2.67-1.29.52-1.09-1.29-1.34-1.34-2.72-.54,2.49,4.66-4.01,2.67v8.02c-.55.34-2.23-.45-2.67,0-.57.57,1.07,1.94,1.34,1.34-.34.77-1.3,2.02-1.34,2.67-.06,1.09-1.31,1.16-1.34,1.34-.7,3.72.53,9.92,0,14.71,1.71.07,1.85,1.71,4.01,1.34-2.06,4.35-.41.99,1.34,1.34-.58-.12,1.35,1.34,1.34,1.34,1.22.83,1.64,1.72,2.67,2.67,1.06-3.08,6.29.69,6.69,2.67v5.35c3.91,1.21.39,4.92,2.67,5.35,3.55-3.38-.18,7.5,4.01,2.67v4.01c-2.39-.38-2.74,1.26-1.34,1.34-.66,2.59-2.23.16-2.68,0-3.73-1.36-.9,0-1.34-2.67-.07-.42-2.08.65-1.34,1.34-.14-.55-2.62-2.37-2.68-2.68-.21-1.27,1.27-2.9,1.34-2.67-.41-1.35-3.98-1.95-1.34-2.67.96-3.63-6.31.96-5.35-2.67-2.52,1-.93,3.99-4.01,1.34,3.1,1.96-2.61,4.24,2.68,4.01-.93,6.73,2.27,9.32,1.34,16.05-3.15.42-.79,6.34-5.35,5.35,2.27,5.06-2.68,12.96-8.02,14.71.26,1.52,1.34.74,1.34,0,3.13,1.52-3.43,4.47-5.35,5.35.25,1.52,1.34.74,1.34,0,2.59.89-.83,1.8-1.34,2.67-.16.27-.3,3.71-1.34,2.67-.05-.05-.05-1.27,0-1.34.01-.01-2.31.56-1.34,1.34.05.04,1.33.02,1.34,0-.05.14-1.25,2.64-1.34,2.67-.45.21-2.4-.37-2.67,0-.61.82,1.03,1.7,1.34,1.34-2.28,2.67-2.37,2.91-5.35,4.01.25,1.52,1.34.74,1.34,0,2.83.41-1.4,4.65-4.01,4.01,3.16,3.04-1.67,4-4.01,5.35.25,1.52,1.34.74,1.34,0,1.87.47.11,2.35-1.34,2.67.21,1.79-2.1,7.37-2.68,4.01-1.52.26-.74,1.34,0,1.34-.25,1.08-1.34,1.33-1.34,2.67-3.1-.43-5.13.22-6.69,1.34,2.09,4.78-1.68,8.49,5.35,9.36-2.31.81.1,6.34-2.68,6.69.59,3.1,5.9,3.58,2.68,6.69,1.96-1.92,4.24-1.03,4.01,2.67,3.1-3.23,3.58,2.09,6.69,2.67-.82,1.19-1.61,2.39,0,2.67-2.55,5.92-3.17,13.77-2.68,22.73-3.06,1.46-11.06,4.89-14.71,1.34-1.59-.52-.68,2.34-1.34,2.67-.81.42-2.54-2.56-2.67,0-.11,2.13-1.41-.01-1.34,0-.71-.13-1.9,3.44-2.67,2.67-1.84-1.84-.57-.1-4.01,1.34,2.36,2.24-1.19,4.48,0,9.36-1.19.59-2.39,1.17-2.67,2.67h-8.02c-1.19.82-2.39,1.61-2.68,0-2.02.04-.11,1.6,0,1.34-1.11,2.65-3.49.63-4.01,4.01-1.94-.59.14-1.17,0-2.67-3.47.81-2.27,3.96-4.01,5.35-1.11.89-1.27-1.34-1.34-1.34-2.97-.07-2.79,4.29-5.35,4.01.47,1.87,2.35.11,2.68-1.34,3.38.66-5.15,6.61-6.69,8.02-3.08,2.82-6.65,5.99-9.36,8.02.75,3.87,2.09-2.05,4.01-1.34,1.6-1.87.52-.11,0,1.34-1.76.47-2.1,2.35-4.01,2.67-1.41,1.39,1.85,7.84,0,9.36-1.69,1.38-.56,2.29-1.34,6.69-.02.11-1.26-.11-1.34,0-.78,1.12.43,4.02,0,5.35-.12.38-1.17.17-1.34,1.34-.35,2.51.58,6,0,8.02-.06.21-2.63-.2-2.67,0-.18.88,1.69,2.24,1.34,4.01.17-.87-1.77,2.98-1.34,2.67-.22.15-3.73.28-2.68,1.34,1.8,1.8-1.52,1.56-4.01,4.01.47,1.87,2.35.11,2.68-1.34,3.18.4-1.49,3.62-2.68,4.01,2.81,3.26-2.12,6.88,2.68,6.69.44,4.9-1.48,7.43-2.68,10.7-10.31,1.97-22.69.12-29.42,5.35-2.48,1.93-3.16,4.22-5.35,6.69,1.54,2.92.27,8.65,4.01,9.36-.59,1.94-1.18-.14-2.68,0,.66,3.8,6.99,1.92,5.35,8.02-1.14.25-1.26-.52-1.34-1.34-2.05.07-.08,1.57,0,1.34-1.32,3.75-4.17,1.55-5.35,5.35,3.68-3.27,2.82,2-1.34,1.34,1.49,1.65,1.17,2.75-1.34,2.67,2.96,1.44-1.18,3.7-1.34,6.69-.04.74-3.42.59-2.68,1.34,1.92,1.92-.12.78-2.68,2.67.25,1.52,1.34.74,1.34,0,3.51.7-1.22,1.73-1.34,4.01-.1,1.93-2.55,2.89-2.68,5.35-.13,2.52-1.87-.89-2.67,0-.67.74.99,1.7,1.34,1.34-5.22,5.44-11.5,6.2-14.71,14.71-6.51,1.52-15.39.65-17.38,6.69-3.87-.75,2.05-2.09,1.34-4.01-4.42,2.26-6.17,7.2-9.36,10.7-3.87-.75,2.05-2.09,1.34-4.01-3.04.97-4,4.02-5.35,6.69-5.49-1.41-8.76,6.29-12.03,2.67-2.02.04-.11,1.61,0,1.34-1.11,2.65-3.49.63-4.01,4.01-1.94-.59.14-1.17,0-2.67-1.65.58-2.75,1.71-2.67,4.01-15.68-.52-24.36,5.95-30.76,14.71-4.6-.59-7.49.53-10.7,1.34,1.49,1.65,1.16,2.75-1.34,2.67,1.55,1.98,1.55,3.37,0,5.35-3.31.17-2.27-1.64,0-1.34-3.34-3.35-9.96-3.41-8.02-12.03-8.07,3.12-16.95,2.92-29.42,4.01-.25-1.14.52-1.26,1.34-1.34.26-1.6-2.01-.67-2.67-1.34-1.11-1.12-.1-4.35-2.67-4.01-10.3.4-11.88,9.52-18.72,13.37-.71-.57-5.05-.66-5.35-1.34.22.5,1.54-4.22,0-2.67-1.38,1.38-.88.6-1.34-1.34-1.26-.84-1.11,1.29-1.34,1.34-1.47.29-.98-1.32-1.34-1.34-2.23-.09-7.04,1.21-8.02-1.34-.43.77-3.85,1.96-4.01,2.67-.17.76.99,1.89,1.34,1.34-1.45,2.28-3.39,2.23-4.01,5.35-1.09.87-1.32-1.34-1.34-1.34-1.3.1-1.99,4.22-2.67,1.34-1.39.12.14,4.71,0,9.36,0,.03-1.57.2-1.34,1.34,0-.02,2.14.35,1.34,1.34-1.33.01-2.67.01-4.01.01l-.08.1ZM1055.04,326.28c-6.04,6.04,2.45-.86,2.67-2.67-1.73.05-1.78,1.78-2.67,2.67ZM873.19,965.44c-6.04,6.04,2.45-.86,2.67-2.67-1.73.05-1.78,1.78-2.67,2.67ZM259.43,687.31c-5.52-2.82.51,1.76,1.34,4.01,5.52,2.82-.51-1.76-1.34-4.01ZM1033.65,343.66c2.63,1.74,14.44.4,12.03-2.67h-12.03c0-.74-1.08-1.52-1.34,0,1.67-.65.77,2.3,1.34,2.67Z"/>
      <path class="cls-1" d="M698.02,962.77c-.38,2.36,6.3,4.14,2.68,5.35-.59-1.19-1.18-2.39-2.68-2.67-.82-1.19-1.61-2.39,0-2.67h0Z"/>
      <path class="cls-1" d="M49.49,127.04c-2.89,3.23-5.21-1.77-5.35-2.67-.48-3.14,3.82-3.06,4.01-6.69.02-.45,2-3.35,2.67-2.67,2.63,2.64-.51-1.83,4.01-1.34,1.88,4.42-2.7,4.35-4.01,6.69,0,0-1.38,3.56-1.34,2.67-.07,1.39,2.26,2.11,0,2.67-3.07.77-2.45.93,0,1.34h.01Z"/>
      <path class="cls-1" d="M8.04,121.69c1.52.25.74,1.34,0,1.34.02,3.14,3.65-.49,2.67-2.67,3.55-1.33.04,6.87,0,5.35.03,1.15,1.79,2.08,1.34,4.01-.06.26-2.5-.26-2.68,0-1.53,2.29.39,6.8-1.34,8.02-3.69.57-1.26-4.99-4.01-5.35-.72-1.44,2.58-.86,2.67-1.34.28-1.5-2.29-4.2-1.34-6.69.35-.91,3.04-.93,2.67-2.67h.02Z"/>
      <path class="cls-1" d="M58.85,280.81c.82-1.19,1.62-2.39,0-2.67.83-2.3,6.85-.47,8.02,0,.15.06-.11,1.2,0,1.34.37.45,2.24-.41,2.68,0,.7.65-.87,1.63-1.34,1.34-.05-.03.56,2.31,1.34,1.34.04-.05.01-1.33,0-1.34.14.06,2.64,1.25,2.67,1.34.23.52-.4,2.31,0,2.67,1,.91,3.18.29,4.01,1.34.67.85-.42,2.94,1.34,2.67.82-1.94,1.62.14,0,0,.58,1.65,1.71,2.75,4.01,2.67-1.36,1.76-1.31,4.93-2.67,6.69h-5.35c1.77-5.29-5.29.43-1.34-2.67.33-2.54-2.92-1.56-4.01-2.67-.42-.42.45-2.3,0-2.67-1-.82-2.53-1-2.67-2.67-1.35-1.74-.64-.42,0,0,5.56,3.6-1.61-4.01-6.68-6.69v-.02Z"/>
      <path class="cls-1" d="M377.1,279.47c9.22.14,20.12-1.4,24.07,4.01-1.74,3.32,3.92,5.55,0,6.69.76,1.25,3.72,2.03,1.34,2.67.83,5.06,5.59-1.45,5.35,5.35,2.43-2.46,4.21,1.21,6.69,1.34,1.55.08,1.93,1.71,2.67,2.67,1.05,1.36,2.87,1.48,4.01,2.67.87.91-1.29,1.52-1.34,1.34,1.01,3.68,6.39,7.33,9.36,8.02-1.18,6.44.72,21.45-5.35,26.74v14.71c-1.18,2.9-3.86-1.53-4.01,1.34-.14,2.64-6.11.8-12.04,1.34.49-2.27-1.04-2.52-2.67-2.67-.43-3.1.21-5.13,1.34-6.69.2-1.78-4.5-4.98-1.34-5.35-.98-1.25-2.43-2.02-4.01-2.67-.84-1.25,1.3-1.12,1.34-1.34.3-1.67-2.11-.59-2.67-1.34-.68-.9,1.16-1.63,1.34-1.34-.85-1.43-2.49-2.05-4.01-4.01-1.03-1.27,1.31-2.74,1.34-2.67-.34-.95-2-1.79-2.67-2.67-1.25-1.62-3.56-5.37-5.35-8.02-1.85-.04-.32,1.71,0,1.34-2.36,2.72-3.11-3.31-6.69-4.01.25-1.52,1.34-.74,1.34,0,3.62-1.2-2.82-3.23-4.01-4.01-.87-1.09,1.34-1.32,1.34-1.34-.14-1.86-2.14-.29-2.67-1.34.34.66,1.33-4.33,0-2.67-1.41,1.76-.74.27-1.34-1.34.05.14-2.29-.58-1.34-1.34,3.57-2.86-3.19.12,0-2.67.04-1.85-1.71-.32-1.34,0-4.22-3.69-4.35-12.47-2.67-18.72,3.6.92,2.59-2.76,4.01-4.01h-.02Z"/>
      <path class="cls-1" d="M425.24,311.57c-1.17-2.33-4.48-5.15,0-2.67,1.17,2.33,4.47,5.15,0,2.67Z"/>
      <path class="cls-1" d="M155.13,383.77c-5.43.53-9.32-.49-9.36-5.35,4.3.82,1.83-4.81,5.35-1.34-.14-3.43-4.98-2.15-6.69-4.01.07-8.02,1.7-9.78,4.01-17.38-1.23-2.33-4.18-2.95-8.02-2.67,2.45-5.35-1.9-9.67,1.34-14.71-4.31-.29-5.66,2.36-10.7,1.34v-6.69c-.33-1.45-2.66-.91-2.67-2.67-4.23,1.66-.25,3.89-4.01,6.69-4.64-1.07-5.14,1.99-9.36,1.34.24-5.13-1.1-.48-4.01-1.34,1.6-1.53.52-3.39,0-1.34-1.3-.04-1.04-1.64-1.34-2.67-3.27,3.29-5.8-.99-10.7,0,1.6-1.53.52-3.39,0-1.34-2.6,0-.16-3.1,0-2.67-.22-.58-2.69-1.46-2.68-1.34-.35-2.89,1.03-5.12,1.34-9.36,1.96-3.1,4.24,2.61,4.01-2.67,5.72-1.15,11.84,1.2,18.72,1.34,2.97.06,5.79-1.95,12.03-1.34,2.92.29,4.35.82,9.36,1.34,2.12.22,2.29,1.06,4.01,1.34,2.17.35,4.52-.39,6.69,0,.11.02-.11,1.26,0,1.34,1.13.79,4.01-.45,5.35,0,.48.16,0,1.27,1.34,1.34-.2-.01,3.9,1.22,4.01,1.34-.53-.55-1.44,4.12,0,2.67,1.82-1.82.89.17,2.67,2.67,1.52-.25.74-1.34,0-1.34.47-1.87,2.35-.11,2.67,1.34,2.27-.49,2.52,1.04,2.67,2.67,1.72-1.84,5.81-1.32,9.36-1.34-1.05,4.77,5.13,4.44,6.69,6.69,1.06,1.53.73,3.47,1.34,5.35.15.46,1.27.02,1.34,1.34.07,1.33-.06,2.68,0,4.01-4.78-3.37.54,2.56-4.01,4.01-.79,4.11,1.68,10.7-1.34,10.7-1.98,0,.53,2.15,0,4.01-1.53-1.61-3.39-.52-1.34,0,.1.85-1.8,1.59-2.67,1.34-1.31-.39-.66-2.44-1.34-2.67-1.08-.37-2.61,2.02-4.01,0,1.49-1.65,1.16-2.75-1.34-2.68.73-1.94-1.56-6.91,1.34-6.69-.57-2.1-4.21-1.14-2.67-5.35-6.32.34-8.79.55-12.03,1.34,1.54,1.58,1.51,4.73,1.34,8.02-2.65,3.42,1.39,6.15-1.34,8.02.32,3.45,2.3-1.84,5.35,0,.79,4.05-1.11,6.1-2.67,8.02-1.19,1.46-4.39,4.02-6.69,4.01,2.68,2.73-.6,2.62-1.34,5.35h0Z"/>
      <path class="cls-1" d="M1032.31,340.98c.25-1.52,1.34-.74,1.34,0h12.03c2.41,3.07-9.41,4.42-12.03,2.67-.57-.37.33-3.32-1.34-2.67Z"/>
      <path class="cls-1" d="M397.16,371.74c.25,1.52,1.34.74,1.34,0,2.8,2.99.93,7.59,1.34,12.03.32,3.41,2.35,7.12,1.34,10.7-3.9-2.36-1.54,4.1-2.67,2.67-1.28-1.6-.96-.44-1.34,1.34-6.64,1.35-4.26-4.23-9.36-1.34-1.15-4.64-5.28-6.3-8.02-9.36-.97-4.09,2.31-3.93,1.34-8.02,4.27.79,4.14-2.51,6.69,0-2.68-2.66.42-6.37,1.34-9.36h9.36c.24,1.14-.52,1.26-1.34,1.34h-.02Z"/>
      <path class="cls-1" d="M197.92,386.45c3.16,1.79-4.32,9.37-9.36,9.36,1-6.06-3.67,2.04-2.67-4.01-3.78-1.11-3.46,1.89-6.69,1.34-3.58-5.98,1.95-12.76,9.36-12.04.25,1.14-.52,1.26-1.34,1.34.16,2.23,5.7-1.52,5.35,4.01.99-.4,2.28-1.8,4.01-1.34.24.07.79,4.53,1.34,1.34h0Z"/>
      <path class="cls-1" d="M65.54,498.77c2.35.32,3.05,2.3,2.67,5.35-2.79.57-3.54-.92-5.35-1.34.47-1.76,2.35-2.1,2.67-4.01h.01Z"/>
      <path class="cls-1" d="M161.82,542.9c-5.92,4.98,2.35,10.68,1.34,18.72-.77-.35-1.8,3.55-2.67,2.67-.05-.05-.05-1.27,0-1.34,0-.02-2.31.56-1.34,1.34,1.74,1.39.09.39,0,1.34-.44,4.58-.32,14.14,1.34,18.72-3.17-.89-1.73,1.93-1.34,1.34-.8,1.22-3.69,2.05-1.34,2.67-.04,1.3-1.64,1.04-2.68,1.34,1.55,1.98,1.55,3.37,0,5.35-2.89-.34-6.15-7.08-4.01-8.02-.76-1.25-3.72-2.03-1.34-2.67-.98-1.25-2.43-2.03-4.01-2.67.04-1.3,1.64-1.04,2.67-1.34-3.39-3.27,2.82-2.85,1.34-8.02-.25-1.08-1.34-1.33-1.34-2.67-4.2,1.48-3.53.63-6.69-1.34.73-5.33.73-4.03,0-9.36,1.53,1.6,3.39.52,1.34,0,.2-3.33,4.53-.39,5.35,0-.39-.82-3.33-5.15,0-5.35-.88-1.79-2.86-2.49-5.35-2.67.82-1.19,1.62-2.39,0-2.68,2.39-2.93,4.77-4.89,6.69-2.67,1.16,1.03.82-8.54,2.67-6.69,1.38,1.38,1.19.29,0,0,3.57-5.47,3.88,2.81,5.35,1.34,2.59-2.59-.05,2.16,4.01,2.67h0Z"/>
      <path class="cls-1" d="M256.76,695.33c-3.13,1.52,3.42,4.47,5.35,5.35.85,2.92-3.79,4.25,1.34,4.01.18,3.3.2,6.44-1.34,8.02-1.52-.25-.74-1.34,0-1.34-1.42-4.21-2.32,2.43-2.67,2.67-1.22.85-1.14-1.3-1.34-1.34-1.07-.2-2.16,4.44-2.67,1.34-1.98.58.53,1.71,0,4.01-1.25.98-2.02,2.43-2.67,4.01-5.21,1.55-10.45-3.69-6.69-6.69.46-1.6-2.26-.66-2.68-1.34-.98-1.58,1.37-2.42,1.34-2.67-.24-1.68-2.35-.42-2.68-1.34-.53-1.51,1.34-2.66,1.34-2.67-.55-1.74-1.8-.23-2.68-1.34-.43-.54-1.32-5.17-1.34-5.35-.18-2.56,1.89-2.88,1.34-6.69,6.39-.73,13.73-2.25,17.38,2.68,3.87,1.5-2.05,1.44-1.34-1.34v.02Z"/>
      <path class="cls-1" d="M262.1,723.41c.88-4.01,2.86,1.28,5.35,0v22.73c-1.64.58-2.75,1.71-2.67,4.01-1.65-1.49-2.75-1.16-2.67,1.34h-8.02c.48-4.73-.69-8.13,0-10.7.07-.26,2.44.23,2.67,0,.75-.75-1.1-1.69-1.34-1.34,2.1-3.09,4.05-3.33,6.69-5.35-.89-1.63-4.55.72,0-4.01,0-1.96-1.66-.19-1.34,0-3.77-2.19.27-2.96,0-6.69,1.08.25,1.33,1.34,2.67,1.34.24-1.14-.52-1.26-1.34-1.33Z"/>
      <path class="cls-1" d="M676.62,811.67c-1.94.59.14,1.17,0,2.67,1.94.59-.14,1.17,0,2.67-4.2.63-3.53-3.6-6.69-4.01-3.15-.03-3.94,2.3-8.02,1.34-.04-1.3-1.64-1.04-2.67-1.34-.21-3.33,2.1-4.14,2.67-6.69,1.2-.86,1.18,1.32,1.34,1.34,1.42.14,1.76-3.55,2.67-4.01,1.09-.55,3.1.98,2.68,1.34,1.32-1.09.58-3.74,2.67-5.35,3.54-.56,2.89,5.71,4.01,9.36.28.92,4.2,5.67,1.33,2.68h.01Z"/>
    </g>
  </g>
</svg>