<?xml version="1.0" encoding="UTF-8"?>
<svg id="Layer_2" data-name="Layer 2" xmlns="http://www.w3.org/2000/svg" viewBox="0 0 442.51 415.55">
  <defs>
    <style>
      #Layer_1-2 {
        fill: #2a7035;
        cursor: pointer;
        stroke: #2a7035;
        stroke-width: .5px;
      }
      #Layer_1-2:hover {
        fill: #194520;
      }
    </style>
  </defs>
  <g id="Layer_1-2" data-name="Layer 1">
    <path id="AU-NT" class="cls-1" d="M195.55,27.83l.63-1.15-1.5-1.01.76-1,1.53.05-.03-2.3,5.08,1.63,4.76-.32,1.42.45,1.75-1.2,1.49.03.61,1.16-.37.8.66-.86v-1.68l1.45-.52,1.85.36-1.2-.63-.12-.51.08-3.17.61-.96-2.19-2-1.27-.43-3.1.96-1.26-1.76-1.14-.61-1.02.09,1.12-1.54,1.2-.55,1.15,1.13.82,1.94.76-.56-.96-2.37,1.41.26.7-.37,1.77,1.48,1.83,2.68.59.13,1.61-2.05.47.04,2.88,4.18,1.88-.18.55.8,1.54.65,1.26-.15,1.46-1.11,1.18.2-.75,1.3,1.12.64,1.17-.75,1.47,1.12.23,1.27,1.77-.26,1.59.32,2.77-.78,1.08,1.5,2.31,1.49,1.6.31,1.05-2.02,2.8-.15.83-.67-.87.23.12-1.1,1.74-.25,1.38-1.1-.04-.77h.4s.37.44.37.44l-2.18,2.1.46.54-1.29,1.62.72.99,1.61-1.42,1.51-.44-.92,1.16.37.56.8-.37.19.33-.87,1.26.61,1.04,2.18-.18.58-.45.76-1.93-2.02-.8,2.97-2.35,1.21-.22-.25.83,1.46,3.03.91-.31-.69-.71.88-.22,1.1.56,1.11,1.5-2.53,2.05-1.1,1.77-.25,1.34-1.37-.51.55,3.05-.95,2.19-.1-.35-.88.3-.12-2.14-1.7,2.05-1.12-.6-1.84,1.03-.39.67.47.65-.77,1.05-.2,1.25.89,1.61,1.07-.68-1.4,5.06-2.99,3.28-.9,2.33-1.8.92,1.13,2.63,7.99,4.81,1.17,2.34,2.7,1.29,2.1,2.03,2.87.12,3.68,2.39,4,1.39,1.32,2.1,1.54,1.31h0v109.55h0l-97.64.07h0l-.07-128.49h0l2.01,1.22.06,2.26.71-.88-.29-2.96,2.52,1.02,2.33,3.05.6-.23-1.15-1.79.23-2.05,1.67.29,1.55-1.07-1.94.61-.98-.63-.96-1.54,1.27-.29.75-.74-1.22.39-1.3-.24-1.97-1.52.13-.89,1.33-2.13,2.61-1.64,1.04-5.31.77-.8.48.91,1.05-.19,2.42-2.05-1.61-1.97.27-2.46.45-.2.47.43,1.11-.58.29-2.45,1.68-.75,1,1.14.96-.07-.92-.27-.31-1.17.37-1.59-.33-.25,2.07.27,1.37,2.34ZM196.23,20.09l-5.05-3.27-1.4-4.28.3-.99,1.96,2.05,1.43.45,2.11-.91,1.14.49,1.6-1.01.78,1.55-.33-1.21.85-1.12,1.59.64,1.2,1.58.09.83-2.77,2.91-3.5,2.29ZM260.82,44.9l.64-.31-.28,1.4-.57.22-5.55-.91.55-3.66.31-.53,1.81-.55-.31-.7.91-.76.47.03-.5.81.4,1.16,1.03.18.8-1.13.4.63-1.64,1.47-.64,2.51,1.76.49.41-.35ZM191.17,18.98l-1.8-.69-2.51.64-.78-.39.52-1.37.91.32.4-.39-.21-2.01.89-1.55.96-.2,1.6,4,1.58.93-.25.55-1.31.16ZM256.42,14.77l2.94-4.79-.53,2.04-1.77,2.48-.64.27ZM214,13.54l-1.02-3.23.83-.32.52,1.71-.33,1.84ZM262.4,63.33l-1.3-1.47.82-1.19.9,1.94-.42.72ZM253.14,41.35l-.31-1.01-.11.72-.62-.21.1-.93.95-.75.95.73-.96,1.45ZM252.94,17.35v-.51l.99-.79.82-.04,1.44-1.12-1.19,1.38-2.06,1.08ZM256.65,61.27l-.06-1.08.93-.28-.19,1.23-.68.13Z"/>
    <path id="AU-WA" class="cls-1" d="M14.73,181.05l.2-1.84-2.43-2.57-2.47-5.41-1.15-.7-.98-2.78.03-1.61-2.44-3.85-.06-2.35,1.61-5.6.75-1.5,1.54-1.21.27-1.01-.09-2.91.63-1.92-.12-1.14-1.64-3.85,3.01-7.33,1.05-1.56,1.44-.5.14.28-1.07,4.09.7,1.48-.34,2.16.47.48,2.37-1,3.02-7.02,3.17-1.76,1.19-.09,4.33-1.9,1.82-2.15,2.03-1.1,1.29-1.94,2.55-1.19.97-1.12,2.46-.73,2.52-1.81,1.83.79,2.07-1.11,2.99,1.26,3.72-.63,1.79-.78,3.56-2.99.61.29,6.15-1.02,1.94-2.81,1.09-.83,1.18-.11,4.27,1.28,2.21-1.14,5.99-1.07,7.49-3.28,2.71-2.26,2.3-3.11,1.64-3.53,1.5-2.02.25-1.78,1.51-.37,4.32-3.6.26-1.43-1.18-.54-.44-.7-.12-2.14-.64-1.66.37-3.56,2.22-2.79.74-.47h1.38s-.55-1.24-.55-1.24l.46-.62,2.02-.31.09-1.82,1.45-1.11.28-.99.77-.28.74.74-.77.23-.36,1.25,1.52,1.46,5.2,9.95-.13-2.6.6-1.82-.49-1.5.2-.86.69-.02,2.17,2.39.65.02-.91-.81-.39-1.56,1.03-1.18-1.36-.06-1.72-2.42.06-1.23-1.22.02-.83-.75,2.34.34.74-1.12-.02-1.01-1.6-.58.12-1.31,1.69-.37.87.68-.8.68,1.72,1.34.79-1.5,1.91.45.98,1.34,1.12.06.56-.64.99.48,4.53.12-3.02-.89-2.33.02-.27-1.21.59-1.34.44-.1.52.79.81-.56.24-2.2,1.22-1.23-1.2-.07-.88,1.5-1.46-.81-.31-2.2.93-2.13,1.35.43.81-.42.08-2.42.46-.11,5.17,2.99-1.14-1.01.23-1.44-2.01.38.28-1.2h.73l.43-.74-1.76.85-.62-.86.82-.67.87.12,1.06-1.24.94,1.82-.03-1.44,1.74,1.36,1.23-.26-2.73-2.06.65-.52-1.16-1.72,2.17-2.5,2.74.29-.1-2.68.42-.96,1.2.57-.94,3.98.87-2.52,1.31.67-.2,1.2.84.79,1.46-1.43,1.18-4.29-.71-1.82-.69-.44,2.17.39-.09.84-.56.24.37,1.22,1.04.72.5-2.03,1.83-.95-.51,1.25,1.58,1.69,2.05-2.87-.47-1.96,1.22-.49,1.06-.25.67.54,1.2,2.17.28-.79,2.94.6,1.04,1.47,1.49,1,3.25,4.52.47-.23,1.84,1.58.2,1.09-1.29,3.36.04,3.31-.57,1.14.83-.72.38-2.46,1.36,1.03.32,1.06.05-1.08-1.08-2.67,1.24-1.7.51,1.47,1.03.03-.66-2.76,1.61-.46,5.04,1.26h0l.06,128.49h0l-.06,70.13h0l-8.88,4.31-9.21,3-7.03.63-5.51-.99-1.2.59-1.05-.23-4.96,3.58-2.31.67-6.03,3.84-5.04,1.13-1.91,1.98-1.63,5.43-2.02,1.76-.38,1.1-2.11,1.64-1.87-.14-2.18,1.61-.73-1.72-.9-.38-1.88.64-5.33.08-1,.69-.12.66-1.44.15-.42-.14-.09-1.62-.84-.89-2.31.97-3.47-1.07-6.5.51-3.5.79-1.34.74-4.47-.59-2.08.64-2.14,1.59-1.61,3.03-1.54,1.51-1.27.75-3.22-.67-1.87,1.27.16.75-.38.43-2.63,1.1-2.12,2.39-2.17,1.16-2.65.48.21.55,1.5.33-.67.38-2.25-1.02-1.02.28-.25.91-3.01-1.58h-4.16s-.82.53-.82.53l-4.48-.75-2.64-1.76-2.64-.61-1.73-2.78-3.46-2.94-2.76-1.12-1.29.85-1.23-1.31-.6-7.43.47-2.18,2.43,1.68,1.92-.41,3.43-4.63-1.28-7.64,1.09-1.9-.68,1.62.94,1.56.47-2.54-.61-10.92-7.15-15.29-.26-2.89-.94-2.67.44-7.12-.98-3.49-.57-1.35-2.34-2.78-.38-2.93-.88-1.78-3.78-4.87-.65-2.93.5-1.76-.21-1.27-2-4.92-3.81-6.15-3.31-3.52-.61-1.93.69-2.54.5,3.02.34-1.92,1.61,1.99.35,2.7,1.05,1.77,1.53-.61.78-1.16.06-2.06-3.37-3.15-.63-2.6-1.1-1.78.85-2.03,2.47,3.05.4,1.13-.57,1.75.35,1.95.92-.34.87-1.68.87,3.6,1.2,1.61,1.36-1.07.29-.97-.54-1.32.37-2.33.35.09ZM3.5,182.78l-2.75-4.33-.49-1.88.51-1.67.54.13-.17.86,2.39,5.66-.03,1.23ZM126.35,59.02l-.58-1.35.98-.72.94,1.57-1.34.5ZM26.98,120.78l-.72-.14v-.61s1.48-1.72,1.48-1.72l.23,1.22-.99,1.25ZM133.04,50.12l-.57-.31.07-.85.76-1.17.5.56-.76,1.77Z"/>
    <path id="AU-ACT" class="cls-1" d="M392.54,306.28l-1.26-.64h0l-1.73-2.94.02-1.84.52-2.56,2.85-2.1,3.51,2.19-2.31.69-.52.72-.62,2.49.16,3.14h0l-.62.85Z"/>
    <path id="AU-NSW" class="cls-1" d="M402.69,327.75l-19.25-9.7-.98-.08.99-2.48-1.68-2.93-.56-4.42-1.18-.75-1.82-.78-.93.36-1.53-.29-1.01.17-1.01,1.26-2.8.73-1.46-.1-4.52-1.69-2.2.99-5.35-.78-3.1-2.19-1.77.7-1.31-.39-2.7.35-.58,1.62.17,1.36-2.34.43-1.34-.78-2.28-2.67-.56-1.28-2.81-2.59-3.52-2.26-1.89-.68-.35-1.69-1.69-.72-.5-1.1-.16-4.01-2.31-1.26-2.89-.62-.82-.81-.81.48-.84,2.17-.92-.18-.93-2.25-.94-.87-.05-1.88-1.51-2.54-2.12-1.16-1.7.35-1.61-.42-2.1,1.48-3.19-1.83-1.87-.14-.84-.6h0l.05-63.7h86.31l5.57-4.95,1.2-.33,1.4.69,6.37-1.08,1.88,1.44,3.45-.29,2.74,1.25,2.77,2.39.13,1.88.68,1.09,1.06-.68.98-2,1.87-.83,1.07,1.1,2.08-1,.35-2.01-.98-2.22,2.27-1.44,2.16-.71,1.28-1.38,1.19.8,1.78.39,3.82-.09.83-1.1,2.64-.73.81-.66h0l.78.71.15.81-.35,2.67.7,2.08-.2,2.48-1.71,2.24-1.2,3.52.3.87-1.21,6.89-2.55,7.71-.14,3.35.75,1.43-2.46,8.95-3.66,6.04.19,3.48-4.37,3.57.19,1.13-3.61,1.52-2.58,4.88-1.3.64-.11.59.46.41-.35,1.39-1.24,1.66-.73,4.43-1.88.58,1.04.56-2.83,3.59-1.02,2.97.44.54-.54,2.46-.92,1.21,1.14,1.9-.17.88-.29.25-.36-.39-.02-.88-.98.4.2,1.12-1.77,1.32-4.1,9.49-.29,5.19-.63.82-1.9,7.2.05,1.97,1.08,1.25.14.94v.45s-.78.24-.78.24l.35,3.13ZM393,302.29l.62-2.48.52-.73,2.31-.68-3.5-2.19-2.85,2.1-.52,2.56-.02,1.85,1.73,2.94h0l1.35.59.53-.8-.17-3.16Z"/>
    <path id="AU-SA" class="cls-1" d="M254.27,283.55l-1.08,1.74-.88.39-.93,1.59-1.12.7-.67,1.33-.77,2.33.75.06,1.45-1.02.15.69-.17,2.59-.52.22-1.84-1.95-.68.1-.48,1.13h-.39s-3.44-4.33-3.44-4.33l-1.2-.78-1.12.39,1.04-2.08.05.82,1.42,1.52.57.39,1.08-.35-1.23-.85-1.31-7.14-2.47-3.1-2.09-1.7.19-2.15-1.63-3.81-1.24-.48-2.87.81-.66-.74-2.11-5.47.87.06.58,1.05.96-1.67-.22-1.14-1.76-1.73-2.84,1.13.33-1.76.73-.08-1.35-1.88-1.78-1.26.12-.47-.74-.23-1.31,1.43-3.46-.24-4.14-2.99-2.18-.26-2.79,1.3-1.43-.14-4.63-3.88-6.74-3.15-3.85,1.73-7-.39-12.48,1.44h0l.06-70.18h0l97.64-.07h32.57l.03,36.55h0l-.05,63.7h0l-.28-.37-.04,54.4h0l-2.93.11-1.83-.98-1.89-1.9-2.55-4.52-1.38-.52-2.63-3.98.34-.7-.54-1.81.2-1.25,1.19-1.71-.42-3.24-1.9-4.63-3-4-3.14-3.08,3.49,2.76,2.78,4.4-1.02-2.95-5.07-5.1-.02-1.18.67-.27.82.71.07,1.9,1.02-.11.23-4.21-1.56-.77-.84.83-1.79.39-.11.89.83.46-.49.63-2.93-.25-2.01,1.52-3.92.21-.89-.67.65-1.15,1.44-.72,1.66-1.79.28-3.05.53-1.16-.2-3.9-2.4-3.27-.6-2.16-1.38-2.35-.93,1.6.13,1.14-1.03,1.06-.38,1.31-.15,2.44-1.38,5.56-.8.65-2.75-.81-2.04.77-.72.93-1.51-.23-1.47.97-.66-.69,1.14-1.38.95-3.24.91.36,1.89-.3,1.12.72.54-.29.7-3.69-.06-4.88-.45-1.65,1-.85.64-2.76,3.75-4.22-1.46-3.64.33-.98,2.19-.94-.08-.66-.93-.89-1.5-5.68-.58-.44-.09,2.09.5.58.07,1.37-.36,1.86-1.95.48-1.16,1.26-3.02,6.97-.74.62-1.32.05-.77-.47-.93,1.64-4.89,3.05-1.13,2.03ZM271.7,303.73l1.65.45.54,1.42-.79.71-1.29-.63-1.74-.13-1.53.72-.06,1.2-1.73,1.01-1.06-1.08-1.43-.27-.82.8-4.75.17-1.89-1.86.46-1.97,5.85-1.43,2.14-.95,2.27.19.64.61.14,1.28,2.1.75.64.05.66-1.04Z"/>
    <path id="AU-VIC" class="cls-1" d="M398.36,330.79l-2.92.82-10.86.36-5.97,2.2-4.2,3.51-5.42,5.71-4.8.91-2.3-.02-.38.57,1.21,2.21,1.25-.88.23-.84.39.18.16,3.76-.97.99-.81-.69-.79-2.07-1.14-1.43-.84-.36-.68.6-1.07-.09-.96-2.84-.96-.15-1.31.58-2.08-1.91.18-1.29,1.34-1.08-1.21-2.03-2.05.15-.46,1.54-1.98,2.04-1.4.12-1.52-1.77,2.43-.51,1.59-2.8-.35-1.29-1.97-2.39-4.24,3.19-1.72.35.06.5,1.5.26,1.35-.65.75.21.05,1.01-.56.86-3.21.54-3.27,2.21-2.38,2.93-1.2.33-2.05,1.93-5.37-3.08-2.66-.85-2.91-2.25-1.69-.67-2.38.5-2.12-1.49-2.32-.34-1.42.75.33,1.08-.86.24-1.27-.62-2.83-2.92-2.44-1.32h0l.04-54.4.28.37h0l.84.6,1.87.14,3.19,1.83,2.1-1.48,1.61.42,1.7-.35,2.12,1.16,1.51,2.54.05,1.88.94.87.93,2.25.92.18.84-2.17.81-.48.82.81,2.89.62,2.31,1.26.16,4.01.5,1.1,1.69.72.35,1.69,1.89.68,3.52,2.26,2.81,2.59.56,1.28,2.28,2.67,1.34.78,2.34-.43-.17-1.36.58-1.62,2.7-.35,1.31.39,1.77-.7,3.1,2.19,5.35.78,2.2-.99,4.52,1.69,1.46.1,2.8-.73,1.01-1.26,1.01-.17,1.53.29.93-.36,1.82.78,1.18.75.56,4.42,1.68,2.93-.99,2.48.98.08,19.25,9.7h0l-2.09.65-1.22,1.86-1,.54ZM352.52,340.34l-.78-.3.13-1.52,1.74.36.44.52-1.53.94ZM352.5,342.26l-.9-.68h-1.64l.76-.74,1.01-.2.77,1.62Z"/>
    <path id="AU-QLD" class="cls-1" d="M402.69,140.41l.66.82-1.28-3.39.85-2.22.86.03,1.32,2.67,4.26,2.27-.64-2.37.3-.61.79.14.77,1.15-.24,1.31,1.47,2.09-.69,4.67.61,1.26-.13,1.68.72,1.46,1.69.61,1.57,2.78,1.13.41,1.66,1.78,1.33.68-.09.6.83-.4.28-.89.48.14,2.71,2.71,2.15,4.63,3.65,2.42.43,2.21,1.78,2.95,2.57.52.42,1.76-.58,1.51.29,2.07.69.44.58,1.42,1.6.99-1.23,4.03.92,9.36-1.33,1.14.33,1.66,2.08,2.02.68,2.33.92,1.29.32.87-.24,1.63,1.04,2.06h0l-.81.66-2.64.73-.83,1.1-3.82.09-1.78-.39-1.19-.8-1.28,1.38-2.16.71-2.27,1.44.98,2.22-.35,2.01-2.08,1-1.07-1.1-1.87.83-.98,2-1.06.68-.68-1.09-.13-1.88-2.77-2.39-2.74-1.25-3.45.29-1.88-1.44-6.37,1.08-1.4-.69-1.2.33-5.57,4.95h-86.31l-.02-36.54h-32.57v-109.55h0l3.15,2.11,3.79.42,2.21,1.09,1.82.26,1.42,1.97.23,1.46,1.06,1.58,1.92.41,1.95,1.6,2.15.62,2.22,1.56,4.1-.45,4.74-2.51,1.34-5.09,2.58-3.35,1-2.26,1.52-4.82-.28-1.89.65-4.14,2.23-5.7-1.07-2.94-.49-3.15.86-3.76-1.33-2.17-.09-1.34.79-3.28,1.59-3.09-1.03-3.28,1.67-1.47.53-1.47.65.2.82,2.19.09-.47-.61-1.78-1.8-2.33.32-.26-.93-.21.25,1.11-.63.2-.36-.42,1.97-3.51.8-2.48.47-.21.27,1.32,1.16-.23-.84-1.58,1.91-6.08.27-4.66,2.12-.59,1.1-2.04,1.83.45-1.05,1.18-.08,1.01,1.08-.85,1.47,1.25.47,1.03.84,3.42-.07,4.87,1.18,1.04,1.46-.26,1.04.93-1.05,1.69-.27,2.14,2.15.87.04,1.16,1.64,1.1-.73,2.57,1.65.33.08,4.71.79,1.42-.69,3.6.77,2,.92.97,1.05,4.34,1.14.82h1.35s4.59-2.59,4.59-2.59l.45-1.01.43.1.68,1.02.39,2.47.68.81,2.39.68.68,1.51,3.87,2.14-.88,2.11.6,2.2-.44,1.29,1.21,3.23v2.03l1.12,1.88-.65,4.02,4.39,5.32,1.36-.47.26.32-.79,1.95,1.62,3.31.79,3.7-.11,2.99-1,2.12.08,1.09,2.2,2.88,1.32.5-.61,4,3.12,2.93,2.15.49,1.33,1.33,2.02.45.73.69,3.18.11-.33-1.19,1.67,2.6.43,2.2.81,1.12,1.09.02-.09-1.33h.66s.98,2.11.98,2.11l3.34.61.86,1.04-.26.44,1.51,1.49.57-.25-.15-1.39,2.39,1.75,1.04.19,1.8,3.48-1.56-.9-.53.22-.8.99.67,1.8,5.27,4.19.27,2.3,2.2,3.52-.14,2.21.99,3.54,1.91,3.19-.29,1.69,1.58-1.3,1.69,2.11ZM436.39,178.59l-.91-.7-.59-2.15,1.32-2.63-.16-1.29,2.07-2.83-.03-.94-.86-1.18,1.33-1.38.09,2.44.88,1.31-2.65,6.24-.49,3.11ZM285.13,73.8l.18-1.81,1.54-1.55,2.47-.55,2.09.34.06.66-.47.22-1.18-.23-1,.4-.51,1.46-3.18,1.06ZM416.26,154.69l-1.75-2.14-.52-1.75.48-.11,1.73,1.31.83,2.26-.77.43ZM362.66,93.42l-.75-.29-.21-1.04-1.25-1.39,1.99.61.9,1.3-.68.81ZM439.92,201.99l.29-3.84,1.17.02-.94,3.76-.52.06ZM440.12,197.51l-.72-2.02v-1.64l.93-.51-.21,4.17ZM318.08,7.23l-.68-.55-.05-.69,1.1-.52.46,1.21-.83.55ZM319.13,1.69l-.98-.67.42-.64.6-.11.61.61-.65.81ZM288.17,78.14l-.31-.65,1.11-1.04.56.4.18.83-1.28-.03-.26.49Z"/>
    <path id="AU-TAS" class="cls-1" d="M369.46,414.76l-.9.45-.2-.45-1.4-.22-.94-.71-3.29-.32-.7-.68-1.31.4-.78-.26-1.15-1.81.64-.45,2.61.67.02-.98-.77-.64-.42.76-3.12-.54-2.62-4.71-.91-.2-.56-.9-1.15-3.62-1.02-.68-.59-5.21.2-.26,2.2,1.98.47,2.18.9-2.52-1.02-.36-1.93-2.12-.35-2.13-3.18-4.67-2.92-7.17-.73-4.09.88-.8.02-1.66.66-.44,2.43.29,1.42,1.05,1.72-.28,9.97,5.07,3.32-.1.94.53-.05-.5,1.62-1.17.57.18.24.95,1.48.27-1.3-.84-.05-.69,2.15-1.2,1.41.47,2.27-.46.66.59.78-.47,1.34-2.04.69-.17,1.77.86.69-.4.76-1.69,1.17.34,2.1,1.89.6,1.35-.69,2.46.57,2.41-.47,1.72.44,2.29-.54,2.92,1.08,5.94-.57.81-.39-.33.37-1.68-1.24-2.84-1.26,2.5-.82,5.93-.65,1.34.12,1.52-.78.81-.44,1.48.62.2.12-.68.96.98-.52,2.59.48,2.15-1.04-.66-1.19.94-1.72-2.69-.14-.71.95-1.17.82,1.67,1.28-.36-.8-1.4-2.91-1.5-.6.45.55,1.75-.29.58-1.07.35-.21-2.25-.98-.63.34.86-1.16,3.39.06,2.01-.75.19-.87-.56-.94-1.87-.46.27v1s1.36,1.25,1.36,1.25l-1.96,4.9ZM382.62,366.12l-.98-.54-.22-1.36-1.24-2.33-1.55-1.38,1.32-1.74.93-.4,2.15,2.87,1.33.92.47,3.17-2.21.79ZM336.95,364.17l-.38-.28.06-1.87-.62-.81.03-.77.19-2.27.85-.63.02-1.18.46-.13,1.42,1.24.41,3.76-.44,1.51-2,1.43ZM384.9,369.37l-.23-.97-2.52.32-.97-.42.02-.55.72-.59,1.49.19,1.52-.77,1.48,1.76-1.51,1.03ZM373.65,413.2l-1.38-.17-.57-1.19,1.92-2.37.7,1.83-.67,1.9ZM374.29,409.47l-.75-1.57.7-1.22.82,2.48-.77.31ZM381.38,401.93l.05-1.96,1.19-.43.44,1.11h-.76s-.92,1.28-.92,1.28ZM347.45,372.59l-.25-.83.65-.77.98,1.12-1.38.48Z"/>
  </g>
</svg>