<?xml version="1.0" encoding="UTF-8"?>
<svg id="Layer_2" data-name="Layer 2" xmlns="http://www.w3.org/2000/svg" viewBox="0 0 659.06 444.64">
  <defs>
    <style>
      .cls-1 {
        fill: #ccc;
        stroke: #fff;
        stroke-width: .5px;
      }
    </style>
  </defs>
  <g id="Layer_1-2" data-name="Layer 1">
    <g>
      <path id="NL" class="cls-1" d="M98.74,288.33l-2.18,1.93-3.16-.41-.56-1.42,5.9-.1ZM96.88,284.51l.85.99-2.54-.66,1.69-.33ZM103.19,269.83l-1.19.39,1.19-1.65v1.26ZM98.74,288.33l-5.23-1.66,5.56.75-2.21-3.68,3.61-5.45,1.93-7.01,8.71-5.23,5.08-.38,2.57,1.79-1.11,7.05-2.17.37.26,1.7,1.93.92-2.1,3.3.51,1.23-5.73,1.8,1.68,3.82-.46,3.26-1.84,1.25,1.47,1.22-.45,1.76-2.6-.9.84-1.67.16-.73-4.99-4.4-5.42.89ZM106.15,266.29l-.91-.07,2.64-.52-1.73.59Z"/>
      <path id="CY" class="cls-1" d="M302.43,435.97l-3.51,2.48.73,2.5-2.36.15-4.66,3.27-3.76-1.3-.89-1.84-.11-1.06,3.9-.8.41-1.73,4.49.3,5.76-1.97Z"/>
      <path id="UA" class="cls-1" d="M327.7,332.62l-4.52.16-5.04,3.55-6.52.88-5.47,5.05,1.79-1.69-.34-1.57-2.56,2.45,1.16,4.72,2.93,3.69,7.53-.74-1.22,3.14-6.21-.32-9.42,6.39-4.2-1.22.71-5.16-7.06-2.92,7.8-5.23-.48-1.45-7.53.13-4.35-1.93,1.2-1.44-3.06-1.22,5.43.78,1.46-1.38-3.59-.26-1.92-5.61.76,5.54-2.29-.15.21-1.1-1.08,1.46-4.09.75-3.89,6.65-3.98,1.4.53,4.43-2.04-1.53-4.33,1.78-3.69-2.07,1.93-.65,3.02-5.13.07-3.97,7.9.35-1.71-3.98-2.06-1.33-.22-3.03-2.72-2.17-.06-4.75-10.62-5.18-6.27,2.21-2.11.56-.96,2.13-7.98,2.69-2.69-2.07-9.27-1.54-2.2,1.38-5.02-4.62,2.74-6.81,2.12.1-.99-5.61,9.32-9.68.04-3.64-3.3-6.92,5.1-3.8,9.59-.61,9.13,1.87,3.76,2.97,3.26-1.41,3.69,1.89,2.5-2.1,1.65,2.65,5.48-1.03,2.59,2.29,1.42-6.82,2.18-1.99,4.61-.26,2.41.55,2.11-2.81,8.76-.42,4.46,6.18-1.86,1.1.62,4.58,5.73.55,1.82,1.96,1.73,6.93,3.54-.42,3.39,2.09,5.41-2.13,4.21,5.17,1.42-1.39,12.28,4.96.18,3.36-2.84,2.5,2.14,1.91-1.42.14-1,2.21,2.11,3.27-1.21,3.83-5.92.33-3.58,2.45-1.04,5.15ZM285.92,341.31l.93.48-4.32-2.13,3.39,1.65Z"/>
      <path id="TR" class="cls-1" d="M258.99,380.96l1.24,3.74,5.79,2.91-.68,1.97-9.82.32-8.73,7.93.34-2.1,3.63-2.76-4.63.14-.45-1.03,3.95-6.01-2.05-2.83,1.99-2.24,4.23-1.16,1.96,1.56,3.23-.44ZM349.9,385.03l6.45.7,1.93-1.25,4.62,4.22,1.91,3.45-1.03,2.1.65,3.13,4.2.76,3.22,2.95.33.46-1.55-1.03-1.33,3.02-2.47.39,2.88,9-1.61,3.64,2.55,1.68,1.18,4.8-3.25,1.38-1.13-2.73-9.03-.59-2.8,2.22-1.05-1.59-4.63,1.76-5.45-.07-9.09,3.49-7.85-1.84-5.09,2.16-5.24-1.33-.14,4.75-3.44,3.34-1.58-.7-.55-3.27,2.55-2.92-.94-2.11-4.42,2.81-4.65-2.02-6.79,5.3-6.07,1.21-10.47-6.55-4.01-.37-1.34,4.98-5.1.94-3.13-1.4-1.71-3.26-4.49-.81-1.29,1.39-3.85-.32,4.73-2.9-6.6.45,1.83-1.58-3.14-4.18,1.1-2.73-6.34-2.55,1.01-3.12,1.57,2.62,3.17-.99-2.56-2.22,1.68-1.52-2.24-3.51,1.47-2.24-5.3.72.46-4.57,3.75-3.61,6.67.63.99-1.62.59,1.26,7.04-.18-1.48-1.27,1.15-.85,5.97-.96-4.92-1.77.23-2.52,14.19,1.01,7.08-5.58,6.59-2.48,9.88.43,1.72-.96,1.97,3.02,5.08.42,2.38,3.66,2.51-.8,10.8,3.92,7.04-1.62,5.65,1.29,8.38-4.97ZM245.22,397.3h-2.03l1.68-.9.35.9Z"/>
      <path id="SE" class="cls-1" d="M233,98.8l-3.13-.39-3.97,1.53-2.4-2.23-1.4,1.27-.92-1.12-.99,4.34-1.13-.22-1.4,3.04-2.11.25.29,2.37-1.34-.9,1.11,3.08-2.94,5.05,2.57,5.43-5.1,9.21-7.01,6.14-2.48-.21-2.15,3.6-2.88.89-1.98,2.7,1.27.11-.26,1.38-1.97,1.57-1.78-1.44.88,4.21-1.36,1.43-2.86-.08,1.5,4-1.74,5.27.61,2.59-1.81-.57-.45,2.11.81,12.21,2.77,2.27,1.98-.75,6.04,7.67.8,3.6-6.78,5.29-1.29-.72-.09-2.74-.49,1.05-2-.57-.12,1.18-5.38-1.54-3.57,1.77,5.86.43,2.64,2.29,8.11-1.79.73,1.07-11.04,8.79-5.15.23,4.78,1.86-1.83.75v11.85l-2.04,9.81-3.52,7.11-7.04-.45-.18,1.56-2.38.68-1.54,6.92-8.67-.17.59-4.01-3.38-6.53,2.22.32-.98-2.15,1.36-.14.17-2.02-3.11-3.54-6.55-15.19-.12-2.84-1.23-.37-.68-8.03.32-1.17,1.3.55.56,1.66,1.15-.22,1.05-4.77-.79-4.01,1.69-3.62,3.74-3.27.69-4.67-1.99-7.61,2.78-.79,1.17-4.09-4.88-5.21,1-8.1-2.05-14.82,1.18-4.59,4.16-6.16,2.77-1.16,5.1.94,1.22-2.45-.43-4.52-2.88-1.84,5.59-11.45.42-13.57,6.34-2.95-.41-3.09,6.61-9.66-1.86-6.46,3-3.41,1.42-4.9,3.64-3.76,3.99,2.5,2.6-10.74,11.23,3.65,1.82-2.22-1.83-1.18,2.56-5.69-1.56-3.23,3.4-.3,9.27,9.61,5.77,2.81,5.29,7.48-1.24,8.78,1.87.66-.62,5.12,2.34,5.49-1.94,9.44,3.07,7.42ZM198.78,213.19l-1.77,1.64.64,3.86-5.13,5.93.93-2.01-1-5.9,2.7-3.45,2.45-1.08,1.18,1.01ZM181.62,232.33l-.79-3.39,4.13-9.58-3.34,12.97Z"/>
      <path id="SI" class="cls-1" d="M181.53,338.43l-1.31-.34-.63,1.58-3.99,1.67.11,3.28-2.52,1.25.42,2.55-3.68-.11-1.51-1.72-1.34,1.69-5.34-.34.96-.68,1.04-.26-2.66-3.8,1.03-1.63-1.71-.82,2.16-2.52,5.73,1.17,2.31-2.01,7.17-.7.91-1.83,1.29.06,1.56,3.51Z"/>
      <path id="SK" class="cls-1" d="M222.1,312.67l-2.74,6.81-2.76.59-1.82-2.08-6.48.25-3.63,3.85-2.19-.77-5.62,2.24-.45,2.14-6.48.17-4.14-2.36-1.9-3.85.59-2.15,1.23-2.47,4.19-.48,2.71-3.79,4.53-2.62,2.13,1.15,1.97-2.05,2.24,2.34-.12,1.73,2.03.23,2.06-2.1,8.6-.27,6.05,3.49Z"/>
      <path id="RS" class="cls-1" d="M206.63,342.23l3.59,3.47.13,2.71,4.69,3.06-.92,1.32,1.21,1.03-1.17.7,4.94,2.7,3.7-1.03.62.76-1.61,1.27,1.42,1.86-2.26,4.26,4.09,5.5-3.44,3.17.38,3.67-1.21,1.16-5.26.6,1.28-3.84-2.44-.75-3.97-4.69-3.08,3.99-7.74-6.5,2.02-1.02-1.68-3,2.28-.73-3.14-2.97,1.55-4.92-2.3.11.38-2.55,2.27-.72-2.66-1.78-.67-5.12,4.77-2.3,4.23.58Z"/>
      <path id="RO" class="cls-1" d="M260.33,348.58l3.69,2.07,4.33-1.78,2.04,1.53-1,3.96-3.43.82.31-2.06-1.37.53-2.06,11.06-10.1-3.97-5.86,1.49-4.85,3.14-17.36-1.52.73-2.28-2.17-1.49-1.42-1.86,1.61-1.27-.62-.76-3.7,1.03-4.94-2.7,1.17-.7-1.21-1.03.92-1.32-4.69-3.06-.13-2.71-3.59-3.47,5.93-1.68,5.91-12.03,5.91-4.42,2.2-1.38,9.27,1.54,2.69,2.07,7.98-2.69.96-2.13,2.11-.56,2.44,1.05,7.35,11.73,1.13,3.32-1.11,10.1.93,1.43Z"/>
      <path id="PT" class="cls-1" d="M20.38,422.74l-2.88,1.46-7.84-.22,1.24-3.36-.45-8.66,1.43.19-.88-.8-2.79.6-.25-1.79,1.54-.78,1.55-2.86-2.32,2.9-1.49.38-.83-.86,5.36-17.08-.62-10.64,3.44-1.78.76,2.94,10.34-1.18.51,2.44,2.22,1.26-4.82,4.67.8,5.91-1.5,1.54.38,3.24-3.77,1.19,3.62,5.26-2.32,5.16,2.59,2.31-3.27,3.91.25,4.65Z"/>
      <path id="PL" class="cls-1" d="M202.34,254.02l21.3,1.19,4.07,1.8.77,2.99,2.9,13.19-4.99,5.34,3.22,2.7-.32,5.69,3.3,6.92-.04,3.64-9.32,9.68.99,5.61-2.12-.1-6.05-3.49-8.6.27-2.06,2.1-2.03-.23.12-1.73-2.24-2.34-1.97,2.05-2.13-1.15-1.82-3.83-6.3-2.48.5-2.01-1.93.56-3.6-1.82.73,2-2.36,1.42-2.89-3.38,1.41-1.59-.92-.87-1.85.47-6.83-4.29-1.24,1.66,1.39-4.22-2.79-6.27,1.01-2.72-.89-4.91-3.31-3.89,1.9-3.59-1.02-5.99,2.19,1.02-.17-2.09-2.33-.54v-.91s13.29-3.91,13.29-3.91l2.52-3.04,8.64-3.06,3.24-.25,2.93,1.79-2.17-.7,2.69,4.35,5.18-1.04Z"/>
      <path id="NO" class="cls-1" d="M242.63.29l2.42.78,1.27,2.26-3.71.72-1.8-1.91,1.82-1.85ZM278.23,27.68l-.06,4.75-4.59-1.88-.62,3.91-4.71,2.58-2.85,5.23-.8-2.93,3.28-5.65-1.3-3.83-9.38-7.71-4.18,3.12-4.06-.17-3.05,4.37-2.18,13.4-5.44,7.39-7.32-3.94-3.58,2.91-6.15-1.31-5.5-10.42-3.56,1.14v3.26l-2.99.09-3.4.3,1.56,3.23-2.56,5.69,1.83,1.18-1.82,2.22-11.23-3.65-2.6,10.74-3.99-2.5-3.64,3.76-1.42,4.9-3,3.41,1.86,6.46-6.61,9.66.41,3.09-6.34,2.95-.42,13.57-5.59,11.45,2.88,1.84.43,4.52-1.22,2.45-5.1-.94-2.77,1.16-4.16,6.16-1.18,4.59,2.05,14.82-1,8.1,4.88,5.21-1.17,4.09-2.78.79,1.99,7.61-.69,4.67-3.74,3.27-1.69,3.62.79,4.01-1.05,4.77-1.15.22-.56-1.66-3.73-1.94-1.61-7.69-2.8,9.98-2.27.67-1.92-2.02.67,1.85-10.05,10.66-4.71,1.59-3.11-.05-.86-1.61-1.93.68.47-2.11-4.08-1.44-3.62-4.53.64-3.73,3.28,1.86,1.78-1.71-1.78.64-1.41-1.91.42-2.64,3.04-3.47-7.01,5.22-1.56-.8,1.17-5.5,3.15-.25,2.99-2.1-3.27-.6,2.76-5,2.54-2.37.06,3.46,3.16-4.88-5.67,2.26-6.79,9.52.4-6.02,3.25-.47-2.71-1.12-1-3.26,3.44-3.33-2.72,1.63-.86-.91-.73-5.56,11.92-1.45,1.76,2.63v-1.92s3.81-1.66,3.81-1.66l-1.35-.17-.39-1.09.65-1.89-.75.88-.37,2.68-2.25.29-2.31-1.81-1.45,2.18-7.14.36-2.04-1.99-.13-2.57,2.27-.73-2.77-3.19v-2.39s3.62-.27,3.62-.27l3.71,1.56,4.82-1.17-9.87-.94-.83-3.22,1.45.11,3.7-3.82,1.18.96,3.35-.84.76-.88-3.75.88,1.46-2.97,8.2.92.81-.55-1.02-1.26,3.75-.88-9.17.16,1.39-3.09,4.25-2.51,3.56.13,3.52,3.62-3.13-4.68.76-1.86,2.46-.84-1.85-2.36,1.45-1.54,3.77.11.13,2.03,3.65-2.5,2.18,3.53,4.98-1.06-.24-2.48,4.35-2.73-1.31-1.44,1.9-1.6-1.02-.7-2.64,1.96.14,2.31-5.93,3.9-3.29-2.93,6.73-10.97,7.19-6.21-2.27.93,1.3-3.5,4.52-3.25.99,1.49,2.91-2.06,1.19-2.01-3.36,2.5-1.99-2.88,3.82-8.81,2.32-.89-1.68-2.39,6-1.33,2.42-1.97-6.16,1.12.62-6.91,2.76-2.62h2.28l-2.07-1.93,3.08-3.66,8.8-1.44-6.56-1.2,3.5-5.32,4.26,3.97.66-3.04-2.98-1.42.37-2.9-3.03,1.81-.37-2.59,2.26-2.93,3.28.44-2.06-2.17,4.66-2.89,2.05,6.26.54-3.78-1.27-4.09,1.24-1.33,3.8.64,4.05-1.31-.86-1.02-5.66.29-.48-1.22,5.91-4.94,2.11-5.64,2.67-1.07,1.07-5.99,4.04,2.99-1.65-3.38,2.54-1.36,1.39-3.62,3.29-1.11-.3,7.37,2.15-7.75,2.45-2.37.09,6.41-1.55,5.3,2.55-3.86,1.7.42-1.39-3.33.6-4.32,3.65.48,1.82-2.44,3.65,3.51-1.16-4.55-3.01-3.32,5.81-1.51.69.89,2.45-2.21,4.51,7.78.17-5.23,4.44-4.77,2.57-4.4-1.06-2.54,3.38-3.76,3.37,3.41,1.15-1.41,2.24,1.21-5.21,12.84.33,2.17,1.13-.54,9.77-16.26-.52,10.79,2.73-2.04,1.31-4.73,2.44-1.22-2.1-2.95,2.44-2.99,5.36,2.41-.44,3.09-2.89,3.01,2.52.21-.54,8.45,4.31-12.46,1.82.06,4.28,4.38,2.21-1.15.99,3.25,2.58.39,2.23,2.47.12,2.54-4.59,2.98-9.98-.41,5.52,3.33.63,4.55,2.65.52,1.01-2.82,1.28,2.73.38-1.41,2.6.22ZM228.18,7.04l-4.12,5.58-3.17.54-2.45-2.88,6.53-1.1,1.62-2.14h1.59ZM232.07,12.1l-2.03.11.42-3.77,2.02,1.97-.41,1.69ZM229.36,12.46l-.46,2.85-2.62,2.52-1.46-3.25,4.08-3.49.46,1.37ZM203.44,19.14l2.13,1.75-.53,1.04-1.51-.02-1.23-3.75,1.14.98ZM199.98,22.12l2.38.94-1.84,3.9-2.2,1.18-1.5,3.51-4.42.41,1.48-4.08,2.19-.27.08-2.13,2.46-2.89.55-4.09.82,3.52ZM210.25,21.66l-2.12.26.19-2.51,1.98-.32-.05,2.57ZM272.07,27.42l-1.28.57.47-2.7,1.48,1.32-.67.81ZM188.18,31.31l3.38,1.76-.36,5.87-3.12.02-2.73,3.46-1.83-1.07,1.29-5.53,2.41-.37-.88-1.85,1.84-2.29ZM176.44,50.85l3.83-5.85,1.28,4.53-3.66,4.24-3.62,1.64-1.07-1.12-4.38,3.2-2.5.14,2.21-3.82,3.43-.76,2.14-3.21.47-7.98,3.81-4.9-1.94,13.89ZM172.72,43.75l1.27,2.98-1.17,3.1-5.51-.86,1-2.9,1.68.52.47-2.29,1.11.36v-1.99s1.15,1.08,1.15,1.08ZM163.73,56.27l1.51.85-5.85,4.03.48-2.97,3.86-1.91ZM157.66,63.33l-1,.94,1.65-4.48-.65,3.54ZM153.94,94.86l.72-2.78.65,1.47-1.37,1.31ZM154.54,97.2l-.22-1.24,1.82-.57-1.6,1.81ZM150.9,101.72l-1.28.36.15-1.29,1.15-.29-.02,1.22ZM145.93,113.96l-3.31-.07,1.9-1.72,1.41,1.79ZM127.34,132.56l-1.24-.3,3.22-1.79.14,1.54-2.12.55ZM124.86,137.54l-2.01-1.15,1.81-.85.2,2ZM103.68,170.1l-1.08.03.42-1.55.66,1.52ZM104.53,180.8l.03,1.61-.89-3.52.86,1.91Z"/>
      <path id="ME" class="cls-1" d="M199.58,366.65l7.74,6.5-1.95.62.06,1.94-1.85.65-.9-1.39-2.52,4.15.41,2.75-5.55-5.11-.55-1.16.16-4.01,2.63-3.21,1.19.5-.52-2.17,1.65-.06Z"/>
      <path id="MK" class="cls-1" d="M220.79,377.84l4.45,5.19-.59,3.62-2.11,1.76-4.11.08-2.81,2.33-4.12.17-3.2-3.77.52-5.39,1.42-1.79,5.29-1.6,5.26-.6Z"/>
      <path id="MD" class="cls-1" d="M260.33,348.58l-.93-1.43,1.11-10.1-1.13-3.32-7.35-11.73-2.44-1.05,6.27-2.21,10.62,5.18.06,4.75,2.72,2.17.22,3.03,2.06,1.33,1.71,3.98-7.9-.35-.07,3.97-3.02,5.13-1.93.65Z"/>
      <path id="LV" class="cls-1" d="M254.53,217.07l3.21,2.93-1.27,5.54,1.41-.09,1.71,3.77.3,4.89-3.85,4.14-3.53-.38-3.09,1.95-6.27-5.25-3.99-1.15-1.55-2.56-4.85,1.79-13.71-1.73-7,4.07.17-9.18,4.43-9.28,5.56-1.93,4.94,7.93,2.43,1.47,4.95-3.46-.41-7.79,6.47-2.26,4.77,2.67,3.17,3.7,3.4-.81,2.6,1.02Z"/>
      <path id="LU" class="cls-1" d="M111.48,301.79l2.5,3.37-.97,3.59-3.73-.88-.31-3.97,1.56-2.59.95.48Z"/>
      <path id="LT" class="cls-1" d="M249.42,239.82l-.92,3.87,2.15.82-6.18,4.16-2.1,6.83,1.36,2.01-1.61-.03-.33-1.53-7.7,4.58-5.61-.53-.77-2.99-4.07-1.8.39-5.98-1.73-2.2-8.97-2.42-1.28-9.62,7-4.07,13.71,1.73,4.85-1.79,1.55,2.56,3.99,1.15,6.27,5.25ZM211.45,244.44l-.39-.09,1.45-3.92-1.06,4.01Z"/>
      <path id="LI" class="cls-1" d="M134.81,332.95l-.62-.05.27-2.06.35,2.11Z"/>
      <path id="KV" class="cls-1" d="M215.53,378.44l-5.29,1.6-1.42,1.79-.55-3.17-2.84-2.95-.06-1.94,1.95-.62,3.08-3.99,3.97,4.69,2.44.75-1.28,3.84Z"/>
      <path id="JE" class="cls-1" d="M56.68,311.04l-1.47.56.11-.92,1.36.36Z"/>
      <path id="IE" class="cls-1" d="M21.65,246.64l-2.24,3.8-2.43.81,1.06,1.2-2.45,2.09,3.44,3.12,1.9.12,2.14-3.15,2.41,4.01,2.91-.35-.88,1.69,2.16,11.46-2.94,6.45.94,1.08-3.81.96-.51-.99-7.36,4.64-2.36-.69v1.92s-5.98,2.32-5.98,2.32l-3.63.16,1.72-2.23-3.64.96,3.51-2.97-5,.82,2.91-3.54-3.01-.92,3.93-.47-.9-1.7,1.85-1.58,5.71-1.47-1.39-.84-1.25,1.34-4.99.72,4.16-5.88,2.49-1.23-7.83-2.31-.17-1.54,2.67-.63-1.22-1.4,2.18-.89-2.26-.66.39-2.65-1.6-.7.25-1.17,10.18.19-.53-1.22,3.3-3.4-4.24-.47,2.6-2.43.69-3.02,4.09-1.3.06,3.36,2.36-4.65,2.34,1.51-1.73,1.72ZM3.26,260.3l-2.14-.73,1.81-.3.33,1.03Z"/>
      <path id="IM" class="cls-1" d="M40.55,257.18l-2.51,1.29,2.43-3.84.08,2.55Z"/>
      <path id="HU" class="cls-1" d="M219.36,319.48l5.02,4.62-5.91,4.42-5.91,12.03-5.93,1.68-4.23-.58-4.77,2.3-3.69,1.72-3.71-.36-8.7-6.88-1.56-3.51-1.29-.06,2.43-1.41-.07-3.89,1.57-1.35-1.71-1.38,4.34-.33.55-2.99,4.14,2.36,6.48-.17.45-2.14,5.62-2.24,2.19.77,3.63-3.85,6.48-.25,1.82,2.08,2.76-.59Z"/>
      <path id="HR" class="cls-1" d="M181.53,338.43l8.7,6.88,3.71.36,3.69-1.72.67,5.12,2.66,1.78-2.27.72-.38,2.55-2.32-1.98h-5.72l-6.02-1.9-4.22,2.55-3.4-1.62-.35,3.93,3.8,6.04,6.56,6.32,2.1,4.68-4.6-4.19-6.18-1.18-5.39-6.08-.42-.79,2.34-.14-3.3-3.12-.85-4.53-2.05-2.07-1.6-.38-3.04,4.76-1.91-6.48,5.34.34,1.34-1.69,1.51,1.72,3.68.11-.42-2.55,2.52-1.25-.11-3.28,3.99-1.67.63-1.58,1.31.34ZM170.04,353.1l-2.42-.98.81-1.38,1.61,2.36ZM189.29,372.51l5.18,3.09.55,1.16-9.92-5.33,4.19,1.08ZM188.89,373.69l.92.63-2.7-.83,1.78.2Z"/>
      <path id="GR" class="cls-1" d="M247.58,383.24l2.05,2.83-3.95,6.01-6.29-2.38-9.04,2.2.7,2.91,3.21,2.39-4.14-1.61,1.47,3.2-3.51-2.62,1.36,2.99-4.92-4.19.17-1.68-1.97.84-.26,4.04,4.96,7.52-1.17.63.05-1.35-1.62-.43.98,2.33-3.35,1.47,4.61,1.78,5.19,4.47-.03,3.93-3.49-3.03-3.13,1.33,3.05,3.72-2.21.89-2.94-1.76,2.93,9.2-2.98-2.89-1.95,2.66-2.34-4.64-1.27,2.45-2.08-2.88.64-2.59-3.73-4.27,1.88-2.61,2.84-1.12,7.38,3.16,1.54-1.86-4.9-2.25-6.4,1.01-.95-1.43-1,1.22-2.79-4.55,2.31-.19.05-1.15-2.73-.04-4.8-5.86,1.66.27.43-2.64,2.33-1.21,2.52-4.45-.45-2.02,4.12-.17,2.81-2.33,4.11-.08,2.11-1.76,10.59-1.96,5.14,2.79,4.53-.61,1.42-.66-.33-2.86,1.58-.11ZM237.16,393.07l-1.74-.28.73-1.29,1.01,1.57ZM241.63,398.64l-.54,1.53-1.99-.38-.02-1.29,2.55.14ZM205.53,403.45l-2.91-2.92,1.88-.06,1.03,2.98ZM248.18,404.34l1.25,2.44-.85.65-2.43-.93,1.11-1.01-1.35.88-1.54-.9,3.81-1.13ZM228.01,407.56l4.8,2.67,2.75,5.72-3.34-3.5-7.88-4.13,3.67-.76ZM209.63,410.57l-.89.23.94-2.26-.05,2.03ZM246.06,413.92l-1.37-.22-.31-2.83,2.12.29-.44,2.76ZM209.13,412.51l1,2.67-2.75-.93,1.75-1.74ZM210.99,417.44l.71.83-1.18.36-1.34-1.61,1.81.42ZM250.98,417.39l1.55.87-3.19-.13,1.64-.74ZM242.36,424.52l-1.24-.86,1.1-1.07.14,1.93ZM257.84,433.19l-.86-2.01,3.48-2.19-2.62,4.2ZM230.95,436.45l2.12-.5,1.26,1.95,9.27.09.42,1.85,3.56-1.58-1.04,2.44-9.2.69-2.27-1.85-5.86-.8-.16-2.29,1.13-.99.77.99Z"/>
      <path id="GG" class="cls-1" d="M53.35,308.32l-.24.68-.61-.23.85-.45Z"/>
      <path id="GE" class="cls-1" d="M383.05,381.67l-1.67,2.11,3.3,3.32-.93,1.77-8.44-3.23-1.89,1.42-10.52,1.64-4.62-4.22-1.93,1.25-6.45-.7,1.71-4.07-1.85-6.27-10.17-6.99,1.15-1.39,3.36.33,6.28,2.91,7.95.46,6.88,3.88.3,1.6,4.58-1.62,1.78,1.21.68-1.28,5.62,2.36-.45,2.67,5.33,2.84Z"/>
      <path id="FR" class="cls-1" d="M109.28,307.87l3.73.88,2.64,3.02,4.81.08,4.61,1.84-3.49,8.3v5.65l-1.84,1.59-2.52-.2-6.73,12.17,1.55.22,1.54-2.32,2.22.15,1.77,4.75-1.55,1.79,2.39,3.45-3.44,2.99,2.41,2.29-.62,4.64,2.81,1.85,2.15-.25-.97,3.71-9.28,6.43-7.11-3.43-2.34.66-5.4-1.76-5.79,5.98,1.08,4.42-7.94.71-2.2-1.37-1.87-.84-4.93-2.28-.44,1.42-8.21-1-5.89-2.32.34-1.73-2.58-1.55,2.08-1.45,2.75-10.54-1.13.22,1.1-8.25,3.59,5.08-1.63-4.46-2.73-2.37,1.1-.25-.77-5.53-4.31-1.98-1.84-2.89-.93-3.48,1.15-1.1,1.92.58-1.57-.94-3.56-.02.51-1.57-2.31-.43-.11-1.11-10.27-1.98-2.47-2.17,2.35-1.32-1.67-1.21,2.26-.14-3.22-.6v-1.79s10.03-3.07,10.03-3.07l3.63,3.1,1.66-1.13,2.98.67.66-1.17,3.56.45-3.23-10.6,4.03.03.8,3.03,6.57.94,3.91-1.56-1.93-.62.38-2.02,7.13-3.08,2.34-2.67.54-6.7,5.74-2.27,1.58,3.7,2.34-.3,3.93,5.01,3.27.62-.17,2.89,2.66.11,1.84-2.02.33,3.82,4.31,2.88,1.91-.28ZM62.34,344.21l-.24.85-1.18-2.26,1.42,1.41ZM134.14,373.35l.47,6.16-2.45,6.71-2.55-1.83-1.63-6.95,1.67-2.28,3.36-.96.34-2.79.79,1.94Z"/>
      <path id="FO" class="cls-1" d="M27.12,153.44l-.93.77-.07-2.18,1,1.41ZM25.6,153.88l-.16,1.94-1.25-.37.78,2.41-3.01-4.81,3.64.83ZM21.86,155.16l.47,1.33-1.77-.4-.29-.94h1.59Z"/>
      <path id="FI" class="cls-1" d="M265.4,42.27l-3.72,2.21,2.42,1.2-1.98,5.61.55,3.41.84,2.94,4.44,2.32,4.34,7.04-6.21,13.55,6.88,18.55.05,1.72-2.56.94-.72,6.09,1.47,1.66-1.5,2.82,3.41,3.74-.83,3.28,3.37,4.48.26,2.46-3.6,5.24,8.01,7.95,2.38,4.79-4.03,8.23-21.14,25.18-2.26.97-1.73-1.07-4.52,1.78.24-2.89-1.29,2.74-2.84-.69.53,1.81-1.87,1.01-.68-.89-8.16,4.22-6.61.47-2.98,2.29,1.19-2.77-1.93-2.54-1.09,2.07-1.94.37.83-4.76-7.74-2.95-.51-5.12,1.65-8.74-2.36-5.68.59-4.14-1.61-5.03,2.49-6.06,1.19-.09-.71-2.45,5.22-1.59v-2.92s8.62-8.18,8.62-8.18l6.46-11.86,4.92-.94.57-2.37-.17-7.56-4.53-3.12-.32-3.09-3.18.89-3.07-7.42,1.94-9.44-2.34-5.49.62-5.12-1.87-.66,1.24-8.78-5.29-7.48-5.77-2.81-9.27-9.61,2.99-.09v-3.26l3.56-1.14,5.5,10.42,6.15,1.31,3.58-2.91,7.32,3.94,5.44-7.39,2.18-13.4,3.05-4.37,4.06.17,4.18-3.12,9.38,7.71,1.3,3.83-3.28,5.65.8,2.93ZM237.66,111.97l-1.81.2-.02-1.02,2.66-.2-.83,1.02ZM213.21,138.98l1.33.66-1.09.68-1.15-1.88.91.54ZM214.78,177.77l-1.02.68-.51-1.93,1.53,1.25ZM219.66,179.94l1.61.91-.37,1.87-1.9-1.64.66-1.14ZM217.35,183.06l-.93.35.47-1.14.46.79Z"/>
      <path id="EE" class="cls-1" d="M258.98,191.85l.93,1.45-4.83,7.7.46,7.29,1.86,4.46-2.87,4.32-2.6-1.02-3.4.81-3.17-3.7-4.77-2.67-6.47,2.26,1.39-6.16-2.79,1.13-2.34-1.22-1.74-3.83,1.16-1.67-1.68-1.74.42-3.6,3.97-1.27,2-2.39,7.16-.64.45-1.57,9.87,2.51,6.18.48.81-.93ZM224.7,200.48l-2.57,1.78-.89-2.25-2.39-1.05,4-1.87,1.75,1.25.1,2.14ZM227.53,204.07l-1.58-1.41,1.5.14.08,1.27ZM222.63,203.15l4.76,2.2-6.41,2.99-2.53,3.64,1.29-2.83-2.06-1.38-.13-3.02,5.08-1.6Z"/>
      <path id="ES" class="cls-1" d="M58.19,367.81l2.58,1.55-.34,1.73,5.89,2.32,8.21,1,.44-1.42,4.93,2.28.13,1.44,1.74-.6,2.2,1.37,7.94-.71.24,4.42-1.63,1.59-15.43,8.45,1.19.89-1.99.96-6.22,9.61.82,3.97,2.74,2.62-4.86,3.79-1.98,4.67.62,1.18-6.19,2.07-3.17,5.13-15.19.49-5.42,2.47-3.06,3.31-2.8-1.35-2.31-3.75,1.12-2.32-1.2.69-3.15-3.76-3.66.84-.25-4.65,3.27-3.91-2.59-2.31,2.32-5.16-3.62-5.26,3.77-1.19-.38-3.24,1.5-1.54-.8-5.91,4.82-4.67-2.22-1.26-.51-2.44-10.34,1.18-.76-2.94-3.44,1.78.31-4.27-.54-2.09-1.5.43.72-1.87-2.08-1.64.39-1.81,9.97-5.47,4.29,1.96,8.18-.85,8.91,2.13,6.19-.97,3.77,1.37,8.43-.33ZM99.2,399.88l-2.97-1.94,2.51.27.46,1.67ZM91.46,400.33l2.13.81-2.62,3.45-4.73-2.36,5.31-3.48-.09,1.58ZM80.01,407.9l-1.5.13,2.3-1.88-.8,1.75Z"/>
      <path id="GB" class="cls-1" d="M63.1,295.78l-1.26,1.08-2.1-.82,1.69-1.14,1.67.88ZM42,267.02l1,.17-2.19,1.93-1.31-2.84,2.5.74ZM28.39,258.29l-2.91.35-2.41-4.01-2.14,3.15-1.9-.12-3.44-3.12,2.45-2.09-1.06-1.2,2.43-.81,2.24-3.8,5-1.76,2.96,1.14,2.15,3.84-1.09,2.05,2-.26.75,1.9-1.35-.58.43,3.21-2.77,2.54-1.34-.43ZM35.88,242.42l-1.52-.38.09-2.72,1.43,3.1ZM28.99,236.67l.49,2.82-1.68,1.05.13-1.97-1.38.9.19-1.33,2.25-1.47ZM30.06,238.06l-.69-.94,2.34-2.71-1.65,3.65ZM31.35,231.67l-3.61.62,1.18-2.4-.99-1.48,3.54,1.48-.12,1.78ZM21.44,222.21l-1.09-3.3.97.11.12,3.19ZM28.88,217.36l.06,2.38,3.12.77-1.86,2.57-.58-1.93-1.94-.02-2.95-2.99,2.72-2.82,1.43,2.04ZM21.73,215.12l.16,1.88-2.24-.86,2.08-1.02ZM28.52,206.47l-2.4,3.46.87.91-3.76,3.44-.67-.81,1.52-1.39-1.54-3.29,2.42-.09-.34-1.44,3.64-2.58.26,1.79ZM49.33,204.51l-.7,2.5-5.23,4.62-.31,1.36,1.2.42-1.87,3.03,4.93-1.64,8.95.08,1.98,2.86-5.47,11.29-4.83,2.41,2.86-.41,1.42,1.75-4.64,2.72-2.87-.81,4.99,1.73,3.02-.91,6.36,5.47,2.85,10.2,7.74,6.78-.82,1.1,2.16,4.7-2.6-1.45-2.62.15,2.47.36,3.8,4.04.57,1.97-2.09,2.85,1.58,1.08,1.88-1.77,3.34.09,4.05,2.29-.44,7-2.41,1.62-.3,1.83-2.94.8.94,1.72-3.15,1.14,6.68,1.1-.12,1.95-2.95,2.75-5.09,1.73-10.92-1.43-.67,1.6-3.47.23-.03,1.3-6.49-1.21-2.73.9-1.85,4.14-3.47-1.61-3.6,1.08-2.63,2.65-3.39-.13,9.66-12.07,7.09-.17,4.73-5.79-5.79,3.79-4.03-2.17-2.31.24.96-.98-1.98-.88-3.48,1.24-1.79-1.24-.1-2.27,6.5-3.6,1.6-2.91-.82-4.15-3.91,1.22,2.79-3.79,3.4-1.83,4.49.53.22-1.87,2.12,1.31-2.12-2.29,1.47-7.09-2.15.08-2.87-5.04.85-2.42,2.89-2.11-3.46.07-2.75,1.94-5.79-.76-.63,1.83-.82-.84-.94-2.62,3.34-6.09-1.31-4.45,1.93-.77-1.75-1.36.3-1.29-2.89,3.27.97-3.75-2.19,2.44-.99,7.24-1.17.65,1.32-10.97,2.33-6.19-3.12,2.77-3.25-2.14,2.72-1.8-.88-.61,2.02-4.08-1.57-1.82,1.43-2.11-1.1-1.52.92-2.69h3.04l-1.72-2.4.5-2.15,2.23-.31-.06-3.9,3.93.69,7.91-1.77,1.39.19-.38,1.54ZM49.68,197.84l1.78,1.6-3.63-.84.14-2.09,1.71,1.33ZM61.46,177.66l1.72,1.27-1.66,7.66.06-3.7-2.51-1.75,1.94-.69-1.32-2.2,1.4-1.58.37.99Z"/>
      <path id="DK" class="cls-1" d="M135.89,249.76l-7.21-.91-.37-6.06-3.25-2.16.21-12.16,3.42,1.36,1.46-2.93,1.2-.72.87,1.13.4-3.81-1.77-.06-1.48,3.58-2.05.75-1.24-2.31,2.25-3.2,5.49-.78,3.56-5.08,4.37-1.96-2.21,13.87,4.34,2.16-1.17,2.45-2.92.35-.92,4.19-1.88.27.81.97-2.92,3.2.54,2.68-1.46,2.68,1.88.84.05,1.66ZM144.73,220.51l-1.21-.12,2.03-.76-.82.88ZM154.94,238.42l-2.38,3.79,1.33,2.14-2.17,1.16-.27,4.37-1.27.5-1.4-4.86-2.48-.2-2.07-6.14,2.32-.37,2.05-2.45,1.3,3.1.31-3.24,2.38-1.81,2.42.66-.07,3.35ZM155.6,240.67l-.78.48.33-1.48.45,1ZM141.98,240.51l.95,5.64-2.31,1-3.06-1.35-.86-4.17,5.28-1.12ZM171.91,247.46l-2.72-.94.55-2.29,2.47,1.79-.3,1.44ZM142.58,250.64l-.75-1.18,2.22-3.58-1.47,4.76ZM138.05,249.05l-1.72-.23-.17-1.91,1.89,2.14ZM154.81,248.12l-2.9.6,1.05-1.75,1.85,1.15ZM146.81,248.99l2.55.99.17,1.49-2.07.59-2.85-1.68.16-1.96,2.04.57Z"/>
      <path id="DE" class="cls-1" d="M166.01,259.88v.91s-1.93-.1-1.93-.1l-.66-2.84,2.59,2.03ZM162.63,254.91l-.02,1.17-3.48-.51.99-4.31,2.16,1.6.35,2.05ZM135.89,249.76l1.9,1.77-1.04,2.34,5.82,1.81,1.9-.73-1.07,4.25,3.67.74,7.92-6.01,3.05.65,2.83,3.11,1.86-.14.95,3.44,2.65,1.41,1.02,5.99-1.9,3.59,3.31,3.89.89,4.91-1.01,2.72,2.79,6.27-1.39,4.22-3.3-1.91.33,1.48-9.61,5.23-2.65.14-1.83,2.23-1.26-1.27,2.84,4.26-.82,1.63,1.96,3.37,7.64,6.65-.62,2.29-1.59-.41-.76,2.24-4.14,2.57,1.71,6.29-5.42-2.39-7.86,3.24-4.06-1.58-1.73,2.71-1.42-2.25-3.02-.19-6.41-2.5-.8,1.79-5.64.03v-5.65l3.49-8.3-4.61-1.84-4.81-.08-2.64-3.02.97-3.59-2.5-3.37,1.67-2.05-2.4-4.6.45-1.76-1.47-1.22,1.84-1.25.46-3.26-1.68-3.82,5.73-1.8-.51-1.23,2.1-3.3-1.93-.92-.26-1.7,2.17-.37,1.11-7.05-.83-2.21,1.42-2.31,4.88-.1.67,2.53,1.51-1.57,1.09,2.4.83-5.46,3.96.22,3.89,3.42-3.18-3.46-2.25-.77-.48-3.83-1.76-.4,2.1-2.81-1.93-4.26,7.21.91ZM126.24,250.21l.97-3.14-.49,1.82,1.69.1-2.17,1.22Z"/>
      <path id="CZ" class="cls-1" d="M170.04,293.99l1.24-1.66,6.83,4.29,1.85-.47.92.87-1.41,1.59,2.89,3.38,2.36-1.42-.73-2,3.6,1.82,1.93-.56-.5,2.01,6.3,2.48,1.82,3.83-4.53,2.62-2.71,3.79-4.19.48-1.23,2.47-2.76-2.01-3.28.42-6.67-2.48-2.53,4.07-4.32-.04-1.58-1.67-7.64-6.65-1.96-3.37.82-1.63-2.84-4.26,1.26,1.27,1.83-2.23,2.65-.14,9.61-5.23-.33-1.48,3.3,1.91Z"/>
      <path id="CH" class="cls-1" d="M134.43,328.32l.03,2.52-.27,2.06.62.05,3.73,2.03,1.45-1.31.7,1.18-.15,3.09-2.32-.49.28,3.53-5.85-2.31-1.59,6.11-3.81-3.88-.24-1.95-4.27,5.09-5.17-.04-1.77-4.75-2.22-.15-1.54,2.32-1.55-.22,6.73-12.17,2.52.2,1.84-1.59,5.64-.03.8-1.79,6.41,2.5Z"/>
      <path id="BY" class="cls-1" d="M259.89,234.11l4.36,2.42,1.59-.95,2.32.99.72,3.05,5.06-1.92,4.54,3.28-.65,3.13,1.12,3.02-1.2,3.13,2.38,1.84-.52,1.55,2.21,3.41,2.85,1.9-.49,2.52,4.69,1.33,1.73,3.1-3.8,3.69-4.88-1.17-1.07,2.01,2.06,2.87,1.34,7.26-4.61.26-2.18,1.99-1.42,6.82-2.59-2.29-5.48,1.03-1.65-2.65-2.5,2.1-3.69-1.89-3.26,1.41-3.76-2.97-9.13-1.87-9.59.61-5.1,3.8.32-5.69-3.22-2.7,4.99-5.34-2.9-13.19,5.61.53,7.7-4.58.33,1.53,1.61.03-1.36-2.01,2.1-6.83,6.18-4.16-2.15-.82.92-3.87,3.09-1.95,3.53.38,3.85-4.14Z"/>
      <path id="BA" class="cls-1" d="M198.31,354.12l2.3-.11-1.55,4.92,3.14,2.97-2.28.73,1.68,3-2.02,1.02-1.65.06.52,2.17-1.19-.5-2.63,3.21-.16,4.01-5.18-3.09-.55-.37-2.1-4.68-6.56-6.32-3.8-6.04.35-3.93,3.4,1.62,4.22-2.55,6.02,1.9h5.72l2.32,1.98Z"/>
      <path id="BG" class="cls-1" d="M262.84,364.71l-.81,3.27-2.23-.06-1.65,5.94-2.73,2.58,3.57,4.52-3.23.44-1.96-1.56-4.23,1.16-1.99,2.24-1.58.11.33,2.86-1.42.66-4.53.61-5.14-2.79-10.59,1.96.59-3.62-4.45-5.19,1.21-1.16-.38-3.67,3.44-3.17-4.09-5.5,2.26-4.26,2.17,1.49-.73,2.28,17.36,1.52,4.85-3.14,5.86-1.49,10.1,3.97Z"/>
      <path id="BE" class="cls-1" d="M109.15,291.84l-.16.73-.84,1.67,2.6.9,2.4,4.6-1.67,2.05-.95-.48-1.56,2.59.31,3.97-1.91.28-4.31-2.88-.33-3.82-1.84,2.02-2.66-.11.17-2.89-3.27-.62-3.93-5.01-2.34.3-1.58-3.7,5.56-3.01.56,1.42,3.16.41,2.18-1.93,5.42-.89,4.99,4.4Z"/>
      <path id="AZ" class="cls-1" d="M397.48,382.09l5.96,9.35,6.12,4.6-5.49.75-1.27,7.38-3.42,4.42.1,3.47-1.86.21-4.02-3.81,1.99-1.42-1.26-1.93,1.46-1.37-2.19-2.48-10.14,6.75-.07-5.63-6.07-3.69,2.06-.42.53-1.83-3.43-2.63.89-2.79-3.48-2.04.79-.64-1.26-1.28,1.89-1.42,8.44,3.23.93-1.77-3.3-3.32,1.67-2.11,2.15.71,3.83,4.76,3.19.74,5.26-5.79ZM380.92,408.25l-4.27-1.11-4.47-5.59-.33-.46,1.78-.54.95,1.7,4.12.21,2.22,5.79Z"/>
      <path id="AT" class="cls-1" d="M184.48,317.51l-.59,2.15,1.9,3.85-.55,2.99-4.34.33,1.71,1.38-1.57,1.35.07,3.89-2.43,1.41-.91,1.83-7.17.7-2.31,2.01-5.73-1.17-8.83-1.79-1.48-3.73-6.23,1.05-1.69,1.95-3.64-.86-.7-1.18-1.45,1.31-3.73-2.03-.35-2.11-.03-2.52,3.02.19,1.42,2.25,1.73-2.71,4.06,1.58,7.86-3.24,5.42,2.39-1.71-6.29,4.14-2.57.76-2.24,1.59.41.62-2.29,1.58,1.67,4.32.04,2.53-4.07,6.67,2.48,3.28-.42,2.76,2.01Z"/>
      <path id="AM" class="cls-1" d="M383.46,408.01l-2.54.24-2.22-5.79-4.12-.21-.95-1.7-1.78.54-3.22-2.95-4.2-.76-.65-3.13,1.03-2.1-1.91-3.45,10.52-1.64,1.26,1.28-.79.64,3.48,2.04-.89,2.79,3.43,2.63-.53,1.83-2.06.42,6.07,3.69.07,5.63Z"/>
      <path id="AX" class="cls-1" d="M204.93,180.2l1.82,1.22-3.1,2.44-.76-2.52,1.09.64-.17-2.31,1.12.53ZM202.73,182.43l-.85.57.1-1.34.75.77Z"/>
      <path id="AL" class="cls-1" d="M205.43,375.71l2.84,2.95.55,3.17-.52,5.39,3.2,3.77.45,2.02-2.52,4.45-2.33,1.21-.43,2.64-1.66-.27-1.01-2.93-3.56-3.2.92.02-.82-2.29,1.6-8.71-1.57-2.06-.41-2.75,2.52-4.15.9,1.39,1.85-.65Z"/>
      <path id="IT" class="cls-1" d="M175.2,413.9l-3.21,6.48,1.32,3.4-1.23,3.09-4.11-.93-1.64-2.08-10.91-4.63-1.37-1.91,2.01-3.1,1.13,1.27,2.62-1.34,3.35,1.79,12.04-2.04ZM135.16,390.71l1.17,3.38-1.64,11.67-3.41-.63-.6,2.38-2.15.32-1.55-2.41.88-5.52-2.18-9.47,2.34.56,4.42-3.63,2.72,3.35ZM140.3,372.87l.16,1.33-1.94-.27,1.78-1.06ZM162.56,338.23l-2.16,2.52,1.71.82-1.03,1.63,2.66,3.8-1.04.26-.62-1.76h-2.84s-6.28,3.12-6.28,3.12l-.33,1.96,2.01,2.6-1.86,2.33,1,4.7,7.87,6.08,3,8.12,3.58,4.06,4.23,2.81,6.71.34-1.78,3.46,13.84,7.64,3.4,3.83-.78,3.51-3.23-4.03-6.31-1.57-2.74,6.24,4,3.2.4,3.32-3.76,1.7-.48,3.37-3.29,3.99-2.77-.79,3.8-7.78-3.48-9.13-5-2.19-1.25-3.79-2.87.62.82-1.15-2.81-.74-2.09-3.78-4.35-.07-9.77-9.4-3.6-1.18.44-1.08-4.4-3.95-2.2-9.08-9.59-4.45-5.12,5.11-3.45,1.02.97-3.71-2.15.25-2.81-1.85.62-4.64-2.41-2.29,3.44-2.99-2.39-3.45,1.55-1.79,5.17.04,4.27-5.09.24,1.95,3.81,3.88,1.59-6.11,5.85,2.31-.28-3.53,2.32.49.15-3.09,3.64.86,1.69-1.95,6.23-1.05,1.48,3.73,8.83,1.79Z"/>
      <path id="KZ" class="cls-1" d="M408.34,354.26l-1.28-.78.78-1.38.5,2.16ZM401.92,340.01l-4.65-2.62.12-1.48,2.7-.17-5.34-9.26-5.89-.32-1.54-4.94-2.72-1.81.28-4,2.22-3.54-1.55-2.23.59-3.42,4.14-7.39,5.6,5.71,2.86-.73-.91-7.2,4.71-2.54,1.17-2.48,5.05-2.21,3.68-4.75,3.71,2.75,5.9-2.54,2.37,2.47h5.16s5.4,4.74,5.4,4.74l2.8,5.37.58-5.06,7.04,4.56,5.43-4.65,3.5-.48,2.9,1.88,2.67-2.17,3.51.3,3.53,3.94,3.83.78.48,1.35,3.61-3.79,3.03,1.93,4.84-1.13,2.2-5.88-7.34-3.53-2.69-3.54,6.26-3.95-1.48-3.75,1.84-3.3,6.97-.37-2.85-2.5-3.1-.66.2-1.79,2.06-.87-3.74-1.12,1.69-4.53,4.7.83,17.06-5.03,4.23.51,2.62-3.28,18.04-4.13.34-2.16,5.2-2.7,8.11,2.68,3.75-1.68,3.01,8.27-.62,4.47,6.14.08,1.22-1.38,1.76,4.41,1.18-2.21,4.09,2.02,2.94-1.21-2.43,4.07.69,2.94,3.04-1.95,3.32,1.5,7.31-6.86,9.43-4.06-1.23,3.42-1.56-.07.42,1.48,9.26,8.55,14.33,27.29,2.94-1.83.17-2.54,1.93-1.18,2.64,1.1-.37,2.38,2.13.13.53,2.31,6.92.13,5.82-2.85,3.96,2.35,2.54,5.66,4.49,1.87,1.64,4.64,6.39,1.21,3.33-2.89-.33,2.23,4.69,4.93-3.47.37-1.74,5.32-5.39,1.45-1.5,4.73.88,6.59-1.16,1.89-4.71,2.3-.8-1.4-11.03-2.11-4.81,15.51,1.99,1.64-.6,2.85-3.89-.33-1.7-1.8-12.26,4.43,4.1,1.6-.85,5.81,2.9,8.69-2.66,1.09,1,1.56-2.27,1.27.05,4.96-1.94-2.02-3.32-.64-2.03-2.67-14.41-1.82-10.93,1.26-7.79-3.71-4.4,2.18-.42,5.43-8.2-3.18-6.87.22-2.09,4.42-12.67,7.95-3.84,6.75-3.02-1.78-.75-3.45-8.26.16-1.42-7.33-3.3-.09.62-8.99-2.01,1.05-6.04-7.74-3.12,1.52-8.32-.71-8.2,1.26-6.62-8.42-16.52-11.04-17.38,5.36v33.85s-3.65.23-3.65.23l-3.91-6.01-4.93-3.35-7.18,1.7-3.78,3.32.69-8.9-4.71-1-1.9-2.66-2.16-.14.05-2.85-3.18-6.62-3.89-2.53,1.05-1.53,7.64.88-3.59-3.7,2.73-4.15,12.03.24-2.88-2.3,2.44-5.98-.45-6.49-3.95-1.33-2.32,1.6-6.47-2.78-12.33,5.81-.78,1.77Z"/>
      <path id="AD" class="cls-1" d="M82.48,375.28l-.19.06-.62.37-.35.13-.32.06-.25-.03-.14-.21v-.34s-.05-.3-.05-.3l-.04-.16.09-.43.2-.23.29-.2.45.08.95.27.2.26v.18s-.17.28-.17.28l-.05.21Z"/>
      <path id="MT" class="cls-1" d="M167.3,431.46l-.4.13-.4-.25-.1-.15.56-.13.28.11.11.22-.05.07ZM169,432.91l-.22.27h-.65s-.57-.43-.57-.43v-.88l.65.17.59.59.2.28Z"/>
      <path id="MC" class="cls-1" d="M121.05,363.81l-.41.17v-.2s.11-.11.11-.11l.13-.06.15.09.02.11Z"/>
      <path id="SM" class="cls-1" d="M154.41,362.09l.29-.44.42-.07.08.34-.2.48-.4.07-.19-.38Z"/>
      <path id="GI" class="cls-1" d="M34.33,431.25l-.02.42-.12-.28.14-.14h0Z"/>
      <path id="VA" class="cls-1" d="M154.69,380.76h-.06l-.02-.03.02-.04h.05v.07Z"/>
    </g>
    <g id="RU">
      <polygon class="cls-1" points="213.58 244.7 222.55 247.12 224.28 249.32 223.89 255.3 202.59 254.11 205.08 248.73 208.76 247.87 211.31 244.44 211.7 244.53 209.26 248.02 211.96 248.95 213.26 248.57 213.58 244.7"/>
      <polygon class="cls-1" points="475.15 282.02 477.84 285.56 485.18 289.09 482.98 294.97 478.14 296.1 475.11 294.17 471.5 297.96 471.02 296.61 467.19 295.83 463.66 291.89 460.15 291.59 457.48 293.76 454.58 291.88 451.08 292.36 445.65 297.01 438.61 292.45 438.03 297.51 435.23 292.14 429.83 287.39 424.67 287.4 422.3 284.93 416.4 287.47 412.69 284.72 409.01 289.47 403.96 291.68 402.79 294.16 398.08 296.7 398.99 303.9 396.13 304.63 390.53 298.92 386.39 306.31 385.8 309.73 387.35 311.96 385.13 315.5 384.85 319.5 387.57 321.31 389.11 326.25 395 326.57 400.34 335.83 397.64 336 397.52 337.48 402.17 340.1 398.48 342.54 398.79 344.37 397.15 344.01 391.4 347.39 390.26 346.47 389.5 350.89 385.17 357.67 389.21 361.43 390.25 366.54 391.49 363.47 390.26 371.34 397.73 382.18 392.47 387.97 389.28 387.23 385.45 382.47 383.3 381.76 377.97 378.92 378.42 376.25 372.8 373.89 372.12 375.17 370.34 373.96 365.76 375.58 365.46 373.98 358.58 370.1 350.63 369.64 344.35 366.73 340.99 366.4 339.84 367.79 331.34 359.69 317.26 351.53 319.38 350.21 317.89 349.42 318.87 348.89 321.21 350.37 324.13 349.37 326.06 343.36 329.83 342.5 324.94 337.18 329.88 336.91 329.46 335.45 335.22 332.57 333.41 330.92 327.95 332.71 328.99 327.56 332.57 325.11 338.49 324.78 339.7 320.95 337.59 317.68 338.59 315.47 340.01 315.33 337.87 313.42 340.71 310.92 340.53 307.56 328.25 302.6 326.83 303.99 322.62 298.82 317.21 300.95 313.82 298.86 310.28 299.28 308.55 292.35 306.73 290.39 301 289.84 300.38 285.26 302.24 284.16 297.78 277.98 289.02 278.4 286.91 281.21 284.5 280.66 283.16 273.4 281.1 270.53 282.17 268.52 287.05 269.69 290.85 266 289.12 262.9 284.43 261.57 284.92 259.05 282.07 257.15 279.86 253.74 280.38 252.19 278 250.35 279.2 247.22 278.08 244.2 278.73 241.07 274.19 237.79 269.13 239.71 268.41 236.66 266.09 235.67 264.5 236.62 260.14 234.2 259.84 229.31 258.13 225.54 256.72 225.63 257.99 220.09 254.78 217.16 257.65 212.84 255.79 208.38 255.33 201.09 260.16 193.39 259.23 191.94 259.54 187.98 261.4 189.17 262.64 187.07 265.53 187.35 266.87 185.05 273.44 186.75 273.78 185.62 270.74 182.41 266.35 182.46 263.48 179.96 262.6 175.83 257.78 177.77 278.92 152.59 282.95 144.36 280.57 139.57 272.56 131.62 276.16 126.38 275.9 123.92 272.53 119.44 273.36 116.16 269.95 112.42 271.45 109.6 269.98 107.94 270.7 101.85 273.26 100.91 273.21 99.19 266.33 80.64 272.54 67.09 268.2 60.05 263.76 57.73 262.92 54.79 262.37 51.38 264.35 45.77 261.93 44.57 265.65 42.36 268.5 37.13 273.21 34.55 273.83 30.64 278.42 32.52 278.48 27.77 283.04 29.45 284.67 27.14 286.08 27.25 285.99 24.44 292.43 28.38 292.25 31.3 286.71 30.7 288.63 33.66 292.83 33.84 292.68 35.81 295.89 34.64 293.78 41.48 297.44 36.9 306.36 38.59 308.25 37.56 312.08 39.15 324.69 48.52 329.41 54.72 332.11 55.28 337.08 59.87 338.79 60.11 338.7 58.44 342.55 64.18 346.49 66.28 347.62 74.14 349.14 75.14 347.99 81.76 340.68 90.67 330.91 94.53 309.76 89.06 305.12 85.43 302.81 86.46 302.61 84.74 293.84 81.46 291.8 78.4 292.36 77.27 285.39 75.98 289.47 78.71 289.21 80.21 291.9 83.55 294.04 84.26 294.29 86.77 297.25 88.28 295.26 90.18 300.32 91.92 304.22 96.47 304.8 99.49 302.3 105.56 306.54 120.75 310.66 121.72 315.49 127.53 322.75 130.43 326.29 128.35 326.93 126.17 326.2 122.62 321.01 121.25 316.93 115.24 316.64 112.9 318.33 112.13 318.98 109.16 320.72 108.81 326.57 113.85 338.35 118.61 340.37 115.56 342.98 115.43 338.62 106.31 338.75 102.28 344.64 96.28 349.92 93.62 354.87 86.98 357.51 88.61 361.76 88.73 364.59 91.49 363.84 93.62 365.88 93.31 367.63 95.53 367.58 91.76 370.22 84.39 369.82 79.85 368.89 77.05 365.46 74.36 368.45 61.24 368.31 56.57 362.44 48.87 367.25 51.17 374.19 50.63 379.67 52.44 385.01 61.69 385.05 63.87 377.23 65.5 373.01 71.59 377.45 75.56 379.63 80.65 383.72 82.2 391.56 79.19 393.03 68.58 399.49 66.85 398.95 63.03 401.66 63.49 412.06 55.41 420.78 51.36 422.74 52.81 422.06 54.37 423.49 54.79 425.69 52.36 423.14 50.08 432.96 42.85 437.6 42.92 432.93 44.51 434.09 45.69 432.67 49.6 433.83 53.25 429.31 56.32 434.08 57.05 437.5 55.84 440.1 57.52 440.51 54.38 443.84 50.82 448.06 49.32 455.36 51.07 462.4 44.84 462.83 45.88 463.62 44.34 468.36 42.66 470.47 47.66 468.73 49.92 468.64 53.09 472.86 54.79 474.19 52.6 474.01 48.26 478.01 47.84 481 43.02 475.86 31.51 480.84 26.53 497.36 29.87 502.94 32.59 507.91 36.61 507.69 38.09 521.88 45.14 527.76 52.5 530.42 73.81 525.53 83.53 507.05 100.34 495.47 113.42 482.91 123.21 475.14 192.52 466.62 213.07 461.42 219.64 460.08 225.47 465.14 229.69 465.89 234.87 461.9 241.31 448.33 243.72 458.68 259.59 467.67 253.28 472.21 255.85 473.92 260.07 468.01 268.7 468.23 275.09 472.74 276.69 475.15 282.02"/>
    </g>
  </g>
</svg>