<?xml version="1.0" encoding="UTF-8"?>
<svg id="Layer_2" data-name="Layer 2" xmlns="http://www.w3.org/2000/svg" viewBox="0 0 328.14 433.79">
  <defs>
    <style>
      .cls-1 {
        fill: #ccc;
        stroke: #fff;
        stroke-width: .5px;
      }
    </style>
  </defs>
  <g id="Layer_1-2" data-name="Layer 1">
    <g>
      <path id="BS" class="cls-1" d="M258.11,385.32l-.69.15-.71-1.76-1.05-.89.61-1.95.84.12.98,2.55.02,1.78ZM257.31,376.63l-3.06.5-.2-1.15,1.32-.25,1.85.09.09.81ZM259.61,376.6l-.48,2.21-.52-.4.05-1.62-1.26-1.23v-.36s2.21,1.4,2.21,1.4Z"/>
      <path id="BZ" class="cls-1" d="M225.56,403.08l-.02-.43.34-.14.51.35,1-1.77.53-.04v.43s.54.01.54.01l-.04.8-.46,1.27.25.45-.29,1.05.17.27-.32,1.48-.55.77-.51.09-.55,1h-.84l.22-3.28.02-2.31Z"/>
      <path id="CA" class="cls-1" d="M199.18,86.35l-.22-5.9,3.63.58,1.63.96,3.35,4.93-.76,4.97-4.15,2.77-2.28-3.12-1.2-5.19ZM212.39,99l.33-1.49-1.97-2.45-5.65-.19.75,3.68,5.25.83,1.29-.38ZM248.74,145.95l3.09,5.1.81.57,3.07-1.27,3.02.2,2.98.28-.25-2.64-4.83-5.38-6.42-1.08-1.35.67-.12,3.55ZM183.31,83.25l-2.71,4.19,6.24.52,4.62,4.44,4.58,1.5-1.09-5.68-2.14-6.73-7.58-5.35-5.5-2.04.2,5.69,3.38,3.46ZM209.21,73.02l5.13-.12-2.22,4-.04,5.3,3.01,5.76,5.81,1.77,4.96-.99,5.18-10.73,3.85-4.45-3.38-4.97-2.21-10.65-4.6-3.19-4.72-3.68-3.58-9.56-6.52.94,1.23,4.15-2.87,1.25-1.94,5.32-1.94,7.46,1.78,7.26,3.07,5.13ZM145.46,126.39l3.92,1.95,12.67-1.3-5.82,4.77.36,3.43,4.26-.24,7.07-4.58,9.49-1.67,1.71-5.22-.49-5.57-2.94-.5-2.5,1.93-1.1-4.13-.94-5.7-2.89-1.41-2.57,4.41,4.01,11.05-4.9-.85-4.98-6.79-7.89-4-2.64,3.32-3.83,11.1ZM168.02,84.33l-3.65-2.9-1.5-.66-2.88,4.28-.04,2h4.66s3.41-2.72,3.41-2.72ZM166.56,96.68l.93-3.98-3.95-2.12-4.09,1.39-2.27,4.26,4.16,4.21,5.22-3.76ZM195.65,129.92l4.62-1.11,1.28-8.25-.09-5.94-2.14-5.56-.22,1.6-3.94-.7-4.22,4.09-3.02-.37.18,8.92,4.6-.87-.06,6.47,3.01,1.72ZM192.37,175.53l-5.06-3.93-4.71-4.21-.87-6.18-1.76-8.93-3.14-3.84-2.79-1.55-2.47,1.42,1.99,9.59-1.41,3.73-2.29-8.98-2.56-3.1-3.17,4.81-3.9-4.76-6.24,2.87,1.4-4.46-2.86-1.87-7.51,5.84-1.95,3.71-2.35,6.77,4.9,2.32,4.33-.12-6.5,3.46,1.48,3.13,3.98.17,5.99-.67,5.42,1.96-3.66,1.45-3.95-.37-4.33,1.41-1.86.87,3.46,6.35,2.49-.88,3.83,2.15,1.52,3.65,4.99-.72,7.11-1.16,5.26-2.65,3.26-.48,4.82,2.12,5.07,1.22.95-2.86-1.79-3.05,4.6-.64.28-3.59ZM200.11,174.55l-1.96,3.54-2.47,2.49,3.83,3.54,2.28-.85,3.78,2.36,1.74-2.73-1.71-3.03-.84-1.53-1.68-1.46-2.97-2.33ZM182.5,145.1l-2.13-2.17-3.76.4-.95,1.38,4.37,6.75,2.47-6.36ZM211.19,158.27l3.01-6.93,3.34-1.85,4.19-8.74-5.36-2.47-5.84-.36-2.78,2.77-1.46,4.23-.04,4.82,1.75,8.19,3.19.34ZM228.34,135.27l5.76-.18,8.04-1.61,3.59,1.27,4.18-2.26,1.75-2.84-.63-4.52-3-4.23-4.56-.8-5.71.97-4.46,2.44-4.09-.94-3.78-.49-1.78-2.7-3.22-2.61.64-4.43-2.42-3.98-5.52.03-3.11-3.99-5.78-.8-1.05,5.1,3.25,3.75,5.8,1.45,2.82,5.1.34,5.6.97,5.99,7.45,3.42,4.52,1.26ZM139.32,117l5.21-5.05,2.62-.59,2.16-4.23.39-9.77-3.85,1.91-4.3-.18-5.76,8.19-4.76,8.98,3.8,2.51,4.49-1.77ZM211.5,133.17l1.53-4.14-1.02-3.46-2.45-3.92-4.03,3.02-1.49,4.92,3.4,2.79,4.06.79ZM203.19,144.61l-.73-2.88-5,1.26-3.34-2.11-3.32,4.8,3.09,6.28-5.72-1.17-.06,3.01,6.97,7.05,1.94,3.38,2.7.73,4.6-3.41.5-8.21-4.24-4.07,2.61-4.66ZM129.2,298.35l-1.16-2.34-2.8-1.77-1.39-2.05-.95-1.5-2.63-.46-1.72-.67-2.94-.96-.24,1.02,1.08,2.38,2.89.78.51,1.23,2.51,1.5.84,1.51,4.6,1.92,1.4-.59ZM250.91,220.72l-2-2.11-2.06.5-.25-3.06-3.21-2.03-3.07-2.27-1.63-1.75-1.43,1.03-.52-2.96-2.03-.56-.96,6.13-.36,5.11-2.44,3.14,3.8-.6.96,3.65,3.99-3.22,2.78-3.38,1.58,2.86,4.36,1.51,2.49-1.99ZM130.37,168.18l7.38-4.18v-3.87l3.48-6.41,6.88-6.69,3.53-2.47-3.01-4.2-2.72-2.95-7.16-.57-4-2.16-9.48,1.63,2.74,6.23-2.43,6.43-1.94,6.87-1.2,3.86,6.47,4.69,1.46,3.79ZM264.61,195.48l.32-1.01-.03-3.17-2.19-2.08-2.57,1.05-1.19,4.17.7,3.56,3.14-.36,1.82-2.16ZM288.43,203.02l4.41,6.6,3.45,2.86,4.92-7.87.87-4.93-4.41-.47-4.03-6.7-4.45-1.64-6.6-4.97,5.15-3.63-2.65-7.54-2.44-3.35-6.77-3.35-2.92-5.55-5.21,1.99-.36-3.86-3.86-4.32-6.22-4.71-2.65,3.71-5.55,2.66.42-6.06-4.81-10.05-7.11,4.06-2.59,7.7-2.21-5.92,2.06-6.37-7.24,2.65-2.88,3.99-2.15,8.42.89,9.05,3.98.04-2.93,3.92,2.33,2.96,4.55,1.25,5.93,2.42,10.2,1.82,5.08-1.04,1.5-2.42,2.21,2.79,2.47.46,2.97,4.97-1.8,1.98,5.68,2.63,4.3,3.68,1.08,2.55.77,3.24-3.63,6.93-.98,3.44.94,2.42-5.77.86-5.27.12-1.85,4.87,2.37,2.23,8.11-1.03-.04-1.89,4.08,3.15,4.18,3.28-.98,1.77,3.4,3.02,6.02,3.54,7.6,2.39-.46-2.09-2.92-3.67-3.96-5.37,7.03,5,3.54,1.66.97-4.44-1.82-6.3-1.15-1.73-3.81-3.03-2.95-3.91.35-3.94,3.62-.93ZM222.6,41.46l2.34,7.29,4.96,5.88,9.81-1.09,6.31,1.97-4.37,6.05-2.21-1.78-7.66-.71,1.19,8.31,3.96,6.04-.79,5.2-4.97,3.46-2.27,5.47,4.55,2.65,3.82,8.55-7.5-5.7-1.71.94,1.38,9.38-5.18,2.83.35,5.85,5.3.63,4.17,1.44,8.24-1.84,7.33,3.27,7.49-7.19-.06-3.02-4.79.48-.39-2.84,3.92-3.83,1.33-5.15,4.33-3.83,2.66-4.76-2.32-7.1,1.94-2.65-3.86-1.89,8.49-1.63,1.79-3.15,5.78-2.6,4.8-13.47,4.57-4.94,6.62-11.12-6.1.1,2.54-4.3,6.78-3.99,6.84-8.9.12-5.73-5.13-6.04-6.02-2.93-7.49-1.82-6.07-1.49-6.07-1.5-8.1,3.98-1.49-2.53-8.57.98-5.03,2.57-3.7,3.65-2.18,11.71-3.03-5.98-3.48-1.14-4.12,7.97-5.5,3.35-3.27.66-4.17,3.84.61,6.65,3.28,5.49ZM297,306.46l-.98-1.98-1.06,1.26.7,1.36,3.56,1.71,1.04-.26,1.38-1.66-2.6.11-2.04-.54ZM240,228.6l.61,1.63,1.98.14,3.28-3.34.06-1.19-3.85-.06-2.08,2.82ZM302.13,295.04l-2.87-1.8-3.69-1.09-.97.37,2.61,2.04,3.63,1.34,1.37-.08-.08-.78ZM327.02,299.83l-.36-2.23-1.96.72.87-3.11-2.8-1.32-1.29,1.05-2.49-1.18.98-1.51-1.88-.93-1.83,1.47,1.86-3.82,1.5-2.8.54-1.22-1.3-.2-2.43,1.55-1.74,2.53-2.9,6.92-2.35,2.56,1.22,1.14-1.75,1.47.43,1.23,5.44.13,3.01-.25,2.69,1-1.98,1.93,1.67.14,3.25-3.58.78.53-.61,3.37,1.84.77,1.27-.15,1.18-3.61-.86-2.6ZM305.82,304.6l-2.81,4.56-4.63.58-3.64-2.01-.91-3.07-.89-4.46,2.65-2.83-2.48-2.09-4.19.43-5.88,3.53-4.5,5.45-2.38.67,3.23-3.8,4.04-5.57,3.58-1.9,2.35-3.11,2.9-.3,4.21.03,6,.92,4.74-.71,3.53-3.62,4.62-1.59,2.01-1.58,2.04-1.71-.2-5.19-1.13-1.77-2.18-.63-1.11-4.05-1.8-1.55-4.47-1.26-2.52-2.82-3.73-2.83,1.13-3.2-3.1-6.26-3.65-6.89-2.18-4.98-1.85,2.61-2.68,6.05-4.06,2.97-2.03-3.15-2.56-.85-.93-6.99.08-4.8-5-.44-.85-2.27-3.45-3.44-2.61-2.04-2.32,1.58-2.88-.58-4.81-1.65-1.95,1.4.94,9.18,1.22,5.12-3.31,5.75,3.41,4.02,1.9,4.44.23,3.42-1.55,3.5-3.18,3.46-4.49,2.28,1.98,2.53,1.46,7.4-1.52,4.68-2.16,1.46-4.17-4.28-2.03-5.17-.87-4.76.46-4.19-3.05-.47-4.63-.28-2.97-2.08-3.51-1.37-2.01-2.38-2.8-1.93-5.21-2.23-3.92,1.02-1.31-3.95-1.26-4.99-4.12-.9.16-6.41,1.09-4.48,3.04-6.6,3.43-4.9,3.26-.77.19-4.05,2.21-2.68,4.01-.42,3.25-4.39.82-2.9,2.7-5.72.84-3.5,2.9,2.11,3.9-1.08,5.49-4.96.36-3.54-1.98-3.98,2.09-4.06-.17-3.86-3.76-3.95-4.14-1.19-3.98-.62-.15,8.71-2.04,6.56-2.93,5.3-2.71-4.95.84-5.61-3.35-5.02-3.75,6.09v-7.99s-5.2-1.63-5.2-1.63l2.49-4.01-3.81-9.59-2.95-3.92-3.7-1.44-3.31,6.43-.22,9.34,3.27,3.29,3,4.91-1.27,7.71-2.25-.2-1.78,5.88.02-7-4.34-2.58-2.49,1.34.32,4.67-4.09-.18-4.35,1.17-4.95-3.35-3.13.6-2.82-4.11-2.26-1.84-2.24.77-3.41.36-1.81,2.61,2.86,3.19-3.05,3.73-2.99-4.42-2.39,1.3-7.57.87-5.07-1.59,3.95-3.74-3.78-3.9-2.75.5-3.86-1.32-6.56-2.89-4.29-3.37-3.4-.47-1.06,2.36-3.44,1.31-.38-6.15-3.73,5.51-4.74-7.32-1.94-.89-.63,3.91-2.09,1.9-1.93-3.39-4.59,2.05-4.2,3.55-4.16-.98-3.4,2.5-2.46,3.28-2.92-.72-4.41-3.8-5.23-1.94-.02,27.65v35.43s2.75.17,2.75.17l2.73,1.56,1.96,2.44,2.49,3.6,2.73-3.05,2.82-1.79,1.49,2.86,1.89,2.23,2.57,2.42,1.75,3.79,2.87,5.88,4.77,3.2.08,3.12-1.56,2.36.06,2.48,3.39,3.45.49,3.76,3.59,1.96-.4,2.79,1.56,3.96,5.08,1.83,2,1.89,5.43,4.23h.38s7.96.01,7.96.01h69.65v-1.64s.96-.02.96-.02l.5,2.35.87.72,1.96.26,2.86.67,2.72,1.3,2.27-.55,3.45,1.09,1.14-1.66,1.59-.66.62-1.03.63-.55,2.61.86,1.93.1.67.57.94,2.38,3.15.63-.49,1.18,1.11,1.21-.48,1.56,1.18.51-.59,1.37.75.13.53-.6.55.9,2.1.5,2.13.04,2.27.41,2.51.78.92,1.26,1.82,3.04-.9,1.3-2.28-.54-1.41-2.44.36,2.49-1.34,2.17.15,1.84-.23,1.07-1.81,1.27-1.32,2.09-.62,1.32,1.54.24,2.08-1.2,1.23-1.06.83-.17,1.54.38.75-.59,1.37-.48,2.44-.47h0l-.25-1.15-.13.04-.86.2-1.12-.36.84-1.32.86-.46,1.98-.56,2.37-.53,1.24.73.78-.85.89-.54.6.29.03.06,2.87-2.73,1.26-.73,4.26-.03h5.17l.28-.98.9-.2,1.19-.62,1-1.82.86-3.15,2.14-3.1.93,1.08,1.88-.7,1.25,1.19v5.53l1.83,2.25,3.12-.48,4.49-.13-4.87,3.26.11,3.29,2.13.28,3.13-2.79,2.78-1.58,6.21-2.35,3.47-2.62-1.81-1.46-.29-3.03ZM252.16,233.49l1.1-3.12-.71-1.23-1.15-.13-1.08,1.8-.13.41.74,1.77,1.23.5ZM109.5,269.92h0l1.56-2.35-1.56,2.35Z"/>
      <path id="CR" class="cls-1" d="M242.88,430.52l-1.52-.63-.57-.59.32-.49-.1-.62-.78-.68-1.1-.55-.97-.36-.18-.83-.74-.5.18.82-.56.67-.64-.78-.9-.28-.38-.57.02-.86.37-.9-.79-.4.64-.54.42-.37,1.85.75.64-.37.89.24.47.58.82.19.68-.6.71,1.54,1.08,1.14,1.32,1.21-1.09.25.02,1.14.58.41-.42.34.11.51-.23.57-.15.56Z"/>
      <path id="CU" class="cls-1" d="M244.84,387.06l2.42.22,2.2.03,2.63,1.03,1.12,1.11,2.62-.34.99.71,2.38,1.86,1.74,1.35.92-.04,1.68.61-.21.84,2.07.12,2.12,1.22-.33.69-1.87.38-1.88.15-1.94-.24-4.01.29,1.88-1.66-1.14-.77-1.81-.2-.97-.86-.67-1.7-1.58.11-2.61-.8-.85-.63-3.65-.47-.98-.59,1.05-.75-2.75-.15-2.01,1.56-1.16.04-.41.74-1.38.33-1.2-.29,1.48-.93.6-1.08,1.27-.68,1.43-.59,2.13-.29.68-.33Z"/>
      <path id="DO" class="cls-1" d="M274.43,397.47l.35-.51,2.19.02,1.66.76.74-.08.51,1.05,1.54-.06-.1.88,1.25.11,1.38,1.08-1.04,1.2-1.33-.64-1.29.12-.92-.14-.51.54-1.08.18-.42-.71-.93.42-1.12,2-.73-.46-.14-.84.06-.8-.72-.88.68-.5.22-1.13-.25-1.61Z"/>
      <path id="GT" class="cls-1" d="M222.89,414.87l-1.44-.5-1.75-.05-1.28-.57-1.51-1.18.07-.84.32-.68-.39-.54,1.35-2.36h3.59s.08-.99.08-.99l-.46-.18-.31-.63-1.04-.67-1.04-.98h1.27v-1.65h2.62l2.59.03-.02,2.31-.22,3.28h.84l.91.53.24-.43.82.36-1.27,1.11-1.33.81-.2.55.22.57-.58.73-.66.17.15.34-.52.32-.96.72-.09.42Z"/>
      <path id="HN" class="cls-1" d="M230.68,417.02l-.48-.89-.86-.25.2-1.15-.38-.31-.58-.2-1.23.34-.1-.39-.85-.46-.6-.57-.83-.24.58-.73-.22-.57.2-.55,1.33-.81,1.27-1.11.29.12.62-.51.8-.04.26.23.44-.14,1.3.26,1.3-.08.9-.32.33-.32.89.15.67.2.73-.07.56-.25,1.28.4.45.06.85.54.81.65,1.02.45.74.79-.96-.06-.39.39-.97.38h-.71l-.62.37-.56-.13-.48-.44-.29.08-.36.69-.27-.03-.05.6-.98.79-.51.34-.29.36-.83-.58-.6.76-.59-.02-.66.07.06,1.41-.41.02-.35.66-.87.11Z"/>
      <path id="HT" class="cls-1" d="M270.29,396.87l1.71.13,2.43.47.25,1.61-.22,1.13-.68.5.72.88-.06.8-1.86-.5-1.32.2-1.71-.21-1.31.55-1.51-.92.25-.94,2.58.4,2.12.24,1.01-.65-1.28-1.28.02-1.13-1.77-.46.63-.82Z"/>
      <path id="JM" class="cls-1" d="M258.01,401.08l1.89.26,1.49.71.46.8-1.97.05-.85.49-1.57-.47-1.6-1.07.33-.67,1.18-.2.64.1Z"/>
      <path id="MX" class="cls-1" d="M203.14,378.84l-1.09,2.71-.49,2.21-.21,4.08-.27,1.47.49,1.64.87,1.47.56,2.31,1.86,2.22.65,1.68,1.1,1.46,2.98.78,1.16,1.22,2.46-.82,2.13-.29,2.1-.53,1.77-.51,1.78-1.2.67-1.72.23-2.5.49-.87,1.89-.79,2.97-.69,2.48.1,1.7-.25.68.63-.1,1.44-1.51,1.77-.66,1.81.51.51-.42,1.28-.7,2.3-.71-.76-.59.05-.53.04-1,1.77-.51-.35-.34.14.02.43-2.59-.03h-2.62v1.65h-1.27l1.04.98,1.04.67.31.63.46.18-.08.98h-3.59s-1.35,2.37-1.35,2.37l.39.54-.32.68-.07.84-3.17-3.11-1.45-.94-2.29-.76-1.56.21-2.26,1.09-1.41.29-1.98-.76-2.1-.56-2.62-1.33-2.1-.4-3.18-1.36-2.34-1.4-.71-.78-1.57-.17-2.87-.93-1.17-1.34-3.01-1.67-1.4-1.87-.67-1.45.93-.29-.28-.85.64-.77v-1.04s-.93-1.34-.93-1.34l-.26-1.2-.94-1.52-2.47-3.02-2.82-2.39-1.36-1.91-2.41-1.26-.51-.76.43-1.92-1.43-.73-1.66-1.52-.7-2.19-1.51-.26-1.62-1.66-1.32-1.55-.12-1-1.51-2.42-.99-2.48.04-1.25-2.03-1.29-.93.14-1.6-.9-.45,1.33.46,1.56.27,2.43.97,1.33,2.08,2.21.46.75.43.22.37,1.1.49-.05.57,2.04.85.8.6,1.11,1.76,1.6.93,2.89.83,1.35.78,1.44.15,1.62,1.36.1,1.12,1.39,1.02,1.36-.07.54-1.18,1.11h-.5s-.74-1.86-.74-1.86l-1.83-1.73-2.02-1.48-1.44-.78.09-2.25-.42-1.68-1.34-.96-1.92-1.39-.37.4-.71-.82-1.73-.75-1.65-1.83.2-.24,1.15.18,1.05-1.18.1-1.43-2.16-2.27-1.65-.89-1.03-2-1.04-2.13-1.3-2.61-1.14-2.96,3.19-.25,3.56-.36-.26.64,4.23,1.61,6.4,2.31,5.58-.02h2.22v-1.36h4.86l1.02,1.17,1.44,1.03,1.66,1.43.93,1.69.7,1.76,1.45.97,2.33.96,1.76-2.53,2.3-.06,1.97,1.28,1.41,2.18.97,1.86,1.65,1.8.62,2.19.79,1.47,2.18.96,1.99.68,1.1-.09Z"/>
      <path id="NI" class="cls-1" d="M235.18,422.43l-.97-.9-1.31-1.15-.62-.96-1.18-.89-1.41-1.29.32-.44.46.43.21-.21.87-.11.35-.66.41-.02-.06-1.41.66-.07.59.02.6-.76.83.58.29-.36.51-.34.98-.79.05-.6.27.03.36-.69.29-.08.48.44.56.13.62-.37h.71l.97-.38.39-.39.96.06-.24.28-.14.64.28,1.05-.64.98-.3,1.16-.09,1.26.15.73.07,1.29-.43.28-.26,1.22.19.75-.57.73.13.76.43.47-.68.6-.82-.19-.47-.58-.89-.24-.64.37-1.85-.75-.42.37Z"/>
      <path id="PA" class="cls-1" d="M257.14,433.33l-.94-.81-.6-1.52.69-.75-.71-.19-.52-.93-1.4-.78-1.22.18-.57.98-1.14.7-.61.1-.27.59,1.34,1.52-.77.36-.41.42-1.3.14-.49-1.68-.36.48-.93-.16-.56-1.14-1.15-.18-.73-.33h-1.2l-.09.61-.32-.42.15-.56.23-.57-.11-.51.42-.34-.58-.41-.02-1.14,1.09-.25,1,1.01-.05.6,1.11.12.27-.23.77.7,1.38-.21,1.19-.71,1.7-.57.96-.84,1.55.16-.1.28,1.56.1,1.25.49.91.84,1.06.78-.35.42.66,1.65-.53.84-.91-.2-.35,1.36Z"/>
      <path id="PR" class="cls-1" d="M289.66,401.01l1.43.26.51.58-.72.74-2.11-.02-1.64.1-.17-1.25.4-.43,2.3.02Z"/>
      <path id="SV" class="cls-1" d="M229.34,415.88l-.31.67-1.62-.04-1.01-.27-1.16-.57-1.56-.18-.79-.62.09-.42.96-.72.52-.32-.15-.34.66-.17.83.24.6.57.85.46.1.39,1.23-.34.58.2.38.31-.2,1.15Z"/>
      <path id="US" class="cls-1" d="M109.5,269.92h0l-1.54-1.83-2.47-1.57-.79-4.36-3.61-4.13-1.51-4.94-2.69-.34-4.46-.13-3.29-1.53-5.8-5.64-2.68-1.05-4.9-1.99-3.88.48-5.51-2.59-3.33-2.43-3.11,1.21.58,3.93-1.55.36-3.24,1.16-2.47,1.86-3.11,1.16-.4-3.24,1.26-5.53,2.98-1.77-.77-1.46-3.57,3.22-1.91,3.77-4.04,3.95,2.05,2.65-2.65,3.85-3.01,2.21-2.81,1.59-.69,2.29-4.38,2.63-.89,2.36-3.28,2.13-1.92-.38-2.62,1.38-2.84,1.67-2.33,1.63-4.81,1.38-.44-.81,3.07-2.27,2.74-1.51,2.99-2.71,3.48-.56,1.38-2.06,3.89-3.05.63-1.03,2.07-1.83.48-4,1.43-3.17-3.23,1.64-.9-.93-1.52,1.95-1.83-2.73-.76,1.94-1.05-2.69-2.8,2.17h-1.72l-.24-3.23.51-2.02-1.81-1.98-3.65,1.07-2.37-2.63-1.92-1.36v-3.25s-2.17-2.48-2.17-2.48l1.09-3.4,2.29-3.37,1-3.15,2.27-.45,1.92.99,2.26-3.01,2.04.54,2.14-1.95-.52-2.92-1.57-1.16,2.08-2.52-1.72.08-2.97,1.43-.85,1.43-2.21-1.43-3.97.73-4.11-1.56-1.18-2.65-3.55-3.91,3.94-2.87,6.25-3.41h2.31l-.38,3.48,5.92-.27-2.28-4.34-3.45-2.72-1.99-3.64-2.69-3.17-3.85-2.38,1.57-4.03,4.97-.25,3.54-3.58.67-3.92,2.86-3.91,2.73-.95,5.32-3.76,2.58.57,4.32-4.61,4.24,1.83,2.03,3.87,1.25-1.65,4.74.51-.17,1.95,4.29,1.43,2.86-.84,5.91,2.64,5.39.78,2.16,1.07,3.73-1.33,4.25,2.46,3.05,1.14-.02,27.65v35.43s2.75.17,2.75.17l2.73,1.56,1.96,2.44,2.49,3.6,2.73-3.05,2.82-1.79,1.49,2.86,1.89,2.23,2.57,2.42,1.75,3.79,2.87,5.88,4.77,3.2.08,3.12-1.66,2.24ZM285.43,304.36l-1.25-1.19-1.88.7-.93-1.08-2.14,3.1-.85,3.15-.99,1.82-1.19.62-.9.2-.28.98h-5.17l-4.26.03-1.26.73-2.87,2.73.29.54.17,1.51-2.1,1.27-2.3-.32-2.2-.14-1.33.44.25,1.15h0l.06.37-2.42,2.27-2.12,1.09-1.44.51-1.66,1.03-2.03.5-1.4-.19-1.73-.77.96-1.45.62-1.32,1.32-2.09-.14-1.57-.5-2.24-1.04-.39-1.74,1.71-.56-.03-.14-.97,1.54-1.56.26-1.79-.23-1.79-2.08-1.55-2.38-.8-.39,1.52-.62.41-.5,1.95-.26-1.32-1.12.95-.7,1.32-.73,1.92-.14,1.65.93,2.38-.08,2.51-1.14,1.84-.57.52-.76.41-.95.02-.26-.25-.75-1.97-.02-.98.08-.94-.35-1.87.53-2.18.63-2.71,1.46-3.03h-.42s-2.06,2.55-2.06,2.55l-.38-.46,1.1-1.42,1.67-2.57,1.91-.36,2.19-.8,2.21.42.09.02,2.47-.36-1.39-1.61-.75-.12-.85-.16-.59-1.14-2.75.36-2.49.91-1.97-1.55-1.59-.52.9-2.17-2.47,1.37-2.25,1.33-2.16,1.04-1.72-1.4-2.81.85v-.6s1.91-1.73,1.91-1.73l1.99-1.65,2.86-1.37-3.45-1.09-2.27.55-2.72-1.3-2.86-.67-1.96-.26-.87-.72-.5-2.35-.95.02v1.64h-77.62l.95,3.47.45,3.41-.69,1.09-1.49-3.91-4.05-1.42-.34.82.82,1.94.89,3.53.51,5.42-.34,3.59-.34,3.54-1.1,3.61.9,2.9.1,3.2-.61,3.06,1.49,1.99.39,2.95,2.17,2.99,1.24,1.17-.1.82,2.34,4.85,2.72,3.45.34,1.87.72.55,2.61.33,1,.91,1.57.17.31.97,1.31.4,1.82,1.92.47,1.7,3.19-.25,3.56-.36-.26.65,4.23,1.6,6.4,2.31,5.58-.02h2.22v-1.35h4.87l1.02,1.16,1.43,1.03,1.67,1.43.93,1.69.7,1.77,1.45.97,2.33.96,1.77-2.53,2.29-.06,1.98,1.28,1.41,2.18.97,1.86,1.65,1.8.62,2.19.79,1.47,2.19.96,1.99.68,1.09-.09-.53-1.05-.14-1.49.03-2.16.65-1.42,1.53-1.51,2.79-1.37,2.55-2.37,2.36-.75,1.74-.22,2.04.74,2.44-.4,2.09,1.69,2.04.1,1.05-.61,1.04.47.53-.42-.59-.63.05-1.3-.5-.86,1.16-.5,2.14-.22,2.49.36,3.17-.41,1.76.8,1.36,1.5.5.16,2.83-1.46,1.09.49,2.19,2.68.79,1.75-.58,2.1.42,1.23,1.3,2.4,1.49,2.68,1.07.71.44,1.35,1.38.37.84-.39.7-1.89.12-1.21.09-2.1-1.33-3.65-.02-1.37-1.25-2.25-.94-2.74-.5-2.25.43-2.31,1.32-1.94,1.58-1.57,3.08-2.16.4-1.12,1.42-1.23,1.4-.21,1.84-1.98,2.9-1.01,1.78-2.53-.39-3.45-.29-1.2-.8-.24-.12-3.35-1.93-1.14,1.85.56-.6-2.26.54-1.55.33,2.97,1.43,1.36-.87,2.4.26.14,1.58-2.81.9-1.38-.04-1.35-.7-.64-.58-1.94.92.9.62.19.21.92,2.04-2.78.61-2.62-.82-.17.85-1.02-.08.45h1.79s3.93-1.12,3.93-1.12l-.83-.7-4.12.7,2.34-1.07,1.63-.18,1.22-.19,2.07-.65,1.35.07,1.89-.6.22-1.07-.84-.83.29,1.37-1.16-.09-.92-1.99.03-2.01.48-.86,1.48-2.28,2.96-1.15,2.88-1.34,2.99-1.9-.48-1.29-1.83-2.25-.15-5.74ZM45.87,253.91l-1.5.8-2.55,1.86.43,2.42,1.43,1.32,2.8-1.95,2.43-2.46-1.19-1.63-1.85-.36ZM.25,225.35l2.04-1.26.23-.68-2.27-.68v2.62ZM8.75,240.71l-2.77.97,1.7,1.52,1.84,1.04,1.72-.87-.27-2.15-2.22-.51ZM106.1,273.21l-2.69.38-1.32-.62-.17,1.52.52,2.07,1.42,1.46,1.04,2.13,1.69,2.1h1.12s-2.44-3.69-2.44-3.69l.83-5.35ZM37.38,393.89l-1-.28-.27.26.03.19.32.24.48.63.94-.21.23-.36-.73-.47ZM34.39,393.35l1.5.09.09-.32-1.38-.13-.21.36ZM40.28,396.64l-.5-.26-1.07-.5-.21-.05-.16.28.19.58-.49.48-.14.33.46,1.08-.08.83.7.42.41-.49.9-.46,1.1-.63.07-.16-.71-1.04-.47-.41ZM32.42,391.5l-.75.41.11.12.36.68.98.11.2.04.15-.17-.81-.99-.24-.2ZM28.02,389.94l-.43.3-.14.22.94.55.33-.3-.06-.7-.64-.07Z"/>
    </g>
  </g>
</svg>