<?xml version="1.0" encoding="UTF-8"?>
<svg id="Layer_2" data-name="Layer 2" xmlns="http://www.w3.org/2000/svg" viewBox="0 0 131.43 223">
  <defs>
    <style>
      .cls-1 {
        fill: #ccc;
        stroke: #fff;
        stroke-width: .5px;
      }
    </style>
  </defs>
  <g id="Layer_1-2" data-name="Layer 1">
    <g>
      <path id="AR" class="cls-1" d="M44.89,220.71l-2.66.25-1.43-1.73-1.69-.13h-3v-10.57l1.08,2.15,1.4,3.53,3.65,2.87,3.93,1.21-1.28,2.42ZM46.39,98.27l1.65,2.18,1.09-2.43,3.2.12.45.64,5.15,4.94,2.29.46,3.43,2.26,2.89,1.2.4,1.36-2.76,4.73,2.83.85,3.15.48,2.22-.5,2.54-2.4.46-2.74,1.39-.59,1.41,1.79-.06,2.49-2.36,1.73-1.88,1.28-3.16,3.08-3.74,4.37-.7,2.59-.75,3.37.03,3.3-.61.74-.22,2.17-.19,1.76,3.56,2.91-.38,2.37,1.75,1.51-.14,1.7-2.69,4.52-4.16,1.91-5.62.75-3.08-.36.59,2.15-.57,2.72.52,1.85-1.68,1.3-2.87.51-2.7-1.35-1.08.97.39,3.71,1.89,1.14,1.54-1.19.84,1.96-2.58,1.18-2.25,2.38-.41,3.91-.66,2.11h-2.65s-2.2,2.05-2.2,2.05l-.8,3.01,2.76,2.98,2.68.83-.96,3.73-3.31,2.38-1.82,5.03-2.56,1.72-1.15,2.06.91,4.64,1.87,2.63-1.18-.23-2.6-.71-6.78-.61-1.16-2.63.05-3.33-1.87.28-.99-1.6-.25-4.6,2.15-1.88.89-2.68-.33-2.11,1.49-3.52,1.02-5.35-.3-2.33,1.22-.75-.3-1.48-1.3-.78.92-1.63-1.27-1.46-.65-4.4,1.13-.77-.47-4.54.66-3.75.75-3.22,1.68-1.3-.85-3.46v-3.22s2.11-2.26,2.11-2.26l-.06-2.87,1.6-3.31v-3.09s-.72-.61-.72-.61l-1.29-5.69,1.73-3.34-.27-3.11,1-2.9,1.84-2.96,1.98-1.95-.84-1.23.59-1-.09-5.14,3.05-1.51.96-3.16-.34-.76,2.34-2.72,3.62.72Z"/>
      <path id="BO" class="cls-1" d="M52.33,98.15l-3.2-.13-1.09,2.43-1.65-2.18-3.67-.73-2.33,2.72-2.03.41-1.1-4.15-1.5-3.34.88-2.87-1.47-1.25-.37-2.12-1.38-2,1.77-3.14-1.21-2.44.65-.97-.51-1.07,1.1-1.44.06-2.44.13-2.02.61-.96-2.43-4.58,2.09.24,1.44-.07.63-.85,2.45-1.15,1.47-1.06,3.67-.48-.29,2.12.34,1.09-.23,1.9,3.05,2.55,3.14.47,1.1,1.07,1.9.57,1.16.83,1.76-.03,1.63.85.12,1.66.55.84.04,1.25-.82.04,1.08,3.37,5.37.12-.41,1.68.3,1.15,1.53.82.67,1.82-.5,2.32-.77,1.29.27,1.69-.88.61-.04-.91-2.62-1.51-2.6-.05-4.89.86-1.34,2.62-.07,1.6-1.11,3.59-.45-.64Z"/>
      <path id="BR" class="cls-1" d="M66.97,123.59l3.74-4.37,3.17-3.08,1.88-1.28,2.36-1.73.06-2.49-1.41-1.79-1.39.59.55-1.78.38-1.82v-1.68l-1.01-.55-1.05.49-1.04-.13-.33-1.18-.26-2.77-.53-.9-1.89-.82-1.14.59-2.96-.58.18-4.06-.83-1.66.88-.61-.27-1.69.77-1.29.5-2.32-.67-1.82-1.53-.82-.3-1.15.41-1.68-5.37-.12-1.08-3.37.82-.04-.04-1.25-.55-.84-.12-1.66-1.63-.85-1.76.03-1.16-.83-1.9-.57-1.1-1.07-3.14-.47-3.05-2.55.23-1.9-.34-1.09.29-2.12-3.67.48-1.47,1.06-2.45,1.15-.63.85-1.44.07-2.09-.24-1.58.49-1.28-.33.19-4.3-2.3,1.66-2.47-.07-1.06-1.51-1.86-.16.59-1.21-1.56-1.72-1.17-2.53.74-.51v-1.19l1.7-.81-.28-1.51.71-.98.21-1.3,3.2-1.91,2.3-.53.37-.42,2.53.13,1.26-7.65.07-1.21-.44-1.59-1.24-1.02v-2.02s1.59-.46,1.59-.46l.56.29.09-1.07-1.64-.29-.03-1.74,5.46.06.93-.96.78.88.54,1.65.53-.35,1.55,1.48,2.18-.18.54-.86,2.08-.65,1.16-.45.32-1.18,2.01-.8-.16-.58-2.37-.24-.39-1.76.11-1.87-1.25-.72.52-.26,2.08.36,2.23.7.81-.66,2.01-.44,3.14-1.04,1.03-1.07-.38-.79,1.46-.12.66.64-.37,1.23.96.42.65,1.3-.78.98-.45,2.38.72,1.41.2,1.29,1.73,1.3,1.38.14.31-.54.88-.12,1.27-.49.91-.74,1.55.23.68-.1,1.53.23.25-.57-.47-.55.28-.81,1.13.25,1.33-.29,1.6.59,1.23.58.87-.76.62.12.39.79,1.34-.2,1.07-1.06.86-2.06,1.66-2.55.96-.13.69,1.54,1.57,4.88,1.5.46.08,1.92-2.11,2.29.87.84,4.96.44.1,2.79,2.13-1.83,3.53,1.01,4.65,1.7,1.37,1.63-.46,1.54,3.26-.86,5.46,1.48,4.19-.11,4.14,2.31,3.58,3.13,2.16.8,2.4.12,1.02.88.95,3.57.47,1.69-1.12,4.66-1.43,1.84-3.95,3.94-1.79,3.21-2.07,2.48-.7.06-.79,2.1.2,5.4-.78,4.48-.3,1.93-.88,1.15-.5,3.94-2.84,3.88-.48,3.09-2.27,1.31-.66,1.81h-3.04s-4.41,1.16-4.41,1.16l-1.98,1.35-3.14.89-3.3,2.44-2.37,3.06-.41,2.32.47,1.73-.53,3.18-.63,1.55-1.96,1.75-3.11,5.68-2.47,2.59-1.91,1.54-1.27,3.16-1.86,1.91-.78-1.9,1.24-1.57-1.62-2.25-2.2-1.82-2.89-2.08-1.04.09-2.81-2.5-1.82.34Z"/>
      <path id="CL" class="cls-1" d="M36.1,208.53v10.57h3l1.69.13-.93,1.98-2.4,1.53-1.38-.16-1.66-.4-2.04-1.48-2.94-.71-3.53-2.71-2.86-2.57-3.86-5.25,2.31.97,3.94,3.13,3.72,1.7,1.45-2.17.91-3.2,2.58-1.91,2,.55ZM37.26,96.52l1.1,4.15,2.02-.41.34.76-.96,3.16-3.05,1.51.09,5.14-.59,1,.84,1.23-1.98,1.95-1.84,2.96-1,2.9.27,3.11-1.73,3.34,1.29,5.69.73.61v3.09s-1.61,3.31-1.61,3.31l.06,2.87-2.12,2.26v3.22s.86,3.46.86,3.46l-1.68,1.3-.75,3.22-.66,3.75.47,4.54-1.13.77.65,4.4,1.27,1.46-.92,1.63,1.3.78.3,1.48-1.22.75.3,2.33-1.02,5.35-1.49,3.52.33,2.11-.89,2.68-2.15,1.88.25,4.6.99,1.6,1.87-.28-.05,3.33,1.16,2.63,6.78.61,2.6.71-2.49-.03-1.35,1.13-2.53,1.67-.45,4.38-1.19.11-3.16-1.54-3.21-3.25h0l-3.49-2.63-.88-2.87.79-2.62-1.41-2.94-.36-7.34,1.19-4.03,2.96-3.19-4.26-1.19,2.67-3.57.95-6.56,3.12,1.37,1.46-7.97-1.88-1-.88,4.75-1.77-.54.88-5.42.96-6.84,1.29-2.48-.81-3.5-.23-3.98,1.18-.11,1.72-5.6,1.94-5.43,1.19-4.97-.65-4.91.84-2.67-.34-3.96,1.64-3.87.51-6.04.9-6.37.88-6.75-.21-4.87-.58-4.15,1.44-.75.75-1.5,1.37,1.99.37,2.12,1.47,1.25-.88,2.87,1.51,3.34Z"/>
      <path id="CO" class="cls-1" d="M17.21,35.61l-1.2-.66-1.38-.92-.8.44-2.38-.39-.68-1.2-.52.05-2.81-1.59-.38-.87,1.05-.21-.12-1.39.65-1.01,1.39-.19,1.19-1.75,1.07-1.46-1.04-.67.53-1.62-.63-2.56.6-.73-.44-2.37-1.14-1.5.36-1.36.91.2.53-.84-.65-1.65.34-.42,1.44.09,2.11-1.97,1.15-.3.03-.93.52-2.39,1.61-1.32,1.76-.05.22-.59,2.2.23,2.21-1.43,1.09-.64,1.35-1.37,1,.17.73.75-.54.96-1.8.48-.71,1.42-1.09.81-.81,1.06-.35,2.01-.77,1.66,1.44.18.36,1.3.62.62.22,1.13-.33,1.04.1.59.69.23.67.98,3.6-.27,1.63.36,1.98,2.41,1.13-.3,2.02.15,1.6-.32.99.49-.51,1.5-.62.94-.22,2.01.56,1.85.8.83.09.63-1.42,1.39,1.02.61.75.98.85,2.77-.53.35-.54-1.65-.78-.88-.93.96-5.46-.06.03,1.74,1.64.29-.09,1.07-.56-.29-1.58.46v2.02s1.23,1.02,1.23,1.02l.44,1.59-.07,1.21-1.26,7.65-1.4-1.49-.84-.06,1.81-2.84-2.15-1.31-1.68.24-1.01-.48-1.55.74-2.09-.35-1.65-2.92-1.3-.72-.89-1.32-1.86-1.32-.75.27Z"/>
      <path id="EC" class="cls-1" d="M3.39,44.67l1.49-2.08-.61-1.22-1.07,1.3-1.68-1.23.57-.78-.47-2.53.98-.42.52-1.73,1.06-1.8-.2-1.13,1.54-.6,1.92-1.11,2.81,1.59.52-.05.68,1.2,2.38.39.8-.44,1.38.92,1.2.66.39,2.11-.87,1.81-3.06,2.92-3.37,1.1-1.72,2.43-.53,1.88-1.59,1.15-1.17-1.41-1.14-.3-1.16.22-.07-1.02.8-.66-.33-1.17Z"/>
      <path id="FK" class="cls-1" d="M56.95,204.93l3.36-2.69,2.39,1.12,1.68-1.79,2.24,2.01-.84,1.58-3.79,1.36-1.26-1.59-2.38,2.05-1.4-2.05Z"/>
      <path id="GF" class="cls-1" d="M81.18,28.21l-1.07,1.06-1.34.2-.38-.78-.63-.12-.87.76-1.22-.57.71-1.19.24-1.27.48-1.2-1.09-1.65-.22-1.91,1.46-2.41.95.31,2.06.66,2.97,2.36.46,1.14-1.66,2.55-.85,2.06Z"/>
      <path id="GY" class="cls-1" d="M60.99,11.8l1.84,1.03,1.74,1.83.07,1.45,1.06.07,1.5,1.36,1.11.98-.45,2.52-1.7.73.15.65-.52,1.45,1.25,2.02h.89s.37,1.58.37,1.58l1.71,2.42-.68.1-1.55-.23-.91.74-1.27.49-.88.12-.31.54-1.38-.14-1.73-1.3-.2-1.29-.72-1.41.45-2.38.78-.98-.65-1.3-.96-.42.37-1.23-.66-.64-1.46.12-1.89-2.12.76-.77-.06-1.3,1.73-.45.69-.52-.96-1.04.25-1.03,2.22-1.65Z"/>
      <path id="PE" class="cls-1" d="M33.42,84.94l-.75,1.51-1.44.74-2.81-1.68-.25-1.2-5.55-2.92-5.03-3.17-2.17-1.78-1.16-2.37.46-.83-2.37-3.75-2.77-5.24-2.64-5.62-1.15-1.29-.88-2.06-2.18-1.84-2-1.13.91-1.25-1.36-2.67.87-1.95,2.24-1.77.33,1.17-.8.66.07,1.02,1.16-.22,1.14.3,1.17,1.41,1.59-1.15.53-1.88,1.72-2.43,3.37-1.1,3.06-2.92.87-1.81-.39-2.11.75-.27,1.86,1.32.89,1.32,1.3.72,1.65,2.92,2.09.35,1.55-.74,1.01.48,1.68-.24,2.15,1.31-1.81,2.84.84.06,1.4,1.49-2.53-.13-.37.42-2.3.53-3.2,1.91-.21,1.3-.71.98.28,1.51-1.7.81v1.19l-.74.51,1.17,2.53,1.56,1.72-.59,1.21,1.86.16,1.06,1.51,2.47.07,2.3-1.66-.19,4.3,1.28.33,1.58-.49,2.43,4.58-.61.96-.13,2.02-.06,2.44-1.1,1.44.51,1.07-.65.97,1.21,2.44-1.77,3.14Z"/>
      <path id="PY" class="cls-1" d="M52.78,98.79l1.11-3.59.07-1.6,1.34-2.62,4.89-.86,2.6.05,2.62,1.51.04.91.83,1.66-.18,4.06,2.96.58,1.14-.59,1.89.82.53.9.26,2.77.33,1.18,1.04.13,1.05-.49,1.01.55v1.68l-.38,1.82-.55,1.78-.46,2.75-2.54,2.4-2.22.5-3.15-.48-2.82-.85,2.76-4.73-.41-1.37-2.88-1.2-3.43-2.26-2.29-.46-5.16-4.95Z"/>
      <path id="SR" class="cls-1" d="M68.31,18.52l3.36.56.3-.51,2.27-.2,3.01.76-1.46,2.4.22,1.91,1.11,1.66-.49,1.2-.25,1.27-.72,1.17-1.6-.59-1.33.29-1.13-.25-.28.81.47.55-.25.57-1.53-.23-1.71-2.42-.37-1.57h-.89s-1.25-2.03-1.25-2.03l.52-1.45-.15-.65,1.7-.73.45-2.52Z"/>
      <path id="UY" class="cls-1" d="M66.97,123.59l1.82-.34,2.81,2.5,1.04-.09,2.89,2.08,2.2,1.82,1.62,2.25-1.24,1.57.78,1.9-1.21,2.12-3.17,1.88-2.07-.68-1.52.37-2.59-1.46-1.9.11-1.71-1.87.22-2.16.61-.74-.03-3.3.75-3.37.7-2.59Z"/>
      <path id="VE" class="cls-1" d="M28.54,2.15l-.08.67-1.65.33.92,1.29-.04,1.49-1.23,1.64,1.06,2.24,1.21-.18.63-2.04-.87-1-.14-2.14,3.49-1.16-.39-1.34.98-.9,1.01,2,1.97.05,1.82,1.58.11.94,2.51.02,3-.29,1.61,1.27,2.14.35,1.57-.88.03-.72,3.48-.17,3.36-.04-2.38.84.95,1.34,2.25.21,2.12,1.39.45,2.26,1.46-.07,1.1.67-2.22,1.65-.25,1.03.96,1.04-.69.52-1.73.45.06,1.3-.76.77,1.89,2.12.38.79-1.03,1.07-3.14,1.04-2.01.44-.81.66-2.23-.7-2.08-.36-.52.26,1.25.72-.11,1.87.39,1.76,2.37.24.16.58-2.01.8-.32,1.18-1.16.45-2.08.65-.54.86-2.18.18-1.55-1.48-.85-2.77-.75-.98-1.02-.61,1.42-1.39-.09-.63-.8-.83-.56-1.85.22-2.01.62-.94.51-1.5-.99-.49-1.6.32-2.02-.15-1.13.3-1.98-2.41-1.63-.36-3.6.27-.67-.98-.69-.23-.1-.59.33-1.04-.22-1.13-.62-.62-.36-1.3-1.44-.18.77-1.66.35-2.01.81-1.06,1.09-.81.71-1.42,1.8-.48Z"/>
    </g>
  </g>
</svg>